<svg version="1.1" id="Layer_1" xmlns="http://www.w3.org/2000/svg" xmlns:xlink="http://www.w3.org/1999/xlink" x="0px" y="0px"
	 width="100%" viewBox="0 0 1571 1013" enable-background="new 0 0 1571 1013" xml:space="preserve">
<path fill="#0D0D0B" opacity="0.000000" stroke="none" 
	d="
M993.000000,1014.000000 
	C662.000000,1014.000000 331.500000,1014.000000 1.000000,1014.000000 
	C1.000000,676.333313 1.000000,338.666656 1.000000,1.000000 
	C524.666687,1.000000 1048.333374,1.000000 1572.000000,1.000000 
	C1572.000000,338.666656 1572.000000,676.333313 1572.000000,1014.000000 
	C1379.166626,1014.000000 1186.333374,1014.000000 993.000000,1014.000000 
M348.560913,697.030945 
	C361.353638,690.401794 373.154694,682.354736 383.262634,672.039673 
	C412.151947,642.558472 423.033752,606.919312 418.032837,566.430481 
	C413.438171,529.230530 393.939636,501.573975 361.701660,482.789215 
	C342.665588,471.697083 321.887390,465.384003 300.441864,461.049561 
	C292.740662,459.493073 284.983551,458.213135 277.251923,456.806976 
	C278.639740,455.214539 280.089630,454.604034 281.566681,454.068329 
	C288.120514,451.691254 294.803772,449.624847 301.221497,446.926056 
	C346.683685,427.808350 376.964966,396.222656 382.377777,345.348236 
	C385.424042,316.716644 378.718536,290.450409 359.303741,268.290436 
	C339.375031,245.543945 313.167358,234.701996 284.317902,228.943466 
	C259.934631,224.076385 235.271286,225.150146 210.610306,225.139526 
	C156.963821,225.116409 103.317596,224.526550 49.671257,224.169662 
	C48.416656,224.161316 47.161949,224.168610 46.147400,224.168610 
	C46.147400,229.143036 46.147400,233.555283 46.147400,237.013504 
	C57.454273,239.009888 68.312408,240.588303 79.009300,242.909698 
	C90.001625,245.295212 96.920082,252.629242 98.874031,263.522858 
	C100.657532,273.466064 101.862823,283.647064 101.955444,293.735809 
	C102.310364,332.398071 102.133430,371.065399 102.120598,409.730835 
	C102.093651,490.894684 102.132133,572.058838 101.874725,653.221924 
	C101.848030,661.638550 100.547913,670.157959 98.879295,678.436218 
	C96.660263,689.445251 89.992676,696.791077 78.581261,699.162231 
	C75.817001,699.736572 73.106873,700.647156 70.320587,701.025452 
	C62.273376,702.117981 54.200020,703.017883 46.082466,704.000061 
	C46.082466,708.610962 46.082466,713.027649 46.082466,717.675354 
	C49.516819,717.477356 52.638474,717.170105 55.763054,717.136719 
	C93.753670,716.730469 131.744476,716.101868 169.735733,716.065796 
	C204.216690,716.033020 238.716034,717.474243 273.173767,716.724670 
	C299.325012,716.155884 324.471832,709.546692 348.560913,697.030945 
M629.950195,485.500000 
	C629.938477,537.324585 630.079224,589.150024 629.781738,640.972961 
	C629.724731,650.903381 628.515076,660.922607 626.823303,670.725891 
	C624.272949,685.504578 615.557739,695.322754 600.679016,698.816833 
	C594.380615,700.295837 587.930847,701.239929 581.500366,702.017151 
	C574.313538,702.885803 567.070435,703.289185 560.146423,703.870361 
	C560.146423,708.942383 560.146423,713.326538 560.146423,716.785034 
	C628.675171,716.785034 696.737488,716.785034 764.853882,716.785034 
	C764.853882,712.800354 764.853882,708.399963 764.853882,704.287964 
	C752.796631,702.822815 741.047363,701.598206 729.361816,699.927673 
	C711.549744,697.381165 701.218811,688.283997 697.995605,670.635071 
	C695.916260,659.249207 694.999451,647.500183 694.981445,635.911743 
	C694.779114,505.600281 694.851624,375.288391 694.860840,244.976608 
	C694.860962,243.386276 694.999939,241.795959 695.085999,239.951660 
	C720.105042,240.432617 744.770569,238.689880 769.250793,242.905411 
	C798.133240,247.878998 818.289429,263.342377 825.934509,292.093750 
	C830.747437,310.194061 833.556030,328.839783 836.955139,347.297668 
	C838.358215,354.917023 838.952759,362.685272 839.899414,370.260803 
	C845.467529,370.260803 850.427856,370.260803 855.673218,370.260803 
	C852.194702,321.420166 853.776428,272.920807 858.679749,224.307007 
	C727.674011,226.800140 596.971313,226.771637 466.138519,224.317459 
	C470.832458,273.064789 472.718811,321.555817 468.929077,370.183838 
	C474.613068,370.183838 479.681305,370.183838 484.757751,370.183838 
	C486.278412,358.320068 487.458130,346.720367 489.323578,335.232056 
	C491.214447,323.587006 493.362244,311.950256 496.132446,300.487488 
	C504.986786,263.849243 525.077576,245.561234 562.544556,242.143967 
	C584.547974,240.137085 606.784241,240.681030 628.916443,240.102936 
	C629.176331,240.096161 629.445129,240.428253 629.950195,240.760147 
	C629.950195,321.907684 629.950195,403.203857 629.950195,485.500000 
M1474.374756,152.993500 
	C1306.119263,152.993500 1137.863647,152.993500 969.377563,152.993500 
	C969.257019,154.301056 969.164307,155.094788 969.113342,155.891220 
	C968.147278,171.007782 964.367188,185.151749 955.313416,197.637085 
	C941.488342,216.702225 923.041992,227.452911 899.463806,229.019562 
	C892.990784,229.449661 892.971375,229.231400 892.971375,235.896957 
	C892.971069,402.370056 892.971741,568.843201 892.972412,735.316284 
	C892.972412,737.090027 892.972473,738.863770 892.972473,741.001404 
	C914.628540,740.074890 932.684814,747.711548 947.438660,762.201233 
	C962.410950,776.905334 968.880432,795.681458 969.247559,816.564209 
	C1139.753540,816.564209 1309.644531,816.564209 1479.668091,816.564209 
	C1479.803223,815.672913 1479.975830,815.040527 1479.984009,814.406067 
	C1480.280273,791.549683 1488.958740,772.601379 1506.488770,757.849976 
	C1519.055664,747.275024 1533.591187,741.534729 1550.021240,740.926270 
	C1556.653320,740.680725 1556.674805,740.906616 1556.674927,734.344666 
	C1556.677368,567.871521 1556.676880,401.398438 1556.676880,234.925308 
	C1556.676880,233.149185 1556.676880,231.373062 1556.676880,229.587952 
	C1510.563965,230.594757 1479.634155,193.557724 1479.656616,153.255600 
	C1478.234253,153.169205 1476.788208,153.081375 1474.374756,152.993500 
z"/>
<path fill="#F4EFE7" opacity="1.000000" stroke="none" 
	d="
M348.225037,697.189392 
	C324.471832,709.546692 299.325012,716.155884 273.173767,716.724670 
	C238.716034,717.474243 204.216690,716.033020 169.735733,716.065796 
	C131.744476,716.101868 93.753670,716.730469 55.763054,717.136719 
	C52.638474,717.170105 49.516819,717.477356 46.082466,717.675354 
	C46.082466,713.027649 46.082466,708.610962 46.082466,704.000061 
	C54.200020,703.017883 62.273376,702.117981 70.320587,701.025452 
	C73.106873,700.647156 75.817001,699.736572 78.581261,699.162231 
	C89.992676,696.791077 96.660263,689.445251 98.879295,678.436218 
	C100.547913,670.157959 101.848030,661.638550 101.874725,653.221924 
	C102.132133,572.058838 102.093651,490.894684 102.120598,409.730835 
	C102.133430,371.065399 102.310364,332.398071 101.955444,293.735809 
	C101.862823,283.647064 100.657532,273.466064 98.874031,263.522858 
	C96.920082,252.629242 90.001625,245.295212 79.009300,242.909698 
	C68.312408,240.588303 57.454273,239.009888 46.147400,237.013504 
	C46.147400,233.555283 46.147400,229.143036 46.147400,224.168610 
	C47.161949,224.168610 48.416656,224.161316 49.671257,224.169662 
	C103.317596,224.526550 156.963821,225.116409 210.610306,225.139526 
	C235.271286,225.150146 259.934631,224.076385 284.317902,228.943466 
	C313.167358,234.701996 339.375031,245.543945 359.303741,268.290436 
	C378.718536,290.450409 385.424042,316.716644 382.377777,345.348236 
	C376.964966,396.222656 346.683685,427.808350 301.221497,446.926056 
	C294.803772,449.624847 288.120514,451.691254 281.566681,454.068329 
	C280.089630,454.604034 278.639740,455.214539 277.251923,456.806976 
	C284.983551,458.213135 292.740662,459.493073 300.441864,461.049561 
	C321.887390,465.384003 342.665588,471.697083 361.701660,482.789215 
	C393.939636,501.573975 413.438171,529.230530 418.032837,566.430481 
	C423.033752,606.919312 412.151947,642.558472 383.262634,672.039673 
	C373.154694,682.354736 361.353638,690.401794 348.225037,697.189392 
M178.422638,692.095947 
	C183.378387,697.079529 189.737549,699.007690 196.396835,699.917236 
	C223.138565,703.569458 249.576569,701.938110 275.470276,694.241089 
	C306.106995,685.134338 328.638367,666.597839 340.138245,636.207397 
	C351.159943,607.080872 352.095642,577.039917 346.386810,546.744263 
	C342.022858,523.585571 331.476044,503.804352 312.108734,489.533539 
	C294.551636,476.596527 274.285278,470.432007 252.982574,469.256653 
	C225.232635,467.725616 197.382797,468.003876 169.575638,467.520905 
	C168.814484,467.507690 168.049866,467.693512 167.034103,467.817352 
	C167.034103,469.311890 167.034088,470.456146 167.034103,471.600403 
	C167.034912,528.919189 167.000946,586.238098 167.080627,643.556763 
	C167.090576,650.709351 167.399033,657.891357 168.109039,665.005859 
	C169.071899,674.653992 170.695877,684.198364 178.422638,692.095947 
M304.528564,404.969482 
	C318.602692,369.737457 319.731445,333.609558 310.490265,297.262817 
	C303.574432,270.062164 286.698303,251.116150 259.108124,243.256378 
	C238.853378,237.486282 218.137115,236.194580 197.347290,239.874985 
	C179.275513,243.074219 171.149994,251.863235 169.044434,270.185333 
	C167.944992,279.752472 167.156998,289.413330 167.121429,299.035156 
	C166.934891,349.495911 167.033997,399.957703 167.033859,450.419159 
	C167.033859,452.032227 167.033859,453.645325 167.033859,455.346802 
	C183.760483,455.346802 199.912659,455.623718 216.049057,455.238892 
	C225.162949,455.021545 234.345459,454.285736 243.333054,452.794861 
	C271.981110,448.042725 292.879395,432.950134 304.528564,404.969482 
z"/>
<path fill="#F4EFE7" opacity="1.000000" stroke="none" 
	d="
M629.950195,485.000000 
	C629.950195,403.203857 629.950195,321.907684 629.950195,240.760147 
	C629.445129,240.428253 629.176331,240.096161 628.916443,240.102936 
	C606.784241,240.681030 584.547974,240.137085 562.544556,242.143967 
	C525.077576,245.561234 504.986786,263.849243 496.132446,300.487488 
	C493.362244,311.950256 491.214447,323.587006 489.323578,335.232056 
	C487.458130,346.720367 486.278412,358.320068 484.757751,370.183838 
	C479.681305,370.183838 474.613068,370.183838 468.929077,370.183838 
	C472.718811,321.555817 470.832458,273.064789 466.138519,224.317459 
	C596.971313,226.771637 727.674011,226.800140 858.679749,224.307007 
	C853.776428,272.920807 852.194702,321.420166 855.673218,370.260803 
	C850.427856,370.260803 845.467529,370.260803 839.899414,370.260803 
	C838.952759,362.685272 838.358215,354.917023 836.955139,347.297668 
	C833.556030,328.839783 830.747437,310.194061 825.934509,292.093750 
	C818.289429,263.342377 798.133240,247.878998 769.250793,242.905411 
	C744.770569,238.689880 720.105042,240.432617 695.085999,239.951660 
	C694.999939,241.795959 694.860962,243.386276 694.860840,244.976608 
	C694.851624,375.288391 694.779114,505.600281 694.981445,635.911743 
	C694.999451,647.500183 695.916260,659.249207 697.995605,670.635071 
	C701.218811,688.283997 711.549744,697.381165 729.361816,699.927673 
	C741.047363,701.598206 752.796631,702.822815 764.853882,704.287964 
	C764.853882,708.399963 764.853882,712.800354 764.853882,716.785034 
	C696.737488,716.785034 628.675171,716.785034 560.146423,716.785034 
	C560.146423,713.326538 560.146423,708.942383 560.146423,703.870361 
	C567.070435,703.289185 574.313538,702.885803 581.500366,702.017151 
	C587.930847,701.239929 594.380615,700.295837 600.679016,698.816833 
	C615.557739,695.322754 624.272949,685.504578 626.823303,670.725891 
	C628.515076,660.922607 629.724731,650.903381 629.781738,640.972961 
	C630.079224,589.150024 629.938477,537.324585 629.950195,485.000000 
z"/>
<path fill="#C6A64B" opacity="1.000000" stroke="none" 
	d="
M1474.858521,152.993530 
	C1476.788208,153.081375 1478.234253,153.169205 1479.656616,153.255600 
	C1479.634155,193.557724 1510.563965,230.594757 1556.676880,229.587952 
	C1556.676880,231.373062 1556.676880,233.149185 1556.676880,234.925308 
	C1556.676880,401.398438 1556.677368,567.871521 1556.674927,734.344666 
	C1556.674805,740.906616 1556.653320,740.680725 1550.021240,740.926270 
	C1533.591187,741.534729 1519.055664,747.275024 1506.488770,757.849976 
	C1488.958740,772.601379 1480.280273,791.549683 1479.984009,814.406067 
	C1479.975830,815.040527 1479.803223,815.672913 1479.668091,816.564209 
	C1309.644531,816.564209 1139.753540,816.564209 969.247559,816.564209 
	C968.880432,795.681458 962.410950,776.905334 947.438660,762.201233 
	C932.684814,747.711548 914.628540,740.074890 892.972473,741.001404 
	C892.972473,738.863770 892.972412,737.090027 892.972412,735.316284 
	C892.971741,568.843201 892.971069,402.370056 892.971375,235.896957 
	C892.971375,229.231400 892.990784,229.449661 899.463806,229.019562 
	C923.041992,227.452911 941.488342,216.702225 955.313416,197.637085 
	C964.367188,185.151749 968.147278,171.007782 969.113342,155.891220 
	C969.164307,155.094788 969.257019,154.301056 969.377563,152.993500 
	C1137.863647,152.993500 1306.119263,152.993500 1474.858521,152.993530 
M898.513794,235.153763 
	C898.420959,235.439087 898.328125,235.724396 898.126770,236.939789 
	C898.117920,359.163544 898.097046,481.387268 898.106628,603.611023 
	C898.110107,647.403015 898.187134,691.194946 898.163086,735.484253 
	C898.445740,735.601135 898.728333,735.718018 899.896729,735.969238 
	C920.224976,736.784973 937.416321,744.833069 951.691284,759.045593 
	C966.074463,773.365967 972.772156,791.260803 974.294617,811.280701 
	C1141.362305,811.280701 1307.951294,811.280701 1474.709839,811.280701 
	C1476.007324,790.698608 1483.343384,772.968445 1497.914917,758.551270 
	C1512.546631,744.074646 1530.363892,736.432678 1551.137695,735.204224 
	C1551.137695,732.431580 1551.137817,730.287354 1551.137817,728.143127 
	C1551.137939,566.663818 1551.137939,405.184479 1551.137695,243.705139 
	C1551.137695,234.857803 1551.134644,234.875427 1542.509277,233.842834 
	C1541.211426,233.687454 1539.949341,233.252304 1538.661743,232.991470 
	C1511.292480,227.447250 1492.012939,211.665680 1481.193604,186.142166 
	C1477.530640,177.501114 1476.020996,167.947296 1473.350464,158.162659 
	C1472.395874,158.162659 1470.426392,158.162659 1468.456787,158.162659 
	C1305.977539,158.162659 1143.498413,158.162659 981.019165,158.162872 
	C979.852661,158.162872 978.681335,158.234604 977.520630,158.153351 
	C975.027161,157.978851 974.213196,158.940369 973.946472,161.569687 
	C971.786011,182.863297 963.208313,200.777328 946.707703,214.985825 
	C932.842773,226.924637 916.674255,232.610718 898.513794,235.153763 
z"/>
<path fill="#0E0E0C" opacity="0.000000" stroke="none" 
	d="
M178.151855,691.860352 
	C170.695877,684.198364 169.071899,674.653992 168.109039,665.005859 
	C167.399033,657.891357 167.090576,650.709351 167.080627,643.556763 
	C167.000946,586.238098 167.034912,528.919189 167.034103,471.600403 
	C167.034088,470.456146 167.034103,469.311890 167.034103,467.817352 
	C168.049866,467.693512 168.814484,467.507690 169.575638,467.520905 
	C197.382797,468.003876 225.232635,467.725616 252.982574,469.256653 
	C274.285278,470.432007 294.551636,476.596527 312.108734,489.533539 
	C331.476044,503.804352 342.022858,523.585571 346.386810,546.744263 
	C352.095642,577.039917 351.159943,607.080872 340.138245,636.207397 
	C328.638367,666.597839 306.106995,685.134338 275.470276,694.241089 
	C249.576569,701.938110 223.138565,703.569458 196.396835,699.917236 
	C189.737549,699.007690 183.378387,697.079529 178.151855,691.860352 
z"/>
<path fill="#0E0E0C" opacity="0.000000" stroke="none" 
	d="
M304.355286,405.307495 
	C292.879395,432.950134 271.981110,448.042725 243.333054,452.794861 
	C234.345459,454.285736 225.162949,455.021545 216.049057,455.238892 
	C199.912659,455.623718 183.760483,455.346802 167.033859,455.346802 
	C167.033859,453.645325 167.033859,452.032227 167.033859,450.419159 
	C167.033997,399.957703 166.934891,349.495911 167.121429,299.035156 
	C167.156998,289.413330 167.944992,279.752472 169.044434,270.185333 
	C171.149994,251.863235 179.275513,243.074219 197.347290,239.874985 
	C218.137115,236.194580 238.853378,237.486282 259.108124,243.256378 
	C286.698303,251.116150 303.574432,270.062164 310.490265,297.262817 
	C319.731445,333.609558 318.602692,369.737457 304.355286,405.307495 
z"/>
<path fill="#0F0E0C" opacity="0.000000" stroke="none" 
	d="
M898.230652,734.986938 
	C898.187134,691.194946 898.110107,647.403015 898.106628,603.611023 
	C898.097046,481.387268 898.117920,359.163544 898.345398,236.369598 
	C898.758423,235.620071 898.908325,235.409149 899.013794,235.166641 
	C916.674255,232.610718 932.842773,226.924637 946.707703,214.985825 
	C963.208313,200.777328 971.786011,182.863297 973.946472,161.569687 
	C974.213196,158.940369 975.027161,157.978851 977.520630,158.153351 
	C978.681335,158.234604 979.852661,158.162872 981.019165,158.162872 
	C1143.498413,158.162659 1305.977539,158.162659 1468.456787,158.162659 
	C1470.426392,158.162659 1472.395874,158.162659 1473.350464,158.162659 
	C1476.020996,167.947296 1477.530640,177.501114 1481.193604,186.142166 
	C1492.012939,211.665680 1511.292480,227.447250 1538.661743,232.991470 
	C1539.949341,233.252304 1541.211426,233.687454 1542.509277,233.842834 
	C1551.134644,234.875427 1551.137695,234.857803 1551.137695,243.705139 
	C1551.137939,405.184479 1551.137939,566.663818 1551.137817,728.143127 
	C1551.137817,730.287354 1551.137695,732.431580 1551.137695,735.204224 
	C1530.363892,736.432678 1512.546631,744.074646 1497.914917,758.551270 
	C1483.343384,772.968445 1476.007324,790.698608 1474.709839,811.280701 
	C1307.951294,811.280701 1141.362305,811.280701 974.294617,811.280701 
	C972.772156,791.260803 966.074463,773.365967 951.691284,759.045593 
	C937.416321,744.833069 920.224976,736.784973 899.356873,735.732056 
	C898.667419,735.272583 898.471985,735.103271 898.230652,734.986938 
M1531.219727,573.500000 
	C1531.219727,465.401276 1531.219727,357.302521 1531.219727,248.800049 
	C1511.410400,248.614090 1494.427734,242.490494 1480.689819,228.636429 
	C1466.991821,214.822693 1460.790161,197.906158 1460.832886,178.394775 
	C1303.348755,178.394775 1146.286987,178.394775 989.215027,178.394775 
	C985.816711,222.278824 961.967712,245.657257 918.440918,249.397568 
	C918.440918,406.551208 918.440918,563.596802 918.440918,720.901611 
	C938.063904,720.945007 954.989258,727.233887 968.733215,741.009277 
	C982.479553,754.787109 988.486938,771.857422 988.624451,791.202026 
	C1146.351074,791.202026 1303.517700,791.202026 1460.929688,791.202026 
	C1460.548828,771.357056 1467.170410,754.519897 1480.882690,740.789246 
	C1494.586670,727.067200 1511.629028,720.927368 1531.219727,720.875854 
	C1531.219727,671.754211 1531.219727,623.127075 1531.219727,573.500000 
z"/>
<path fill="#2C2716" opacity="0.000000" stroke="none" 
	d="
M898.763794,235.160202 
	C898.908325,235.409149 898.758423,235.620071 898.399658,235.904541 
	C898.328125,235.724396 898.420959,235.439087 898.763794,235.160202 
z"/>
<path fill="#2C2716" opacity="0.000000" stroke="none" 
	d="
M898.196899,735.235596 
	C898.471985,735.103271 898.667419,735.272583 898.914001,735.664917 
	C898.728333,735.718018 898.445740,735.601135 898.196899,735.235596 
z"/>
<path fill="#BFA049" opacity="1.000000" stroke="none" 
	d="
M1531.219727,574.000000 
	C1531.219727,623.127075 1531.219727,671.754211 1531.219727,720.875854 
	C1511.629028,720.927368 1494.586670,727.067200 1480.882690,740.789246 
	C1467.170410,754.519897 1460.548828,771.357056 1460.929688,791.202026 
	C1303.517700,791.202026 1146.351074,791.202026 988.624451,791.202026 
	C988.486938,771.857422 982.479553,754.787109 968.733215,741.009277 
	C954.989258,727.233887 938.063904,720.945007 918.440918,720.901611 
	C918.440918,563.596802 918.440918,406.551208 918.440918,249.397568 
	C961.967712,245.657257 985.816711,222.278824 989.215027,178.394775 
	C1146.286987,178.394775 1303.348755,178.394775 1460.832886,178.394775 
	C1460.790161,197.906158 1466.991821,214.822693 1480.689819,228.636429 
	C1494.427734,242.490494 1511.410400,248.614090 1531.219727,248.800049 
	C1531.219727,357.302521 1531.219727,465.401276 1531.219727,574.000000 
M923.720276,628.500000 
	C923.720276,657.442566 923.720276,686.385071 923.720276,715.085205 
	C965.560364,720.845825 988.804810,744.343750 994.448120,785.728943 
	C1147.939819,785.728943 1301.495239,785.728943 1454.884277,785.728943 
	C1460.498901,744.005615 1484.236084,720.850098 1525.660645,715.063293 
	C1525.660645,561.611694 1525.660645,407.924744 1525.660645,254.066208 
	C1506.542114,253.240921 1490.442993,246.091370 1477.135376,232.887985 
	C1463.699829,219.557907 1456.765747,203.188614 1455.631348,184.223083 
	C1301.597046,184.223083 1147.910767,184.223083 994.612854,184.223083 
	C988.596375,225.696060 965.351746,249.191498 923.720032,254.708694 
	C923.720032,378.939240 923.720032,503.219635 923.720276,628.500000 
z"/>
<path fill="#0D0D0B" opacity="0.000000" stroke="none" 
	d="
M923.720154,628.000000 
	C923.720032,503.219635 923.720032,378.939240 923.720032,254.708694 
	C965.351746,249.191498 988.596375,225.696060 994.612854,184.223083 
	C1147.910767,184.223083 1301.597046,184.223083 1455.631348,184.223083 
	C1456.765747,203.188614 1463.699829,219.557907 1477.135376,232.887985 
	C1490.442993,246.091370 1506.542114,253.240921 1525.660645,254.066208 
	C1525.660645,407.924744 1525.660645,561.611694 1525.660645,715.063293 
	C1484.236084,720.850098 1460.498901,744.005615 1454.884277,785.728943 
	C1301.495239,785.728943 1147.939819,785.728943 994.448120,785.728943 
	C988.804810,744.343750 965.560364,720.845825 923.720276,715.085205 
	C923.720276,686.385071 923.720276,657.442566 923.720154,628.000000 
M1276.534058,494.928345 
	C1280.353027,498.977631 1284.686157,502.659088 1287.894775,507.144928 
	C1297.660400,520.797424 1299.277466,536.964844 1301.160156,552.997070 
	C1302.053101,560.601746 1303.097778,568.188660 1304.101318,575.998962 
	C1308.469360,575.998962 1312.287964,575.890320 1316.097290,576.032776 
	C1319.222046,576.149719 1320.217896,574.738464 1320.003906,571.793030 
	C1319.560059,565.687195 1319.249512,559.571228 1318.914185,553.457825 
	C1317.934814,535.602905 1316.434204,517.756409 1316.128052,499.889648 
	C1315.688599,474.236420 1316.088623,448.567963 1316.212402,422.906433 
	C1316.241943,416.786926 1316.705322,410.670227 1316.776855,404.550018 
	C1316.878662,395.840027 1316.802734,387.127930 1316.802734,378.001099 
	C1313.343384,378.001099 1309.199585,378.150604 1305.072754,377.950043 
	C1302.185547,377.809692 1301.407715,379.326385 1301.024902,381.735046 
	C1298.711182,396.291260 1296.739746,410.917267 1293.891479,425.369659 
	C1289.322754,448.551453 1270.435669,468.702698 1244.638794,469.063995 
	C1227.485596,469.304260 1210.330566,469.418976 1193.176025,469.551453 
	C1186.327271,469.604309 1186.316284,469.557159 1186.315918,462.942047 
	C1186.313110,407.942261 1186.228394,352.942169 1186.395142,297.942902 
	C1186.424683,288.229095 1187.010742,278.455505 1188.227905,268.821747 
	C1189.887085,255.690887 1195.459717,245.307587 1211.441284,242.825729 
	C1219.405884,241.588837 1227.465332,240.268280 1235.487671,240.231552 
	C1257.272583,240.131821 1279.074707,240.327957 1300.841187,241.158981 
	C1311.299561,241.558319 1321.889893,242.805374 1332.074707,245.162399 
	C1352.305054,249.844193 1367.454468,261.493896 1376.002075,280.879242 
	C1385.148682,301.623077 1387.679199,323.911682 1391.039185,345.990509 
	C1392.294312,354.237549 1393.124146,362.549286 1394.168579,370.998749 
	C1398.542847,370.998749 1402.364258,370.903564 1406.178345,371.028320 
	C1409.332886,371.131561 1410.204102,369.670441 1409.975830,366.727539 
	C1409.235962,357.190399 1408.433228,347.649811 1408.065063,338.094727 
	C1407.751099,329.941956 1407.997559,321.767426 1408.006470,313.602509 
	C1408.017944,303.107697 1407.664062,292.595367 1408.151245,282.122375 
	C1408.787109,268.450378 1410.071777,254.807938 1411.120117,241.156052 
	C1411.545288,235.619843 1412.083130,230.092285 1412.548828,224.797379 
	C1296.913086,226.885208 1181.207886,226.486572 1065.256104,224.418549 
	C1065.256104,228.768082 1065.256104,233.044281 1065.256104,237.631607 
	C1066.671265,238.055939 1068.167480,238.733276 1069.724976,238.933411 
	C1078.152344,240.016266 1086.690796,240.488174 1095.009888,242.102829 
	C1107.262207,244.480850 1116.297485,251.073425 1118.029419,264.340637 
	C1119.604736,276.408783 1121.442749,288.569336 1121.470459,300.693054 
	C1121.729736,414.192017 1121.692261,527.691956 1121.516113,641.191223 
	C1121.498901,652.220947 1120.572388,663.334473 1119.000244,674.255371 
	C1116.928223,688.648193 1111.185791,696.549011 1095.335693,699.928650 
	C1093.382690,700.345093 1091.437256,700.837219 1089.462524,701.104980 
	C1081.355225,702.204346 1073.237793,703.230469 1065.286743,704.262390 
	C1065.286743,709.104309 1065.286743,713.379456 1065.286743,716.925903 
	C1128.928589,716.925903 1192.292603,716.925903 1255.692627,716.925903 
	C1255.692627,712.966492 1255.692627,708.555786 1255.692627,704.491821 
	C1242.438354,702.952148 1229.422974,702.039795 1216.644165,699.786377 
	C1203.969849,697.551331 1193.504517,691.044556 1190.292725,677.679382 
	C1188.012695,668.191650 1186.621826,658.258423 1186.548096,648.511108 
	C1186.166504,598.014160 1186.336304,547.513062 1186.314331,497.013397 
	C1186.312378,492.722382 1186.313965,488.431335 1186.313965,484.044861 
	C1187.708618,483.769348 1188.493164,483.479340 1189.277710,483.479279 
	C1205.110352,483.477966 1220.944824,483.373932 1236.775269,483.576111 
	C1250.755981,483.754669 1264.177002,486.278473 1276.534058,494.928345 
z"/>
<path fill="#C9A84C" opacity="1.000000" stroke="none" 
	d="
M1276.261108,494.685547 
	C1264.177002,486.278473 1250.755981,483.754669 1236.775269,483.576111 
	C1220.944824,483.373932 1205.110352,483.477966 1189.277710,483.479279 
	C1188.493164,483.479340 1187.708618,483.769348 1186.313965,484.044861 
	C1186.313965,488.431335 1186.312378,492.722382 1186.314331,497.013397 
	C1186.336304,547.513062 1186.166504,598.014160 1186.548096,648.511108 
	C1186.621826,658.258423 1188.012695,668.191650 1190.292725,677.679382 
	C1193.504517,691.044556 1203.969849,697.551331 1216.644165,699.786377 
	C1229.422974,702.039795 1242.438354,702.952148 1255.692627,704.491821 
	C1255.692627,708.555786 1255.692627,712.966492 1255.692627,716.925903 
	C1192.292603,716.925903 1128.928589,716.925903 1065.286743,716.925903 
	C1065.286743,713.379456 1065.286743,709.104309 1065.286743,704.262390 
	C1073.237793,703.230469 1081.355225,702.204346 1089.462524,701.104980 
	C1091.437256,700.837219 1093.382690,700.345093 1095.335693,699.928650 
	C1111.185791,696.549011 1116.928223,688.648193 1119.000244,674.255371 
	C1120.572388,663.334473 1121.498901,652.220947 1121.516113,641.191223 
	C1121.692261,527.691956 1121.729736,414.192017 1121.470459,300.693054 
	C1121.442749,288.569336 1119.604736,276.408783 1118.029419,264.340637 
	C1116.297485,251.073425 1107.262207,244.480850 1095.009888,242.102829 
	C1086.690796,240.488174 1078.152344,240.016266 1069.724976,238.933411 
	C1068.167480,238.733276 1066.671265,238.055939 1065.256104,237.631607 
	C1065.256104,233.044281 1065.256104,228.768082 1065.256104,224.418549 
	C1181.207886,226.486572 1296.913086,226.885208 1412.548828,224.797379 
	C1412.083130,230.092285 1411.545288,235.619843 1411.120117,241.156052 
	C1410.071777,254.807938 1408.787109,268.450378 1408.151245,282.122375 
	C1407.664062,292.595367 1408.017944,303.107697 1408.006470,313.602509 
	C1407.997559,321.767426 1407.751099,329.941956 1408.065063,338.094727 
	C1408.433228,347.649811 1409.235962,357.190399 1409.975830,366.727539 
	C1410.204102,369.670441 1409.332886,371.131561 1406.178345,371.028320 
	C1402.364258,370.903564 1398.542847,370.998749 1394.168579,370.998749 
	C1393.124146,362.549286 1392.294312,354.237549 1391.039185,345.990509 
	C1387.679199,323.911682 1385.148682,301.623077 1376.002075,280.879242 
	C1367.454468,261.493896 1352.305054,249.844193 1332.074707,245.162399 
	C1321.889893,242.805374 1311.299561,241.558319 1300.841187,241.158981 
	C1279.074707,240.327957 1257.272583,240.131821 1235.487671,240.231552 
	C1227.465332,240.268280 1219.405884,241.588837 1211.441284,242.825729 
	C1195.459717,245.307587 1189.887085,255.690887 1188.227905,268.821747 
	C1187.010742,278.455505 1186.424683,288.229095 1186.395142,297.942902 
	C1186.228394,352.942169 1186.313110,407.942261 1186.315918,462.942047 
	C1186.316284,469.557159 1186.327271,469.604309 1193.176025,469.551453 
	C1210.330566,469.418976 1227.485596,469.304260 1244.638794,469.063995 
	C1270.435669,468.702698 1289.322754,448.551453 1293.891479,425.369659 
	C1296.739746,410.917267 1298.711182,396.291260 1301.024902,381.735046 
	C1301.407715,379.326385 1302.185547,377.809692 1305.072754,377.950043 
	C1309.199585,378.150604 1313.343384,378.001099 1316.802734,378.001099 
	C1316.802734,387.127930 1316.878662,395.840027 1316.776855,404.550018 
	C1316.705322,410.670227 1316.241943,416.786926 1316.212402,422.906433 
	C1316.088623,448.567963 1315.688599,474.236420 1316.128052,499.889648 
	C1316.434204,517.756409 1317.934814,535.602905 1318.914185,553.457825 
	C1319.249512,559.571228 1319.560059,565.687195 1320.003906,571.793030 
	C1320.217896,574.738464 1319.222046,576.149719 1316.097290,576.032776 
	C1312.287964,575.890320 1308.469360,575.998962 1304.101318,575.998962 
	C1303.097778,568.188660 1302.053101,560.601746 1301.160156,552.997070 
	C1299.277466,536.964844 1297.660400,520.797424 1287.894775,507.144928 
	C1284.686157,502.659088 1280.353027,498.977631 1276.261108,494.685547 
z"/>
</svg>