<svg version="1.1" id="Layer_1" xmlns="http://www.w3.org/2000/svg" xmlns:xlink="http://www.w3.org/1999/xlink" x="0px" y="0px"
	 width="100%" viewBox="70 236 950 628" xml:space="preserve">
<path fill="#F5F0E8" opacity="1.000000" stroke="none" 
	d="
M161.959030,257.262390 
	C179.868057,258.143768 197.391052,260.169922 210.270065,274.805389 
	C215.915039,281.220276 219.404816,288.399628 220.193649,297.288727 
	C221.176392,308.363037 219.176941,318.137299 213.232407,327.596649 
	C207.245605,337.123199 198.937149,343.384674 189.015350,347.972961 
	C186.746887,349.022003 184.457367,350.025452 180.911957,351.618500 
	C186.261017,352.959473 190.299820,354.000031 194.352524,354.983185 
	C213.333496,359.588104 227.609146,369.952026 233.518311,389.145996 
	C238.987091,406.909637 234.346222,422.868042 222.562653,436.964935 
	C214.080948,447.111755 202.442627,451.984680 190.348801,455.711365 
	C185.002594,457.358765 179.131454,457.864655 173.491806,457.903778 
	C143.863083,458.109436 114.232155,458.000000 84.301300,458.000000 
	C84.301300,455.726288 84.301300,453.661224 84.301300,451.384857 
	C88.011505,450.934174 91.859375,450.469025 95.706635,449.998871 
	C99.606560,449.522247 104.865166,446.579956 105.027130,440.643188 
	C105.251869,432.405243 105.937332,424.173065 105.955414,415.937408 
	C106.051254,372.295471 106.025528,328.653198 105.955582,285.011139 
	C105.949333,281.109741 105.669548,277.140411 104.905846,273.324921 
	C103.822693,267.913483 99.262474,266.129303 94.573128,265.075928 
	C91.268860,264.333679 87.831543,264.183685 84.231445,263.741974 
	C84.231445,261.637543 84.231445,259.555847 84.231445,257.029663 
	C91.885216,257.029663 99.499382,257.029663 107.895813,257.364563 
	C125.838959,257.791260 142.999786,257.890381 160.160782,257.944458 
	C160.759476,257.946350 161.359589,257.499878 161.959030,257.262390 
M183.493668,445.053284 
	C184.436142,444.442505 185.335678,443.749115 186.327682,443.233673 
	C196.795898,437.794708 202.239532,428.676727 203.853516,417.485596 
	C204.976089,409.701904 205.138367,401.697083 204.888901,393.817657 
	C204.524353,382.303406 199.345413,372.861816 190.050262,366.085815 
	C183.101349,361.020172 174.986877,359.144989 166.381531,358.931061 
	C155.701965,358.665497 145.031403,358.036987 134.001434,357.549561 
	C134.001434,384.588257 133.864883,410.696503 134.090454,436.801605 
	C134.152496,443.981476 138.130997,449.149475 143.250656,449.951874 
	C156.850052,452.083252 170.116180,450.817841 183.493668,445.053284 
M149.103561,264.374878 
	C148.171768,264.583527 147.249802,264.874420 146.306549,264.987000 
	C141.523773,265.557953 137.448059,267.595337 135.600861,272.096130 
	C134.408691,275.000885 134.085190,278.425720 134.065536,281.621704 
	C133.935547,302.781586 133.999710,323.942566 133.978653,345.103210 
	C133.976791,346.983154 133.818085,348.862946 133.699905,351.450439 
	C143.176392,350.968475 152.760071,350.875153 162.253815,349.903259 
	C175.554993,348.541595 184.508865,341.113678 188.788818,328.457825 
	C192.915131,316.256348 193.239655,303.639069 190.850906,291.142303 
	C188.833206,280.586700 183.784119,271.217926 172.925598,267.708099 
	C165.628098,265.349304 157.623276,265.178711 149.103561,264.374878 
z"/>
<path fill="#F5F0E8" opacity="1.000000" stroke="none" 
	d="
M385.791870,694.001038 
	C385.864563,720.282532 386.098907,746.565308 385.898804,772.844727 
	C385.847382,779.602112 389.854828,785.964600 398.238312,787.018555 
	C399.827728,787.218323 401.376495,787.722290 402.960602,787.986450 
	C407.342133,788.717102 407.799683,790.125854 404.009399,794.002930 
	C383.068207,794.021057 362.980377,794.028076 342.892548,794.035034 
	C337.695160,794.294922 341.017365,790.386414 339.643097,788.300049 
	C342.644440,787.809265 345.288422,787.750427 347.654602,786.909790 
	C352.135315,785.317993 356.442444,783.318115 357.010284,777.603760 
	C357.603821,771.630249 358.851532,765.674988 358.908539,759.703125 
	C359.132599,736.230042 359.336090,712.746094 358.816895,689.282349 
	C358.636749,681.140564 356.551819,673.002502 354.927734,664.945190 
	C353.916260,659.927002 350.352203,657.527954 345.371918,655.778564 
	C329.929016,650.354126 312.631073,660.522522 305.899902,672.762695 
	C300.503906,682.575073 298.141266,692.908264 298.053162,703.835327 
	C297.874725,725.977173 297.927948,748.122009 298.077362,770.264282 
	C298.099762,773.577393 298.601013,777.119141 299.872284,780.137451 
	C301.759064,784.616943 305.557831,786.888489 310.655212,787.108765 
	C312.462128,787.186890 314.639099,788.130127 315.817719,789.430298 
	C316.428009,790.103394 315.225311,792.420227 313.998901,794.004272 
	C293.068481,794.021179 272.980804,794.028259 252.893158,794.035339 
	C247.497375,794.378418 251.289597,790.277588 249.301208,788.539978 
	C253.827850,787.719788 257.613525,787.510742 261.054199,786.311768 
	C268.364044,783.764282 270.989441,779.304932 270.994080,770.614929 
	C271.008698,743.298218 270.996002,715.981506 270.996033,688.664795 
	C270.996063,659.848999 271.136475,631.032043 270.903564,602.218140 
	C270.844971,594.971985 269.169067,587.778015 261.652893,584.310425 
	C258.242615,582.737122 254.313263,582.289001 250.002319,581.170288 
	C250.002319,580.203491 249.539246,578.390747 250.137115,577.051636 
	C250.696060,575.799866 252.502701,574.092285 253.550995,574.225952 
	C266.172852,575.835693 278.647644,575.546387 291.039337,572.451843 
	C293.080200,571.942139 295.273987,572.044983 297.903748,571.821777 
	C297.903748,605.312439 297.903748,638.513916 297.903748,671.715393 
	C298.226776,671.840576 298.549774,671.965820 298.872803,672.091064 
	C301.573639,668.435974 304.225281,664.743286 306.984772,661.132996 
	C314.474884,651.333618 324.907715,647.114197 336.676849,644.900635 
	C346.324127,643.086304 355.383759,644.426758 364.289032,648.001221 
	C373.450073,651.678467 379.758179,658.208679 381.899536,667.859375 
	C383.507599,675.106506 384.010010,682.598877 385.019775,690.771057 
	C385.287201,692.373657 385.539520,693.187378 385.791870,694.001038 
z"/>
<path fill="#F5F0E8" opacity="1.000000" stroke="none" 
	d="
M956.171204,269.048218 
	C955.138062,263.835480 954.699158,258.406006 952.899902,253.472641 
	C951.195190,248.798538 946.942871,246.369904 941.791748,245.994446 
	C935.490906,245.535141 934.862488,244.814041 935.142151,238.786758 
	C950.969177,237.847000 966.778687,236.908279 982.999817,235.945129 
	C982.999817,237.045425 982.999817,238.839188 982.999817,240.632935 
	C982.999695,302.105286 982.933655,363.577850 983.114075,425.049683 
	C983.129944,430.464386 984.287781,436.004944 985.748230,441.255341 
	C987.848511,448.805939 994.644836,450.089996 1001.148132,450.873718 
	C1003.975708,451.214447 1005.007629,452.503510 1004.897583,454.772797 
	C1004.779053,457.217041 1003.194824,458.115692 1000.572937,458.067108 
	C991.247009,457.894226 981.914490,457.903900 972.587463,458.045532 
	C968.669739,458.105011 964.748291,458.569458 960.849426,459.027954 
	C957.071228,459.472198 955.941223,457.508331 955.962463,454.200958 
	C955.989807,449.948334 955.969116,445.695465 955.969116,441.354767 
	C952.143860,444.898346 948.928833,448.936737 944.787231,451.445831 
	C939.566589,454.608673 933.792053,457.349670 927.894287,458.794159 
	C917.421814,461.358978 906.853455,459.982727 896.773682,456.288513 
	C882.895142,451.202087 872.891663,441.683502 867.089539,428.111023 
	C861.941101,416.067780 860.239807,403.420441 859.711731,390.258118 
	C859.143982,376.106476 860.085327,362.409027 865.043152,349.242065 
	C872.533020,329.350403 885.813721,315.387787 907.069031,309.908539 
	C918.580627,306.941071 929.985840,306.314423 940.996216,311.110962 
	C946.320862,313.430542 951.027588,317.168427 955.979187,320.242493 
	C956.002014,319.948730 956.052612,319.295868 956.413208,317.964661 
	C956.804382,301.789856 956.894409,286.293457 956.932922,270.796936 
	C956.934387,270.214661 956.436401,269.631165 956.171204,269.048218 
M956.687073,419.342010 
	C956.790283,418.692902 956.983276,418.043854 956.983704,417.394684 
	C957.000061,392.190521 957.010925,366.986298 956.964417,341.782227 
	C956.962097,340.533234 956.442078,339.285187 956.010559,337.255615 
	C950.925781,315.418274 928.330017,310.957550 913.427063,317.464600 
	C902.857361,322.079681 897.697754,331.842194 893.541199,342.565338 
	C888.054871,356.719421 889.464905,371.395264 888.118164,385.857452 
	C887.703186,390.313385 888.859375,394.893646 888.975586,399.425201 
	C889.287109,411.569672 892.221375,422.886169 897.897949,433.722839 
	C904.765930,446.834045 924.015869,454.266052 938.325928,446.317078 
	C948.887695,440.450226 953.793640,431.174927 956.687073,419.342010 
z"/>
<path fill="#F5F0E8" opacity="1.000000" stroke="none" 
	d="
M749.958069,451.000000 
	C751.245117,452.640991 752.358093,454.220154 752.767761,455.964508 
	C752.854309,456.332733 750.369080,457.902191 749.062073,457.910919 
	C729.733154,458.040680 710.402405,457.909576 691.073730,458.057617 
	C685.545288,458.099976 687.241882,454.465179 687.091980,451.861328 
	C692.010620,450.480225 697.114380,449.831390 701.433350,447.637573 
	C706.935425,444.842834 707.879761,438.811127 707.911621,433.298706 
	C708.093506,401.805542 708.256714,370.307068 707.803284,338.819366 
	C707.701294,331.737762 706.158569,324.143188 698.662659,320.154053 
	C697.001709,319.270142 695.168152,318.615784 693.338196,318.161469 
	C686.738586,316.523193 686.726379,316.572479 687.307861,308.999939 
	C696.223267,308.999939 705.178589,309.115204 714.128967,308.956177 
	C719.386475,308.862762 724.647461,308.452332 729.885803,307.960114 
	C733.726257,307.599274 735.256836,308.787262 735.092041,312.919647 
	C734.780273,320.738220 735.001953,328.578094 735.001953,336.653107 
	C737.663147,332.882660 740.138550,329.268188 742.722961,325.733398 
	C751.288818,314.017548 763.250427,308.815735 777.369873,308.030823 
	C786.393860,307.529175 795.553528,307.437988 803.581604,312.289978 
	C812.394592,317.616425 818.570007,325.161224 819.995728,335.806244 
	C824.357971,368.376160 820.976807,401.105957 821.950623,433.747955 
	C822.281982,444.853760 825.349365,448.646301 836.187561,450.026733 
	C838.403076,450.308899 840.571655,450.960358 842.756042,451.440308 
	C843.185486,457.990448 843.185486,457.997864 837.070740,457.999207 
	C819.074036,458.003174 801.077332,458.002411 783.080627,457.999817 
	C776.851929,457.998901 776.851929,457.993988 777.204163,451.305176 
	C779.987610,450.873352 782.855652,450.515442 785.687622,449.970001 
	C790.748230,448.995270 794.985168,442.186096 794.990662,434.977692 
	C795.013000,405.649719 795.180603,376.319733 794.855042,346.995392 
	C794.786194,340.792389 793.359558,334.471863 791.673706,328.453308 
	C789.614014,321.099915 783.725037,318.448822 776.440613,317.963806 
	C755.092712,316.542358 741.991028,330.766357 737.146057,349.589203 
	C735.581970,355.665680 735.159485,362.161591 735.091980,368.475006 
	C734.854980,390.635071 735.115479,412.800140 734.944946,434.961426 
	C734.873413,444.255188 738.283081,449.807800 747.294189,450.106201 
	C748.049561,450.131195 748.787415,450.687531 749.958069,451.000000 
z"/>
<path fill="#F5F0E8" opacity="1.000000" stroke="none" 
	d="
M119.893051,794.035339 
	C118.930260,792.827942 117.967461,791.620483 117.004654,790.413086 
	C118.198242,789.608948 119.302887,788.328430 120.601372,788.085938 
	C125.365784,787.196228 130.222229,786.803772 134.992310,785.938965 
	C141.174500,784.818176 143.581375,779.871765 144.856110,774.633362 
	C145.850800,770.545959 145.950745,766.170959 145.956299,761.923157 
	C146.023773,710.268738 145.929962,658.613831 146.112595,606.959961 
	C146.130096,602.005493 144.622498,600.421448 139.892731,600.964539 
	C130.182449,602.079651 120.241173,602.084106 110.784058,604.247009 
	C101.541962,606.360718 96.061317,613.625610 94.058853,622.914062 
	C92.124199,631.887878 90.306366,640.919739 89.169678,650.017578 
	C88.674591,653.980225 86.864670,654.132507 83.957970,654.015015 
	C80.194298,653.862915 80.972641,651.095276 81.038033,648.914673 
	C81.295258,640.337341 82.041229,631.756775 81.888443,623.190308 
	C81.754593,615.685425 80.812523,608.179871 79.940369,600.708130 
	C79.284431,595.088684 80.045052,594.001648 85.847549,594.001343 
	C134.169540,593.998901 182.491531,594.000000 230.813522,594.000061 
	C239.660065,594.000061 239.690826,594.153625 239.041412,602.874512 
	C238.528290,609.765137 238.204010,616.678101 238.069061,623.586426 
	C237.899887,632.247375 237.961502,640.914246 238.028519,649.577698 
	C238.048889,652.212769 237.792114,654.065247 234.377716,654.078369 
	C231.226639,654.090454 230.362427,653.078979 229.851700,649.850708 
	C228.268524,639.843628 226.542267,629.800659 223.895584,620.036072 
	C220.943542,609.144958 210.953369,602.309265 199.643387,601.976196 
	C192.723145,601.772339 185.794937,601.511963 178.898682,600.936829 
	C174.409454,600.562439 172.871674,601.834839 172.888077,606.662170 
	C173.066849,659.315857 172.937317,711.970581 173.106201,764.624329 
	C173.121521,769.402283 174.164963,774.315186 175.558182,778.914856 
	C177.229706,784.433411 182.556595,785.711792 187.406754,786.903564 
	C190.545029,787.674744 193.907104,787.489868 197.107941,788.069824 
	C198.807022,788.377625 200.376144,789.402710 202.003937,790.104004 
	C200.874939,791.620056 199.745956,793.136169 197.934570,794.454407 
	C171.465805,794.182800 145.679428,794.109070 119.893051,794.035339 
z"/>
<path fill="#F5F0E8" opacity="1.000000" stroke="none" 
	d="
M588.944519,308.968506 
	C598.704895,308.962372 608.132568,308.063202 617.297302,309.229919 
	C629.464539,310.778809 639.890015,317.006927 648.283203,325.912140 
	C657.098511,335.265289 661.546326,346.711945 664.235291,359.349854 
	C667.150146,373.049652 667.112305,386.912689 665.593323,400.281647 
	C662.548218,427.081482 651.533997,448.157104 620.996033,457.335083 
	C610.219360,460.573914 599.097656,460.673981 587.721497,458.248566 
	C575.545776,455.652679 565.058167,450.519257 556.503540,441.838806 
	C547.113831,432.311035 541.534424,420.543732 540.091309,407.208618 
	C538.961792,396.770508 537.959290,386.228180 538.166321,375.757202 
	C538.473389,360.228882 541.649902,345.133057 551.039612,332.273590 
	C560.304932,319.584534 572.600037,311.266541 588.944519,308.968506 
M623.029602,443.451111 
	C632.790283,431.900238 636.125427,417.848724 636.770203,403.440521 
	C637.457214,388.088562 636.750549,372.631470 635.863831,357.265808 
	C635.195374,345.683136 631.248352,334.947266 624.181458,325.511810 
	C613.875854,311.752106 592.821838,312.158905 582.875916,322.432922 
	C575.081116,330.484985 570.973511,340.334656 569.271790,350.728516 
	C566.850464,365.517059 565.144714,380.426422 566.725952,395.687744 
	C568.002197,408.005920 569.295593,420.137695 574.047852,431.607910 
	C582.571594,452.181000 605.012146,460.522522 623.029602,443.451111 
z"/>
<path fill="#F5F0E8" opacity="1.000000" stroke="none" 
	d="
M277.998413,328.016357 
	C289.927338,314.187836 304.834198,307.902252 322.821747,307.876648 
	C333.084869,307.862030 342.798004,308.972412 351.939453,314.005341 
	C363.958282,320.622437 370.779297,331.039307 373.892181,343.955139 
	C375.511719,350.674744 376.073914,357.655579 376.993103,364.534546 
	C377.395294,367.544281 375.485168,368.065521 372.944336,368.031128 
	C366.112579,367.938660 359.278748,367.999634 352.445740,367.999634 
	C333.279999,367.999634 314.110077,368.219177 294.951263,367.854950 
	C289.757324,367.756195 288.164032,370.023926 288.034424,374.301636 
	C287.592316,388.890656 288.028564,403.347687 293.947876,417.105591 
	C299.108917,429.101105 306.413757,439.074707 318.994965,443.940948 
	C326.965790,447.023926 335.178741,446.685638 343.371582,444.258331 
	C355.556641,440.648224 363.865204,432.636749 369.188538,421.428345 
	C370.692169,418.262390 373.281067,418.457428 375.127899,419.299164 
	C376.260651,419.815521 377.206848,423.232300 376.604919,424.657349 
	C372.814819,433.630951 367.306671,441.557159 359.690918,447.701172 
	C348.828796,456.464142 336.113647,460.502991 322.290039,459.913177 
	C299.735443,458.950836 281.330353,449.688660 269.619019,429.922821 
	C263.510803,419.613617 261.084930,407.920288 259.797241,395.834290 
	C258.243835,381.255005 260.175629,367.215363 264.178467,353.460876 
	C266.858490,344.252014 270.778748,335.309357 277.998413,328.016357 
M321.572845,315.028351 
	C315.054565,315.228271 308.944763,316.779907 304.642822,321.984406 
	C301.069672,326.307220 297.411438,330.781952 294.970367,335.766968 
	C291.171478,343.524750 289.461395,352.000122 288.917053,360.731476 
	C308.981598,360.731476 328.384247,360.731476 349.297424,360.731476 
	C347.456116,350.817719 346.673248,341.151611 343.728912,332.196167 
	C340.406036,322.089355 335.268219,314.864136 321.572845,315.028351 
z"/>
<path fill="#F5F0E8" opacity="1.000000" stroke="none" 
	d="
M477.371643,795.999023 
	C468.637238,794.108826 460.399658,792.248352 453.044159,787.617371 
	C436.940460,777.478455 427.522247,762.632996 424.256744,744.349670 
	C422.503418,734.533081 423.357086,724.254395 422.990570,714.185852 
	C422.530731,701.553833 426.360474,690.007019 431.640869,678.759216 
	C438.412933,664.334045 448.955780,653.566956 463.861542,648.195007 
	C480.895172,642.056152 498.062775,642.170532 514.575806,650.931885 
	C524.994812,656.459900 531.313354,664.907654 535.226013,676.038269 
	C538.515442,685.396118 539.344177,694.718933 538.858521,704.794067 
	C510.093262,704.794067 481.353363,704.794067 452.008118,704.794067 
	C449.647186,726.896912 450.528107,747.753113 463.832031,766.621765 
	C471.455353,777.433716 488.416443,785.844604 503.123138,781.724182 
	C516.796692,777.893250 526.263611,770.451599 531.986755,757.781128 
	C533.189148,755.119141 534.496826,754.267151 537.530579,755.776978 
	C540.780029,757.394165 540.211243,759.056702 539.090637,761.645020 
	C531.195374,779.881409 517.444397,791.357117 498.264618,795.648254 
	C491.754517,797.104797 484.661804,795.957458 477.371643,795.999023 
M457.943329,671.589905 
	C454.640625,679.957825 451.706635,688.404175 452.001312,697.646851 
	C471.914673,697.646851 491.418823,697.646851 511.018829,697.646851 
	C511.140106,684.149597 509.483429,671.508911 502.049500,660.129761 
	C498.620483,654.880920 488.949066,650.139160 483.307770,651.153381 
	C471.369415,653.299377 463.254547,660.025757 457.943329,671.589905 
z"/>
<path fill="#F5F0E8" opacity="1.000000" stroke="none" 
	d="
M399.040833,499.534851 
	C397.690674,492.957794 396.770874,486.999695 401.125336,481.139771 
	C404.797211,476.198425 417.707947,475.582794 422.901489,479.411743 
	C427.579559,482.860718 430.302551,492.339264 425.708282,498.828003 
	C425.095123,499.694000 424.734863,500.739105 424.007019,502.206024 
	C431.560669,501.623322 436.663605,497.264313 439.372406,491.754791 
	C444.928680,480.453735 449.434692,468.605072 453.761078,456.758392 
	C454.573639,454.533508 452.834259,451.148010 451.767822,448.501495 
	C442.426086,425.319122 433.039825,402.154053 423.522003,379.043518 
	C417.499268,364.419403 411.369507,349.835388 404.996460,335.361633 
	C402.700439,330.147186 399.971344,325.000671 396.614716,320.428986 
	C394.993591,318.220978 391.346619,317.589050 388.834991,315.916046 
	C387.050018,314.727051 385.629761,312.990479 384.046692,311.498291 
	C385.739166,310.665741 387.425079,309.125061 389.125153,309.109283 
	C407.780365,308.935883 426.438873,309.108826 445.093811,308.920654 
	C449.545837,308.875763 450.766876,310.544983 449.671448,314.927521 
	C447.277618,315.278839 444.729279,316.066711 442.222626,315.951111 
	C429.377167,315.358643 429.499817,321.569855 431.750031,330.009430 
	C434.524597,340.415405 439.008453,350.375031 442.896057,360.472717 
	C448.526703,375.097656 454.262787,389.682251 460.000793,404.265564 
	C462.055725,409.488220 464.246887,414.657257 466.907928,421.148651 
	C469.186920,415.231689 471.117401,410.272583 473.009094,405.298737 
	C480.010590,386.889679 487.141632,368.527954 493.917969,350.036316 
	C496.386139,343.301025 498.937653,336.361969 499.761993,329.318176 
	C500.783386,320.590302 496.051514,316.449738 487.023621,315.964661 
	C485.452972,315.880249 483.788116,315.634277 482.381805,314.992004 
	C481.184479,314.445190 480.296783,313.220367 479.272095,312.295471 
	C480.390259,311.247406 481.348114,309.823395 482.672424,309.258636 
	C483.957397,308.710632 485.618530,309.000092 487.114502,308.998779 
	C498.608398,308.988770 510.103424,308.922119 521.594788,309.094635 
	C523.052612,309.116486 524.491272,310.421204 525.938782,311.131622 
	C524.874939,312.439606 524.072083,314.403168 522.704285,314.947632 
	C514.683289,318.140411 511.140961,325.166870 508.133392,332.262146 
	C504.141266,341.680176 501.037384,351.471954 497.452454,361.065979 
	C491.350800,377.395050 485.164795,393.692535 479.027283,410.008179 
	C474.006317,423.355682 469.009369,436.712158 463.992615,450.061218 
	C459.997192,460.692749 456.102814,471.364197 451.951660,481.934662 
	C448.005310,491.983521 443.053101,501.171326 432.939972,506.758362 
	C424.859222,511.222534 410.188446,511.141022 403.079254,505.376984 
	C401.419464,504.031219 400.540436,501.722504 399.040833,499.534851 
z"/>
<path fill="#C9A84C" opacity="1.000000" stroke="none" 
	d="
M629.999878,739.000000 
	C629.999878,668.869751 629.999878,599.239563 629.999878,528.973267 
	C642.041077,528.400635 652.695618,524.888489 661.380371,516.232727 
	C670.001831,507.640076 673.098938,496.958801 674.128845,485.000244 
	C676.220459,485.000244 678.023743,485.000183 679.827026,485.000183 
	C773.301880,485.000183 866.776733,485.000000 960.251587,485.000671 
	C966.932800,485.000732 966.591736,485.029083 967.074158,491.530670 
	C967.957886,503.439728 973.713501,512.837097 983.133911,520.008179 
	C989.774231,525.062988 996.975891,528.607239 1005.684509,528.042297 
	C1009.462646,527.797241 1010.064453,530.178894 1010.056152,533.478699 
	C1009.966187,569.135620 1010.000000,604.792725 1010.000000,640.449829 
	C1010.000000,698.600830 1010.000000,756.751892 1010.000000,814.902893 
	C1010.000000,816.715393 1010.000000,818.527954 1010.000000,820.509155 
	C983.048218,823.143555 967.888000,837.420654 966.012695,864.788757 
	C868.721741,864.788757 771.784180,864.788757 674.221497,864.788757 
	C671.861511,838.369629 657.673340,823.131226 629.999939,820.583801 
	C629.999939,793.697449 629.999939,766.598694 629.999878,739.000000 
M953.460327,488.999146 
	C861.366760,488.999146 769.273193,488.999146 677.150452,488.999146 
	C677.094971,501.475830 672.078003,511.303101 663.975464,519.336365 
	C655.887817,527.354858 645.636780,531.450928 634.159668,532.291382 
	C634.159668,627.264771 634.159668,721.884949 634.159668,816.760315 
	C659.432922,820.782898 674.663147,834.747681 677.580383,860.651245 
	C772.713806,860.651245 867.779724,860.651245 962.379211,860.651245 
	C965.549744,834.346436 980.883484,820.725830 1005.667053,816.693420 
	C1005.667053,721.651306 1005.667053,626.906128 1005.667053,532.193909 
	C993.594421,531.861816 983.797119,526.766418 975.603821,518.921570 
	C967.317566,510.987854 963.198669,500.778198 962.741943,488.999146 
	C959.733459,488.999146 957.089905,488.999146 953.460327,488.999146 
z"/>
<path fill="#FFFFFF" opacity="1.000000" stroke="none" 
	d="
M120.105904,794.424194 
	C145.679428,794.109070 171.465805,794.182800 197.567627,794.508057 
	C172.028305,794.777344 146.173538,794.795227 120.105904,794.424194 
z"/>
<path fill="#FFFFFF" opacity="1.000000" stroke="none" 
	d="
M253.105988,794.424194 
	C272.980804,794.028259 293.068481,794.021179 313.631470,794.024902 
	C313.435730,794.355957 312.764526,794.956482 312.093689,794.956116 
	C292.502045,794.945190 272.910431,794.874329 253.105988,794.424194 
z"/>
<path fill="#FFFFFF" opacity="1.000000" stroke="none" 
	d="
M343.105499,794.423950 
	C362.980377,794.028076 383.068207,794.021057 403.631348,794.024780 
	C403.435638,794.355957 402.764496,794.956482 402.093658,794.956116 
	C382.501892,794.945129 362.910187,794.874207 343.105499,794.423950 
z"/>
<path fill="#FFFFFF" opacity="1.000000" stroke="none" 
	d="
M161.507080,257.140533 
	C161.359589,257.499878 160.759476,257.946350 160.160782,257.944458 
	C142.999786,257.890381 125.838959,257.791260 108.362457,257.436981 
	C125.716270,257.122559 143.385712,257.070618 161.507080,257.140533 
z"/>
<path fill="#FFFFFF" opacity="1.000000" stroke="none" 
	d="
M956.091553,269.506897 
	C956.436401,269.631165 956.934387,270.214661 956.932922,270.796936 
	C956.894409,286.293457 956.804382,301.789856 956.467773,317.603058 
	C956.145630,301.935059 956.078796,285.950287 956.091553,269.506897 
z"/>
<path fill="#DCDBDB" opacity="1.000000" stroke="none" 
	d="
M385.881226,693.652710 
	C385.539520,693.187378 385.287201,692.373657 385.049225,691.224121 
	C385.365906,691.693604 385.668243,692.498962 385.881226,693.652710 
z"/>
<path fill="#FFFFFF" opacity="1.000000" stroke="none" 
	d="
M956.421143,419.657288 
	C956.107239,392.967438 956.059326,365.962372 956.087280,338.497009 
	C956.442078,339.285187 956.962097,340.533234 956.964417,341.782227 
	C957.010925,366.986298 957.000061,392.190521 956.983704,417.394684 
	C956.983276,418.043854 956.790283,418.692902 956.421143,419.657288 
z"/>
 
z"/>
<path fill="#C9A94C" opacity="1.000000" stroke="none" 
	d="
M924.000000,499.001465 
	C934.476257,499.001465 944.452515,499.001465 954.857239,499.001465 
	C956.754333,524.549072 970.646423,538.227844 995.808777,540.032776 
	C995.808777,630.282104 995.808777,719.878113 995.808777,809.791504 
	C984.744263,810.180908 974.703735,813.292358 966.863525,821.118958 
	C959.096802,828.872131 955.271484,838.611755 954.832397,849.780518 
	C864.972656,849.780518 775.377502,849.780518 685.199097,849.780518 
	C683.016602,825.843201 670.056641,812.088196 644.751282,809.630005 
	C644.751282,803.685059 644.791626,797.562439 644.742615,791.440552 
	C644.650818,779.974365 644.471924,768.508850 644.392822,757.042603 
	C644.242004,735.149902 644.104004,713.257019 644.023193,691.363953 
	C643.976135,678.614197 643.938721,665.862488 644.104431,653.114380 
	C644.242737,642.473450 644.928955,631.836304 644.927490,621.197571 
	C644.925659,607.718201 644.281677,594.238892 644.272095,580.759338 
	C644.263306,568.323608 644.839478,555.888184 644.908081,543.451233 
	C644.926575,540.096313 646.480652,539.035278 649.325134,539.019470 
	C665.060181,538.931824 682.615173,524.455444 684.072998,506.335510 
	C684.254517,504.079865 684.946350,501.865234 685.530212,499.001465 
	C764.650940,499.001465 844.075439,499.001465 924.000000,499.001465 
M845.500000,846.001221 
	C879.165771,846.001221 912.831482,846.006836 946.497253,845.989990 
	C949.060791,845.988708 951.767822,846.736938 952.088806,842.405457 
	C952.999634,830.115723 959.317139,820.520142 969.404297,814.154968 
	C976.087708,809.937683 984.020630,807.700623 991.646606,804.470032 
	C991.646606,717.964539 991.646606,630.559204 991.646606,543.165100 
	C970.925781,542.578003 953.067505,526.660889 951.608765,503.212036 
	C950.692200,503.143494 949.733765,503.009186 948.775330,503.009064 
	C863.445496,502.999115 778.115601,503.017273 692.785828,502.935059 
	C689.304382,502.931732 688.587952,504.444122 687.871155,507.468750 
	C686.654236,512.604614 685.304932,517.923523 682.794250,522.497559 
	C675.637573,535.535950 663.795471,541.716309 649.234924,543.502563 
	C649.234924,630.944092 649.234924,718.370361 649.234924,805.573425 
	C653.422119,806.761108 657.433167,807.591309 661.214905,809.026001 
	C675.828796,814.570740 685.002563,825.169739 687.734070,840.448730 
	C688.562988,845.085144 689.680176,846.093567 694.006348,846.082581 
	C744.170654,845.955200 794.335388,846.001221 845.500000,846.001221 
z"/>
</svg>