<svg version="1.1" id="Layer_1" xmlns="http://www.w3.org/2000/svg" xmlns:xlink="http://www.w3.org/1999/xlink" x="0px" y="0px"
	 width="100%" viewBox="0 0 723 723" enable-background="new 0 0 723 723" xml:space="preserve">
<path fill="#010100" opacity="1.000000" stroke="none" 
	d="
M1.000000,193.000000 
	C1.000000,128.666672 1.000000,64.833336 1.000000,1.000000 
	C242.000000,1.000000 483.000000,1.000000 724.000000,1.000000 
	C724.000000,242.000000 724.000000,483.000000 724.000000,724.000000 
	C483.000000,724.000000 242.000000,724.000000 1.000000,724.000000 
	C1.000000,547.166687 1.000000,370.333344 1.000000,193.000000 
M33.780670,128.499985 
	C33.780670,290.246552 33.780670,451.993134 33.780670,613.983459 
	C55.428326,613.981201 73.670685,620.924011 88.498108,635.853394 
	C103.296852,650.753906 109.763245,669.213562 110.102402,689.766968 
	C280.718750,689.766968 450.771332,689.766968 620.940063,689.766968 
	C620.859680,668.395752 627.978394,650.225281 642.860901,635.397400 
	C657.737122,620.575989 676.117920,613.929199 696.829956,613.940857 
	C696.829956,443.314636 696.829956,273.266296 696.829956,103.105293 
	C675.644897,102.608078 657.249329,96.039581 642.442993,80.998253 
	C627.738220,66.060112 621.012268,47.741421 620.864868,27.095856 
	C450.308014,27.095856 280.368500,27.095856 110.041603,27.095856 
	C109.969772,48.215042 102.930130,66.425720 88.142365,81.300041 
	C73.307030,96.222214 54.810677,102.608879 33.780506,103.170288 
	C33.780506,111.559593 33.780506,119.529785 33.780670,128.499985 
z"/>
<path fill="#C7A64B" opacity="1.000000" stroke="none" 
	d="
M33.780586,127.999985 
	C33.780506,119.529785 33.780506,111.559593 33.780506,103.170288 
	C54.810677,102.608879 73.307030,96.222214 88.142365,81.300041 
	C102.930130,66.425720 109.969772,48.215042 110.041603,27.095856 
	C280.368500,27.095856 450.308014,27.095856 620.864868,27.095856 
	C621.012268,47.741421 627.738220,66.060112 642.442993,80.998253 
	C657.249329,96.039581 675.644897,102.608078 696.829956,103.105293 
	C696.829956,273.266296 696.829956,443.314636 696.829956,613.940857 
	C676.117920,613.929199 657.737122,620.575989 642.860901,635.397400 
	C627.978394,650.225281 620.859680,668.395752 620.940063,689.766968 
	C450.771332,689.766968 280.718750,689.766968 110.102402,689.766968 
	C109.763245,669.213562 103.296852,650.753906 88.498108,635.853394 
	C73.670685,620.924011 55.428326,613.981201 33.780670,613.983459 
	C33.780670,451.993134 33.780670,290.246552 33.780586,127.999985 
M38.952820,209.500000 
	C38.952820,342.564972 38.952820,475.629944 38.952820,608.757690 
	C60.119034,610.083313 77.747177,617.654114 92.252411,632.232178 
	C106.729965,646.782471 113.754196,664.657410 115.259743,684.670044 
	C282.361938,684.670044 448.921173,684.670044 615.670898,684.670044 
	C616.715027,663.887146 624.480713,646.199890 638.944824,631.797119 
	C653.393494,617.409790 671.181702,609.855164 691.589783,608.652588 
	C691.589783,441.649139 691.589783,274.965210 691.589783,108.220291 
	C670.787720,106.957397 653.110840,99.477425 638.593506,84.894012 
	C624.115173,70.349731 616.862976,52.584435 615.600647,32.260300 
	C448.610199,32.260300 282.042206,32.260300 115.203445,32.260300 
	C114.062798,52.911404 106.378860,70.642693 91.956718,85.072159 
	C77.538620,99.497566 59.768520,107.091553 38.952862,108.373718 
	C38.952862,141.928543 38.952862,175.214279 38.952820,209.500000 
z"/>
<path fill="#010000" opacity="1.000000" stroke="none" 
	d="
M38.952843,209.000000 
	C38.952862,175.214279 38.952862,141.928543 38.952862,108.373718 
	C59.768520,107.091553 77.538620,99.497566 91.956718,85.072159 
	C106.378860,70.642693 114.062798,52.911404 115.203445,32.260300 
	C282.042206,32.260300 448.610199,32.260300 615.600647,32.260300 
	C616.862976,52.584435 624.115173,70.349731 638.593506,84.894012 
	C653.110840,99.477425 670.787720,106.957397 691.589783,108.220291 
	C691.589783,274.965210 691.589783,441.649139 691.589783,608.652588 
	C671.181702,609.855164 653.393494,617.409790 638.944824,631.797119 
	C624.480713,646.199890 616.715027,663.887146 615.670898,684.670044 
	C448.921173,684.670044 282.361938,684.670044 115.259743,684.670044 
	C113.754196,664.657410 106.729965,646.782471 92.252411,632.232178 
	C77.747177,617.654114 60.119034,610.083313 38.952820,608.757690 
	C38.952820,475.629944 38.952820,342.564972 38.952843,209.000000 
M669.244202,122.145592 
	C650.034058,122.323280 633.858826,115.188011 620.583862,101.517570 
	C607.305115,87.843300 601.437988,71.101379 601.619080,52.258018 
	C443.936615,52.258018 286.842072,52.258018 129.273743,52.258018 
	C129.607819,71.872200 123.137695,88.698586 109.381264,102.438805 
	C95.634178,116.169693 78.844933,122.680908 59.256058,122.226608 
	C59.256058,279.909851 59.256058,437.136475 59.256058,594.753906 
	C78.844360,594.572021 95.737289,600.955383 109.450104,614.710999 
	C123.154297,628.458008 129.311340,645.468811 129.351639,664.779663 
	C287.001801,664.779663 444.096100,664.779663 601.683289,664.779663 
	C601.250244,645.178589 607.816956,628.338379 621.519409,614.629089 
	C635.235840,600.905823 652.174744,594.568359 672.004211,594.744568 
	C672.004211,592.410217 672.004211,590.458130 672.004272,588.506042 
	C672.005615,510.178101 672.007935,431.850128 672.007935,353.522186 
	C672.007935,278.194031 672.018188,202.865845 671.927673,127.537804 
	C671.925537,125.749161 670.783325,123.961891 669.244202,122.145592 
z"/>
<path fill="#C7A64B" opacity="1.000000" stroke="none" 
	d="
M669.708496,122.159790 
	C670.783325,123.961891 671.925537,125.749161 671.927673,127.537804 
	C672.018188,202.865845 672.007935,278.194031 672.007935,353.522186 
	C672.007935,431.850128 672.005615,510.178101 672.004272,588.506042 
	C672.004211,590.458130 672.004211,592.410217 672.004211,594.744568 
	C652.174744,594.568359 635.235840,600.905823 621.519409,614.629089 
	C607.816956,628.338379 601.250244,645.178589 601.683289,664.779663 
	C444.096100,664.779663 287.001801,664.779663 129.351639,664.779663 
	C129.311340,645.468811 123.154297,628.458008 109.450104,614.710999 
	C95.737289,600.955383 78.844360,594.572021 59.256058,594.753906 
	C59.256058,437.136475 59.256058,279.909851 59.256058,122.226608 
	C78.844933,122.680908 95.634178,116.169693 109.381264,102.438805 
	C123.137695,88.698586 129.607819,71.872200 129.273743,52.258018 
	C286.842072,52.258018 443.936615,52.258018 601.619080,52.258018 
	C601.437988,71.101379 607.305115,87.843300 620.583862,101.517570 
	C633.858826,115.188011 650.034058,122.323280 669.708496,122.159790 
M666.882141,165.500000 
	C666.882141,153.048920 666.882141,140.597855 666.882141,127.974297 
	C664.422424,127.620850 662.464355,127.265808 660.490601,127.066856 
	C627.864929,123.778221 599.351685,95.184113 597.070740,63.045288 
	C596.734070,58.300827 595.356750,57.050388 590.625854,57.054501 
	C440.634918,57.184963 290.643799,57.161671 140.652695,57.161667 
	C138.844482,57.161667 137.036285,57.161667 135.297745,57.161667 
	C129.668610,99.189651 106.007126,122.769142 64.547638,128.189178 
	C64.547638,281.996002 64.547638,435.408203 64.547638,588.583557 
	C106.325180,594.407104 129.772751,617.938843 135.113403,659.501587 
	C288.775177,659.501587 442.331024,659.501587 595.649170,659.501587 
	C601.235474,617.378418 625.163940,594.159058 666.882141,588.567932 
	C666.882141,447.779694 666.882141,307.139832 666.882141,165.500000 
z"/>
<path fill="#010100" opacity="1.000000" stroke="none" 
	d="
M666.882141,166.000000 
	C666.882141,307.139832 666.882141,447.779694 666.882141,588.567932 
	C625.163940,594.159058 601.235474,617.378418 595.649170,659.501587 
	C442.331024,659.501587 288.775177,659.501587 135.113403,659.501587 
	C129.772751,617.938843 106.325180,594.407104 64.547638,588.583557 
	C64.547638,435.408203 64.547638,281.996002 64.547638,128.189178 
	C106.007126,122.769142 129.668610,99.189651 135.297745,57.161667 
	C137.036285,57.161667 138.844482,57.161667 140.652695,57.161667 
	C290.643799,57.161671 440.634918,57.184963 590.625854,57.054501 
	C595.356750,57.050388 596.734070,58.300827 597.070740,63.045288 
	C599.351685,95.184113 627.864929,123.778221 660.490601,127.066856 
	C662.464355,127.265808 664.422424,127.620850 666.882141,127.974297 
	C666.882141,140.597855 666.882141,153.048920 666.882141,166.000000 
M103.271126,164.558136 
	C98.839172,164.317261 94.407227,164.076370 89.813324,163.826691 
	C89.813324,167.281143 89.813324,170.205414 89.813324,173.119507 
	C96.617851,174.078690 103.198532,174.825928 109.710175,175.967148 
	C119.119499,177.616241 125.545204,182.711014 127.095802,192.585541 
	C127.945175,197.994522 128.909607,203.468399 128.916901,208.914230 
	C129.031036,294.224152 129.040451,379.534271 128.904739,464.844116 
	C128.895294,470.783630 127.972313,476.809692 126.731544,482.637390 
	C125.115540,490.227448 120.424263,495.440735 112.518318,496.926117 
	C105.034981,498.332092 97.488251,499.400574 89.554947,500.684570 
	C89.554947,502.330139 89.524368,504.307343 89.566704,506.283020 
	C89.591118,507.422913 89.733315,508.560333 89.823715,509.714386 
	C90.508850,509.786163 90.997055,509.882416 91.485176,509.881989 
	C132.622177,509.844330 173.761139,509.541046 214.895355,509.858002 
	C237.098953,510.029053 259.158508,510.046387 280.775757,503.905273 
	C324.119934,491.591858 350.068909,459.902405 351.340179,416.884674 
	C352.058197,392.586639 343.319916,372.043488 325.408844,355.494537 
	C310.744415,341.945312 292.665955,335.567383 273.739380,331.086212 
	C266.623993,329.401550 259.393311,328.203705 251.835541,326.708832 
	C252.540787,326.110260 252.745880,325.818970 253.019424,325.723175 
	C254.741211,325.120148 256.482819,324.574005 258.209503,323.984467 
	C281.956573,315.876740 302.693634,303.714203 315.504425,281.049805 
	C335.369965,245.904343 329.761932,194.506912 279.818909,174.005234 
	C259.537140,165.679535 238.292725,164.092438 216.671616,164.263443 
	C179.188721,164.559891 141.702988,164.499527 103.271126,164.558136 
M545.500488,508.778687 
	C561.589966,508.778687 577.679382,508.778687 593.755127,508.778687 
	C593.755127,506.336090 593.755127,503.250671 593.755127,500.642609 
	C584.543640,499.386658 575.607361,498.467804 566.788818,496.890656 
	C555.584900,494.886871 548.577637,487.943115 546.863342,476.729767 
	C545.535828,468.046783 544.813843,459.184784 544.799805,450.400787 
	C544.655701,360.403809 544.711365,270.406525 544.711243,180.409317 
	C544.711243,178.771439 544.711243,177.133575 544.711243,174.993637 
	C564.567383,175.279892 584.236267,173.650269 603.534424,178.535141 
	C616.080078,181.710785 626.153687,188.698898 631.862732,200.368240 
	C635.468018,207.737518 638.127930,215.792526 639.803101,223.833450 
	C642.709778,237.785889 644.524414,251.965820 646.836365,266.294312 
	C650.055298,266.294312 653.482788,266.294312 655.840210,266.294312 
	C656.609009,232.053665 657.372253,198.060654 658.125427,164.514099 
	C567.409363,164.514099 475.995361,164.514099 385.735596,164.514099 
	C386.436523,198.318954 387.138824,232.191788 387.842163,266.114258 
	C390.315216,266.114258 393.868439,266.114258 397.520172,266.114258 
	C397.705597,264.412323 397.772888,263.082275 398.003967,261.781342 
	C400.967255,245.097076 403.168610,228.226807 407.149109,211.787689 
	C411.384003,194.297882 423.029022,182.798080 440.698090,178.393509 
	C459.806335,173.630173 479.335358,175.178726 499.084381,175.033966 
	C499.084381,176.586945 499.084381,177.722137 499.084381,178.857315 
	C499.083893,270.187805 499.124146,361.518372 499.007019,452.848724 
	C498.997437,460.306763 498.278900,467.814362 497.247192,475.209290 
	C495.504211,487.702728 488.290802,495.292206 475.627228,497.176117 
	C467.135956,498.439331 458.609558,499.466248 450.245392,500.579407 
	C450.245392,503.678345 450.245392,506.750214 450.245392,508.770355 
	C481.883301,508.770355 513.191895,508.770355 545.500488,508.778687 
z"/>
<path fill="#C7A64B" opacity="1.000000" stroke="none" 
	d="
M103.744781,164.573456 
	C141.702988,164.499527 179.188721,164.559891 216.671616,164.263443 
	C238.292725,164.092438 259.537140,165.679535 279.818909,174.005234 
	C329.761932,194.506912 335.369965,245.904343 315.504425,281.049805 
	C302.693634,303.714203 281.956573,315.876740 258.209503,323.984467 
	C256.482819,324.574005 254.741211,325.120148 253.019424,325.723175 
	C252.745880,325.818970 252.540787,326.110260 251.835541,326.708832 
	C259.393311,328.203705 266.623993,329.401550 273.739380,331.086212 
	C292.665955,335.567383 310.744415,341.945312 325.408844,355.494537 
	C343.319916,372.043488 352.058197,392.586639 351.340179,416.884674 
	C350.068909,459.902405 324.119934,491.591858 280.775757,503.905273 
	C259.158508,510.046387 237.098953,510.029053 214.895355,509.858002 
	C173.761139,509.541046 132.622177,509.844330 91.485176,509.881989 
	C90.997055,509.882416 90.508850,509.786163 89.823715,509.714386 
	C89.733315,508.560333 89.591118,507.422913 89.566704,506.283020 
	C89.524368,504.307343 89.554947,502.330139 89.554947,500.684570 
	C97.488251,499.400574 105.034981,498.332092 112.518318,496.926117 
	C120.424263,495.440735 125.115540,490.227448 126.731544,482.637390 
	C127.972313,476.809692 128.895294,470.783630 128.904739,464.844116 
	C129.040451,379.534271 129.031036,294.224152 128.916901,208.914230 
	C128.909607,203.468399 127.945175,197.994522 127.095802,192.585541 
	C125.545204,182.711014 119.119499,177.616241 109.710175,175.967148 
	C103.198532,174.825928 96.617851,174.078690 89.813324,173.119507 
	C89.813324,170.205414 89.813324,167.281143 89.813324,163.826691 
	C94.407227,164.076370 98.839172,164.317261 103.744781,164.573456 
M300.689575,391.052704 
	C294.874298,362.119751 277.609558,344.401367 248.781677,337.924164 
	C224.443451,332.455688 199.779816,335.328125 174.983917,334.399628 
	C174.873505,336.183105 174.724152,337.473602 174.723801,338.764160 
	C174.713104,378.400757 174.654709,418.037506 174.778503,457.673737 
	C174.799744,464.476471 175.233917,471.326630 176.134232,478.067108 
	C177.676132,489.610931 183.085587,495.159119 194.574539,497.061920 
	C215.854187,500.586304 236.703247,498.489136 256.907349,491.032654 
	C277.808289,483.319000 291.389282,468.428375 297.891449,447.239014 
	C303.461273,429.087891 303.816528,410.555817 300.689575,391.052704 
M262.606354,305.050507 
	C264.400116,302.259369 266.503510,299.618195 267.939575,296.653778 
	C281.843933,267.951569 282.805176,238.334290 272.869537,208.427292 
	C268.078552,194.005997 257.945709,183.888809 243.388870,178.636093 
	C228.319397,173.198380 212.687668,172.384201 197.088821,174.498520 
	C183.143997,176.388611 177.792160,182.799881 175.933548,196.922531 
	C175.413467,200.874359 174.926270,204.867767 174.914902,208.843506 
	C174.804581,247.487778 174.797958,286.132355 174.777802,324.776855 
	C174.777664,325.057495 175.000504,325.338257 175.508942,326.540344 
	C191.583939,325.957397 208.063736,326.030304 224.406250,324.568420 
	C239.162537,323.248474 252.428085,317.616455 262.606354,305.050507 
z"/>
<path fill="#C7A64B" opacity="1.000000" stroke="none" 
	d="
M545.000488,508.774536 
	C513.191895,508.770355 481.883301,508.770355 450.245392,508.770355 
	C450.245392,506.750214 450.245392,503.678345 450.245392,500.579407 
	C458.609558,499.466248 467.135956,498.439331 475.627228,497.176117 
	C488.290802,495.292206 495.504211,487.702728 497.247192,475.209290 
	C498.278900,467.814362 498.997437,460.306763 499.007019,452.848724 
	C499.124146,361.518372 499.083893,270.187805 499.084381,178.857315 
	C499.084381,177.722137 499.084381,176.586945 499.084381,175.033966 
	C479.335358,175.178726 459.806335,173.630173 440.698090,178.393509 
	C423.029022,182.798080 411.384003,194.297882 407.149109,211.787689 
	C403.168610,228.226807 400.967255,245.097076 398.003967,261.781342 
	C397.772888,263.082275 397.705597,264.412323 397.520172,266.114258 
	C393.868439,266.114258 390.315216,266.114258 387.842163,266.114258 
	C387.138824,232.191788 386.436523,198.318954 385.735596,164.514099 
	C475.995361,164.514099 567.409363,164.514099 658.125427,164.514099 
	C657.372253,198.060654 656.609009,232.053665 655.840210,266.294312 
	C653.482788,266.294312 650.055298,266.294312 646.836365,266.294312 
	C644.524414,251.965820 642.709778,237.785889 639.803101,223.833450 
	C638.127930,215.792526 635.468018,207.737518 631.862732,200.368240 
	C626.153687,188.698898 616.080078,181.710785 603.534424,178.535141 
	C584.236267,173.650269 564.567383,175.279892 544.711243,174.993637 
	C544.711243,177.133575 544.711243,178.771439 544.711243,180.409317 
	C544.711365,270.406525 544.655701,360.403809 544.799805,450.400787 
	C544.813843,459.184784 545.535828,468.046783 546.863342,476.729767 
	C548.577637,487.943115 555.584900,494.886871 566.788818,496.890656 
	C575.607361,498.467804 584.543640,499.386658 593.755127,500.642609 
	C593.755127,503.250671 593.755127,506.336090 593.755127,508.778687 
	C577.679382,508.778687 561.589966,508.778687 545.000488,508.774536 
z"/>
<path fill="#010101" opacity="1.000000" stroke="none" 
	d="
M300.778198,391.474091 
	C303.816528,410.555817 303.461273,429.087891 297.891449,447.239014 
	C291.389282,468.428375 277.808289,483.319000 256.907349,491.032654 
	C236.703247,498.489136 215.854187,500.586304 194.574539,497.061920 
	C183.085587,495.159119 177.676132,489.610931 176.134232,478.067108 
	C175.233917,471.326630 174.799744,464.476471 174.778503,457.673737 
	C174.654709,418.037506 174.713104,378.400757 174.723801,338.764160 
	C174.724152,337.473602 174.873505,336.183105 174.983917,334.399628 
	C199.779816,335.328125 224.443451,332.455688 248.781677,337.924164 
	C277.609558,344.401367 294.874298,362.119751 300.778198,391.474091 
z"/>
<path fill="#010101" opacity="1.000000" stroke="none" 
	d="
M262.364166,305.314087 
	C252.428085,317.616455 239.162537,323.248474 224.406250,324.568420 
	C208.063736,326.030304 191.583939,325.957397 175.508942,326.540344 
	C175.000504,325.338257 174.777664,325.057495 174.777802,324.776855 
	C174.797958,286.132355 174.804581,247.487778 174.914902,208.843506 
	C174.926270,204.867767 175.413467,200.874359 175.933548,196.922531 
	C177.792160,182.799881 183.143997,176.388611 197.088821,174.498520 
	C212.687668,172.384201 228.319397,173.198380 243.388870,178.636093 
	C257.945709,183.888809 268.078552,194.005997 272.869537,208.427292 
	C282.805176,238.334290 281.843933,267.951569 267.939575,296.653778 
	C266.503510,299.618195 264.400116,302.259369 262.364166,305.314087 
z"/>
</svg>
