<svg version="1.1" id="Layer_1" xmlns="http://www.w3.org/2000/svg" xmlns:xlink="http://www.w3.org/1999/xlink" x="0px" y="0px"
	 width="100%" viewBox="0 0 1080 455" enable-background="new 0 0 1080 455" xml:space="preserve">
<path fill="#0D0D0B" opacity="0.000000" stroke="none" 
	d="
M820.000000,456.000000 
	C546.666687,456.000000 273.833344,456.000000 1.000000,456.000000 
	C1.000000,304.333344 1.000000,152.666672 1.000000,1.000000 
	C361.000000,1.000000 721.000000,1.000000 1081.000000,1.000000 
	C1081.000000,152.666672 1081.000000,304.333344 1081.000000,456.000000 
	C994.166687,456.000000 907.333313,456.000000 820.000000,456.000000 
M275.379333,148.863342 
	C286.450897,112.579414 272.792084,79.153793 239.732681,62.482479 
	C219.733505,52.397232 198.094971,50.548267 176.087265,50.561836 
	C135.770615,50.586689 95.453766,50.323086 55.137001,50.180954 
	C53.352886,50.174664 51.568729,50.180153 49.684864,50.180153 
	C49.684864,53.410011 49.684864,56.301208 49.684864,59.114388 
	C56.412651,60.090088 62.846218,60.795528 69.186028,61.996071 
	C78.615219,63.781643 84.945511,69.124557 86.108994,79.036194 
	C87.038605,86.955559 87.842979,94.946869 87.856255,102.907661 
	C87.984383,179.729843 87.955452,256.552368 87.892075,333.374725 
	C87.886856,339.693787 87.532539,346.034576 86.935478,352.326813 
	C85.510506,367.344482 80.209694,372.829681 65.315002,374.996643 
	C60.098701,375.755554 54.846249,376.265961 49.578941,376.893585 
	C49.578941,379.967621 49.578941,382.740967 49.578941,385.858643 
	C51.255035,385.858643 52.708946,385.877441 54.162262,385.855835 
	C75.318901,385.541534 96.474648,385.040283 117.632210,384.946503 
	C148.270798,384.810699 178.936279,385.746155 209.541367,384.738617 
	C231.345673,384.020782 251.524170,376.507294 269.390167,363.587433 
	C304.075867,338.504364 314.309937,288.725281 292.167938,252.539948 
	C279.694427,232.155258 260.438446,221.311020 238.165344,215.113831 
	C228.220657,212.346848 218.048492,210.397446 207.358963,207.933960 
	C213.520889,205.513199 219.223648,203.431183 224.800751,201.054352 
	C248.676193,190.879181 266.672363,174.903595 275.379333,148.863342 
M457.499817,384.913208 
	C484.607147,384.913208 511.714478,384.913208 538.876831,384.913208 
	C538.876831,382.612579 538.876831,379.706390 538.876831,376.948608 
	C530.349976,375.936554 522.041687,375.364471 513.897583,373.887054 
	C501.590729,371.654480 494.812103,364.594513 493.073486,352.276215 
	C491.983643,344.554596 491.273743,336.708069 491.262604,328.916321 
	C491.137390,241.270782 491.180939,153.625015 491.179138,65.979301 
	C491.179108,64.386719 491.179169,62.794140 491.179169,60.493694 
	C506.676361,61.054298 521.514587,61.091347 536.261536,62.270241 
	C549.996643,63.368252 562.654907,67.768097 571.774048,79.067505 
	C578.891235,87.886299 581.956970,98.432465 583.933960,109.273346 
	C586.372803,122.646469 588.314392,136.110275 590.461975,149.479767 
	C593.876160,149.479767 597.278137,149.479767 599.315796,149.479767 
	C600.041565,116.202621 600.758728,83.316193 601.469055,50.746498 
	C513.650635,50.746498 424.784363,50.746498 336.983093,50.746498 
	C337.681274,83.521980 338.382233,116.426247 339.088837,149.595718 
	C341.371613,149.595718 344.631927,149.595718 348.234283,149.595718 
	C348.477997,148.094513 348.721222,146.647217 348.946991,145.197220 
	C350.968109,132.217041 352.602539,119.161797 355.108124,106.275917 
	C357.858887,92.129272 363.021790,79.068100 375.866272,70.679253 
	C384.302124,65.169701 393.795776,62.476562 403.667816,62.127537 
	C418.055939,61.618851 432.475403,61.996891 447.060730,61.996891 
	C447.060730,62.629097 447.060760,63.615395 447.060730,64.601692 
	C447.059052,153.247162 447.073090,241.892654 447.017822,330.538086 
	C447.014404,336.022400 446.672882,341.526794 446.133484,346.986786 
	C444.328339,365.260223 437.172180,372.626892 418.996918,374.964722 
	C414.214020,375.579895 409.374817,375.753571 404.563110,376.149689 
	C402.814758,376.293640 401.071167,376.495087 399.407166,376.662079 
	C399.407166,380.032196 399.407166,382.802795 399.407166,384.919067 
	C418.603180,384.919067 437.551544,384.919067 457.499817,384.913208 
M1052.670532,237.500061 
	C1052.668579,183.684830 1052.606812,129.869415 1052.772583,76.054688 
	C1052.786621,71.490150 1051.474121,70.285164 1047.016846,69.981903 
	C1027.267334,68.638229 1010.943909,52.490002 1008.785461,32.686378 
	C1008.555603,30.577768 1008.300720,28.471893 1008.054749,26.341122 
	C909.193787,26.341122 810.775635,26.341122 712.281921,26.341122 
	C709.899658,53.654564 695.007629,68.346115 667.936157,70.803322 
	C667.936157,169.611526 667.936157,268.150818 667.936157,366.675140 
	C693.587036,367.930084 710.780518,384.742188 712.263000,410.791748 
	C810.806274,410.791748 909.360413,410.791748 1008.190186,410.791748 
	C1008.342529,398.585724 1012.250000,388.085052 1020.848206,379.552063 
	C1029.536743,370.929321 1040.286621,367.200531 1052.670410,366.846893 
	C1052.670410,323.756165 1052.670410,281.128113 1052.670532,237.500061 
z"/>
<path fill="#F3EEE6" opacity="1.000000" stroke="none" 
	d="
M275.256348,149.242371 
	C266.672363,174.903595 248.676193,190.879181 224.800751,201.054352 
	C219.223648,203.431183 213.520889,205.513199 207.358963,207.933960 
	C218.048492,210.397446 228.220657,212.346848 238.165344,215.113831 
	C260.438446,221.311020 279.694427,232.155258 292.167938,252.539948 
	C314.309937,288.725281 304.075867,338.504364 269.390167,363.587433 
	C251.524170,376.507294 231.345673,384.020782 209.541367,384.738617 
	C178.936279,385.746155 148.270798,384.810699 117.632210,384.946503 
	C96.474648,385.040283 75.318901,385.541534 54.162262,385.855835 
	C52.708946,385.877441 51.255035,385.858643 49.578941,385.858643 
	C49.578941,382.740967 49.578941,379.967621 49.578941,376.893585 
	C54.846249,376.265961 60.098701,375.755554 65.315002,374.996643 
	C80.209694,372.829681 85.510506,367.344482 86.935478,352.326813 
	C87.532539,346.034576 87.886856,339.693787 87.892075,333.374725 
	C87.955452,256.552368 87.984383,179.729843 87.856255,102.907661 
	C87.842979,94.946869 87.038605,86.955559 86.108994,79.036194 
	C84.945511,69.124557 78.615219,63.781643 69.186028,61.996071 
	C62.846218,60.795528 56.412651,60.090088 49.684864,59.114388 
	C49.684864,56.301208 49.684864,53.410011 49.684864,50.180153 
	C51.568729,50.180153 53.352886,50.174664 55.137001,50.180954 
	C95.453766,50.323086 135.770615,50.586689 176.087265,50.561836 
	C198.094971,50.548267 219.733505,52.397232 239.732681,62.482479 
	C272.792084,79.153793 286.450897,112.579414 275.256348,149.242371 
M243.082825,243.460709 
	C237.277466,235.297836 229.870972,229.184509 220.780609,224.819077 
	C209.610641,219.454956 197.721268,216.892380 185.614075,216.415222 
	C167.890823,215.716721 150.119598,216.235458 132.019943,216.235458 
	C132.019943,217.322769 132.019836,218.288483 132.019974,219.254181 
	C132.025375,258.553467 131.992538,297.852844 132.081390,337.151947 
	C132.093399,342.465271 132.477005,347.805634 133.103546,353.084229 
	C134.699921,366.533661 140.018234,372.459991 153.514511,374.135010 
	C174.280197,376.712280 194.786835,374.887634 214.271286,366.884552 
	C233.013260,359.186493 245.480042,345.321289 251.544907,325.887115 
	C256.487213,310.050049 257.160736,293.842224 255.407532,277.480164 
	C254.114227,265.410339 250.483017,254.112595 243.082825,243.460709 
M205.046677,67.336708 
	C188.787399,59.102509 171.373108,58.217636 153.871689,60.514347 
	C140.172867,62.312042 134.376801,69.399460 133.062012,83.257988 
	C132.480881,89.383339 132.082108,95.550941 132.064804,101.700676 
	C131.970154,135.352341 132.016785,169.004395 132.028625,202.656326 
	C132.029190,204.266357 132.160385,205.876343 132.276947,208.543625 
	C148.877396,207.753845 165.203949,207.731140 181.353943,206.031204 
	C205.298798,203.510757 220.691467,189.754333 228.046249,166.944778 
	C234.693039,146.330994 235.179214,125.336067 230.801651,104.314392 
	C227.572540,88.807663 220.336502,75.609924 205.046677,67.336708 
z"/>
<path fill="#F3EEE6" opacity="1.000000" stroke="none" 
	d="
M456.999847,384.916138 
	C437.551544,384.919067 418.603180,384.919067 399.407166,384.919067 
	C399.407166,382.802795 399.407166,380.032196 399.407166,376.662079 
	C401.071167,376.495087 402.814758,376.293640 404.563110,376.149689 
	C409.374817,375.753571 414.214020,375.579895 418.996918,374.964722 
	C437.172180,372.626892 444.328339,365.260223 446.133484,346.986786 
	C446.672882,341.526794 447.014404,336.022400 447.017822,330.538086 
	C447.073090,241.892654 447.059052,153.247162 447.060730,64.601692 
	C447.060760,63.615395 447.060730,62.629097 447.060730,61.996891 
	C432.475403,61.996891 418.055939,61.618851 403.667816,62.127537 
	C393.795776,62.476562 384.302124,65.169701 375.866272,70.679253 
	C363.021790,79.068100 357.858887,92.129272 355.108124,106.275917 
	C352.602539,119.161797 350.968109,132.217041 348.946991,145.197220 
	C348.721222,146.647217 348.477997,148.094513 348.234283,149.595718 
	C344.631927,149.595718 341.371613,149.595718 339.088837,149.595718 
	C338.382233,116.426247 337.681274,83.521980 336.983093,50.746498 
	C424.784363,50.746498 513.650635,50.746498 601.469055,50.746498 
	C600.758728,83.316193 600.041565,116.202621 599.315796,149.479767 
	C597.278137,149.479767 593.876160,149.479767 590.461975,149.479767 
	C588.314392,136.110275 586.372803,122.646469 583.933960,109.273346 
	C581.956970,98.432465 578.891235,87.886299 571.774048,79.067505 
	C562.654907,67.768097 549.996643,63.368252 536.261536,62.270241 
	C521.514587,61.091347 506.676361,61.054298 491.179169,60.493694 
	C491.179169,62.794140 491.179108,64.386719 491.179138,65.979301 
	C491.180939,153.625015 491.137390,241.270782 491.262604,328.916321 
	C491.273743,336.708069 491.983643,344.554596 493.073486,352.276215 
	C494.812103,364.594513 501.590729,371.654480 513.897583,373.887054 
	C522.041687,375.364471 530.349976,375.936554 538.876831,376.948608 
	C538.876831,379.706390 538.876831,382.612579 538.876831,384.913208 
	C511.714478,384.913208 484.607147,384.913208 456.999847,384.916138 
z"/>
<path fill="#B69845" opacity="1.000000" stroke="none" 
	d="
M1052.670410,238.000061 
	C1052.670410,281.128113 1052.670410,323.756165 1052.670410,366.846893 
	C1040.286621,367.200531 1029.536743,370.929321 1020.848206,379.552063 
	C1012.250000,388.085052 1008.342529,398.585724 1008.190186,410.791748 
	C909.360413,410.791748 810.806274,410.791748 712.263000,410.791748 
	C710.780518,384.742188 693.587036,367.930084 667.936157,366.675140 
	C667.936157,268.150818 667.936157,169.611526 667.936157,70.803322 
	C695.007629,68.346115 709.899658,53.654564 712.281921,26.341122 
	C810.775635,26.341122 909.193787,26.341122 1008.054749,26.341122 
	C1008.300720,28.471893 1008.555603,30.577768 1008.785461,32.686378 
	C1010.943909,52.490002 1027.267334,68.638229 1047.016846,69.981903 
	C1051.474121,70.285164 1052.786621,71.490150 1052.772583,76.054688 
	C1052.606812,129.869415 1052.668579,183.684830 1052.670410,238.000061 
M1049.234131,317.500031 
	C1049.234131,286.839813 1049.234131,256.179626 1049.234009,225.519409 
	C1049.233887,176.529831 1049.203857,127.540207 1049.295776,78.550797 
	C1049.302490,74.964272 1048.602905,73.358582 1044.542236,72.895386 
	C1031.218262,71.375549 1020.350586,64.843285 1013.392273,53.536232 
	C1008.982971,46.371246 1006.626038,37.943214 1003.139099,29.578926 
	C908.035706,29.578926 811.660278,29.578926 715.319092,29.578926 
	C714.900269,31.894892 714.556213,33.856888 714.189758,35.814697 
	C710.608215,54.948792 695.997131,69.837593 676.930054,72.603516 
	C671.503296,73.390724 670.789001,75.418839 670.794983,80.109718 
	C670.912354,172.423248 670.882141,264.736969 670.882080,357.050659 
	C670.882080,359.162323 670.882080,361.274017 670.882080,363.320709 
	C697.355225,366.954102 711.759338,381.918518 715.325806,407.698181 
	C811.878967,407.698181 908.286865,407.698181 1004.669006,407.698181 
	C1006.843506,386.005920 1020.465088,366.869843 1049.234497,363.245300 
	C1049.234497,348.388702 1049.234497,333.444366 1049.234131,317.500031 
z"/>
<path fill="#0E0E0C" opacity="1.000000" stroke="none" 
	d="
M243.309341,243.740570 
	C250.483017,254.112595 254.114227,265.410339 255.407532,277.480164 
	C257.160736,293.842224 256.487213,310.050049 251.544907,325.887115 
	C245.480042,345.321289 233.013260,359.186493 214.271286,366.884552 
	C194.786835,374.887634 174.280197,376.712280 153.514511,374.135010 
	C140.018234,372.459991 134.699921,366.533661 133.103546,353.084229 
	C132.477005,347.805634 132.093399,342.465271 132.081390,337.151947 
	C131.992538,297.852844 132.025375,258.553467 132.019974,219.254181 
	C132.019836,218.288483 132.019943,217.322769 132.019943,216.235458 
	C150.119598,216.235458 167.890823,215.716721 185.614075,216.415222 
	C197.721268,216.892380 209.610641,219.454956 220.780609,224.819077 
	C229.870972,229.184509 237.277466,235.297836 243.309341,243.740570 
z"/>
<path fill="#0E0E0C" opacity="1.000000" stroke="none" 
	d="
M205.355103,67.545532 
	C220.336502,75.609924 227.572540,88.807663 230.801651,104.314392 
	C235.179214,125.336067 234.693039,146.330994 228.046249,166.944778 
	C220.691467,189.754333 205.298798,203.510757 181.353943,206.031204 
	C165.203949,207.731140 148.877396,207.753845 132.276947,208.543625 
	C132.160385,205.876343 132.029190,204.266357 132.028625,202.656326 
	C132.016785,169.004395 131.970154,135.352341 132.064804,101.700676 
	C132.082108,95.550941 132.480881,89.383339 133.062012,83.257988 
	C134.376801,69.399460 140.172867,62.312042 153.871689,60.514347 
	C171.373108,58.217636 188.787399,59.102509 205.355103,67.545532 
z"/>
<path fill="#0F0E0C" opacity="1.000000" stroke="none" 
	d="
M1049.234375,318.000061 
	C1049.234497,333.444366 1049.234497,348.388702 1049.234497,363.245300 
	C1020.465088,366.869843 1006.843506,386.005920 1004.669006,407.698181 
	C908.286865,407.698181 811.878967,407.698181 715.325806,407.698181 
	C711.759338,381.918518 697.355225,366.954102 670.882080,363.320709 
	C670.882080,361.274017 670.882080,359.162323 670.882080,357.050659 
	C670.882141,264.736969 670.912354,172.423248 670.794983,80.109718 
	C670.789001,75.418839 671.503296,73.390724 676.930054,72.603516 
	C695.997131,69.837593 710.608215,54.948792 714.189758,35.814697 
	C714.556213,33.856888 714.900269,31.894892 715.319092,29.578926 
	C811.660278,29.578926 908.035706,29.578926 1003.139099,29.578926 
	C1006.626038,37.943214 1008.982971,46.371246 1013.392273,53.536232 
	C1020.350586,64.843285 1031.218262,71.375549 1044.542236,72.895386 
	C1048.602905,73.358582 1049.302490,74.964272 1049.295776,78.550797 
	C1049.203857,127.540207 1049.233887,176.529831 1049.234009,225.519409 
	C1049.234131,256.179626 1049.234131,286.839813 1049.234375,318.000061 
M884.500000,40.959019 
	C830.749695,40.959019 776.999390,40.959019 723.174011,40.959019 
	C722.990295,52.897457 719.288940,62.610279 711.224976,70.472412 
	C703.245667,78.251999 693.424744,81.727264 682.524597,81.785118 
	C682.524597,173.539291 682.524597,264.469757 682.524597,355.873260 
	C694.019043,355.584564 703.657532,359.559692 711.598206,367.378754 
	C719.589355,375.247498 722.823853,385.207031 723.244873,396.234924 
	C814.681458,396.234924 905.718018,396.234924 996.907654,396.234924 
	C997.091797,384.713409 1000.726990,374.967834 1008.785706,367.109833 
	C1016.774231,359.320282 1026.536133,355.727081 1037.753784,355.731018 
	C1037.753784,264.228180 1037.753784,173.278290 1037.753784,82.116035 
	C1012.453125,80.110779 998.745422,66.422798 996.615173,40.959003 
	C959.448853,40.959003 922.474426,40.959003 884.500000,40.959019 
z"/>
<path fill="#B89A46" opacity="1.000000" stroke="none" 
	d="
M885.000000,40.959011 
	C922.474426,40.959003 959.448853,40.959003 996.615173,40.959003 
	C998.745422,66.422798 1012.453125,80.110779 1037.753784,82.116035 
	C1037.753784,173.278290 1037.753784,264.228180 1037.753784,355.731018 
	C1026.536133,355.727081 1016.774231,359.320282 1008.785706,367.109833 
	C1000.726990,374.967834 997.091797,384.713409 996.907654,396.234924 
	C905.718018,396.234924 814.681458,396.234924 723.244873,396.234924 
	C722.823853,385.207031 719.589355,375.247498 711.598206,367.378754 
	C703.657532,359.559692 694.019043,355.584564 682.524597,355.873260 
	C682.524597,264.469757 682.524597,173.539291 682.524597,81.785118 
	C693.424744,81.727264 703.245667,78.251999 711.224976,70.472412 
	C719.288940,62.610279 722.990295,52.897457 723.174011,40.959019 
	C776.999390,40.959019 830.749695,40.959019 885.000000,40.959011 
M877.500000,393.099457 
	C916.250793,393.099457 955.001587,393.099457 993.501099,393.099457 
	C996.946411,368.346924 1011.118286,355.278137 1034.545410,351.929962 
	C1034.545410,262.727753 1034.545410,173.984482 1034.545410,85.242477 
	C1010.244446,82.033844 996.915894,68.153152 993.610413,44.452827 
	C904.408875,44.452827 815.384827,44.452827 726.588989,44.452827 
	C723.244812,68.662384 709.432434,81.872528 685.607239,85.369606 
	C685.607239,87.383423 685.607239,89.190720 685.607239,90.998016 
	C685.607178,154.811722 685.607117,218.625412 685.607178,282.439117 
	C685.607178,304.099121 685.699646,325.759918 685.520935,347.418457 
	C685.489441,351.243713 686.829224,352.188965 690.402954,353.083557 
	C696.118286,354.514221 702.007507,356.409729 706.961182,359.493439 
	C719.031555,367.007233 724.992188,378.630005 726.409485,393.099487 
	C776.615723,393.099487 826.557861,393.099487 877.500000,393.099457 
z"/>
<path fill="#0D0D0B" opacity="0.000000" stroke="none" 
	d="
M877.000000,393.099487 
	C826.557861,393.099487 776.615723,393.099487 726.409485,393.099487 
	C724.992188,378.630005 719.031555,367.007233 706.961182,359.493439 
	C702.007507,356.409729 696.118286,354.514221 690.402954,353.083557 
	C686.829224,352.188965 685.489441,351.243713 685.520935,347.418457 
	C685.699646,325.759918 685.607178,304.099121 685.607178,282.439117 
	C685.607117,218.625412 685.607178,154.811722 685.607239,90.998016 
	C685.607239,89.190720 685.607239,87.383423 685.607239,85.369606 
	C709.432434,81.872528 723.244812,68.662384 726.588989,44.452827 
	C815.384827,44.452827 904.408875,44.452827 993.610413,44.452827 
	C996.915894,68.153152 1010.244446,82.033844 1034.545410,85.242477 
	C1034.545410,173.984482 1034.545410,262.727753 1034.545410,351.929962 
	C1011.118286,355.278137 996.946411,368.346924 993.501099,393.099457 
	C955.001587,393.099457 916.250793,393.099457 877.000000,393.099487 
z"/>
</svg>