<svg version="1.1" id="Layer_1" xmlns="http://www.w3.org/2000/svg" xmlns:xlink="http://www.w3.org/1999/xlink" x="0px" y="0px"
	 width="100%" viewBox="65 40 1810 350" enable-background="new 0 0 1934 434" xml:space="preserve">
<path fill="#000000" opacity="0.000000" stroke="none" 
	d="
M1299.000000,435.000000 
	C866.000000,435.000000 433.500000,435.000000 1.000000,435.000000 
	C1.000000,290.333344 1.000000,145.666672 1.000000,1.000000 
	C645.666687,1.000000 1290.333374,1.000000 1935.000000,1.000000 
	C1935.000000,145.666672 1935.000000,290.333344 1935.000000,435.000000 
	C1723.166626,435.000000 1511.333374,435.000000 1299.000000,435.000000 
M1113.350586,103.148468 
	C1114.539795,102.768593 1115.738037,102.034760 1116.916626,102.065338 
	C1125.664795,102.292320 1134.507568,101.978271 1143.125977,103.203247 
	C1151.244507,104.357178 1158.368042,108.738953 1160.870483,117.073723 
	C1163.859131,127.028183 1165.661621,137.337784 1168.012939,147.485458 
	C1168.433228,149.298737 1168.694336,152.367355 1169.603760,152.598938 
	C1171.589478,153.104614 1173.944824,152.158691 1176.511963,151.747726 
	C1175.763794,149.872879 1175.073242,148.971466 1175.103638,148.095062 
	C1175.606201,133.589355 1175.662842,119.037605 1176.986572,104.603203 
	C1177.703125,96.788628 1177.285889,94.999565 1169.591309,94.999519 
	C1122.780396,94.999237 1075.969604,94.999397 1029.158691,94.999397 
	C1027.287476,94.999397 1025.416260,94.999397 1023.510864,94.999397 
	C1024.043823,104.966110 1024.836792,113.906578 1024.911377,122.853043 
	C1024.985718,131.752213 1024.220947,140.656509 1024.154175,149.561066 
	C1024.145752,150.691711 1026.077759,152.692322 1027.211304,152.767151 
	C1028.749634,152.868698 1031.210083,151.896744 1031.794922,150.676102 
	C1032.799316,148.579437 1032.529907,145.907715 1033.022827,143.524429 
	C1034.783447,135.011749 1035.673462,126.137367 1038.822144,118.161560 
	C1040.712158,113.374252 1045.521118,108.797813 1050.178223,106.231003 
	C1061.561890,99.956627 1074.347168,102.478104 1087.000000,101.952690 
	C1087.000000,104.100220 1087.000000,105.730110 1087.000000,107.360008 
	C1087.000000,135.679764 1087.129150,164.000275 1086.961304,192.319031 
	C1086.812744,217.387390 1086.369263,242.454330 1085.976196,267.520660 
	C1085.871094,274.222839 1080.678223,279.510345 1074.149414,280.000824 
	C1070.572388,280.269501 1066.896362,280.252411 1063.477295,281.162170 
	C1061.745605,281.622864 1060.485352,283.854919 1059.011963,285.286133 
	C1060.606079,286.190613 1062.194824,287.871979 1063.795166,287.883087 
	C1087.949097,288.051117 1112.104492,288.005951 1136.259644,287.988647 
	C1138.328003,287.987183 1141.401123,288.491791 1140.766357,285.275940 
	C1140.439575,283.620178 1137.922729,281.645630 1136.063965,281.200836 
	C1132.291016,280.297913 1128.270020,280.496307 1124.393066,279.946747 
	C1119.803833,279.296173 1116.405396,276.445038 1115.248169,272.193298 
	C1114.097778,267.966583 1114.221924,263.392975 1113.984863,258.056213 
	C1113.989990,208.171707 1114.003540,158.287201 1113.959595,108.402740 
	C1113.958252,106.899063 1113.356567,105.395920 1113.350586,103.148468 
M748.035767,264.852905 
	C748.570984,277.354858 744.538940,280.249695 733.810486,281.143982 
	C732.781921,281.229767 731.159851,283.515381 731.222778,284.705200 
	C731.283386,285.853180 733.159607,287.847290 734.254395,287.858398 
	C753.415405,288.052521 772.579346,288.044281 791.740906,287.880310 
	C792.833801,287.870972 794.798767,286.137146 794.787781,285.224915 
	C794.771484,283.879761 793.526306,282.365387 792.438171,281.295685 
	C791.900574,280.767151 790.500916,281.228485 789.564209,280.973877 
	C784.739014,279.662476 778.670349,280.210999 776.701294,274.085083 
	C775.333618,269.830109 774.154297,265.291107 774.116760,260.868530 
	C773.884338,233.542450 774.246155,206.209457 773.805298,178.888489 
	C773.709839,172.974808 771.994202,166.714371 769.528198,161.294601 
	C765.264893,151.924637 757.382935,146.795792 747.161438,144.404282 
	C737.224548,142.079330 727.845642,143.193756 718.459656,146.222000 
	C705.870789,150.283630 697.693298,159.362625 690.998474,171.603424 
	C690.998474,163.086441 690.869324,155.683319 691.057678,148.288315 
	C691.140991,145.019089 690.033630,143.780884 686.751587,143.962708 
	C678.677551,144.409988 670.595276,144.761978 662.511658,144.969238 
	C656.395935,145.126038 650.273010,145.000290 644.343506,145.000290 
	C643.018738,150.323318 644.012512,153.510162 649.868103,153.491989 
	C651.367065,153.487320 652.875610,154.385941 654.368347,154.902618 
	C663.870911,158.191666 664.597839,166.988953 664.751221,174.490112 
	C665.357300,204.138672 665.049438,233.807068 664.972839,263.467834 
	C664.946777,273.567657 661.300049,278.131378 651.743164,280.629395 
	C650.647400,280.915833 649.471252,280.918060 648.328552,280.996063 
	C645.858521,281.164703 643.848938,281.613434 643.953308,284.886688 
	C644.058044,288.171936 646.169983,288.014313 648.418579,288.008301 
	C656.583618,287.986450 664.748779,287.999603 672.913879,287.999573 
	C684.541199,287.999573 696.168457,287.999573 707.765930,287.999573 
	C708.127441,281.805573 708.127441,281.805573 702.633850,280.992981 
	C694.638672,279.810394 691.005737,275.516693 691.003479,267.200439 
	C690.997131,243.704971 690.960754,220.209335 691.045837,196.714188 
	C691.058167,193.310120 691.211914,189.784912 692.085266,186.526169 
	C696.406128,170.403488 704.395996,157.239777 722.124573,153.474991 
	C730.929077,151.605301 742.708923,153.219177 745.734863,163.703323 
	C747.335205,169.248199 747.407471,175.234131 748.012695,181.943756 
	C748.068420,209.283463 748.124084,236.623184 748.035767,264.852905 
M75.529350,287.999786 
	C97.859764,287.999664 120.191879,288.154633 142.519577,287.908051 
	C149.515823,287.830780 156.598404,287.197754 163.472031,285.912781 
	C186.863129,281.540100 203.250183,269.216522 208.647476,244.847000 
	C212.062897,229.425934 207.916367,216.035583 197.795395,204.383789 
	C189.710678,195.076202 178.669540,190.926239 167.079971,188.016647 
	C164.136322,187.277618 161.140182,186.747528 156.960373,185.867004 
	C158.908279,184.773315 159.546341,184.272049 160.270966,184.029678 
	C170.916138,180.469574 179.986069,174.381622 186.695084,165.513199 
	C193.473923,156.552460 195.701523,146.138733 195.189377,134.732437 
	C194.717117,124.214371 190.339996,115.695824 183.225891,109.007874 
	C173.110107,99.498055 159.994598,95.501999 146.431458,95.180687 
	C120.282852,94.561211 94.109154,95.000168 67.945862,95.000259 
	C66.326218,95.000267 64.706573,95.000259 63.308872,95.000259 
	C62.014027,100.448395 63.687233,102.604813 69.011482,102.107559 
	C71.693901,101.857018 74.921387,101.985168 77.109253,103.281105 
	C79.830612,104.893044 82.672401,107.532806 83.749214,110.377174 
	C85.083679,113.902122 84.948158,118.091316 84.955078,121.994438 
	C85.024818,161.322571 84.992981,200.650879 84.991272,239.979141 
	C84.990898,248.478043 85.077484,256.977875 84.978828,265.475586 
	C84.864204,275.349792 82.914703,277.787323 73.328209,280.187256 
	C71.298561,280.695374 68.955605,280.294037 67.115608,281.115204 
	C65.487717,281.841766 64.359062,283.686981 63.010006,285.038300 
	C64.354126,286.025452 65.586266,287.577759 67.067810,287.871307 
	C69.473068,288.347870 72.041718,287.999756 75.529350,287.999786 
M1233.000244,165.210815 
	C1233.000244,134.507828 1233.000244,103.804832 1233.000244,73.040237 
	C1227.314697,74.048935 1222.416870,75.359009 1217.453491,75.693138 
	C1210.336792,76.172211 1203.172119,75.990059 1196.027954,75.996368 
	C1188.257446,76.003227 1185.573608,74.979607 1187.509766,82.837883 
	C1200.811523,84.346458 1203.525757,86.438377 1206.619141,96.376396 
	C1207.810913,100.205360 1207.961792,104.478264 1207.942871,108.545898 
	C1207.696411,161.124344 1207.213257,213.702026 1207.111572,266.280518 
	C1207.093262,275.760254 1201.570801,280.968353 1191.795410,280.963318 
	C1189.067993,280.961945 1186.828979,280.896942 1186.936890,284.714996 
	C1187.040283,288.370605 1189.394775,288.003143 1191.750977,288.002472 
	C1210.748535,287.997223 1229.745972,288.003845 1248.743530,287.982697 
	C1249.494629,287.981873 1250.245361,287.738525 1250.797852,287.642639 
	C1251.545654,283.315338 1251.137695,280.642395 1245.773438,280.782990 
	C1243.167603,280.851257 1240.198730,279.065887 1237.927734,277.394592 
	C1233.297241,273.986542 1233.084229,268.250824 1233.193726,263.480835 
	C1233.759644,238.829575 1231.280396,214.146317 1234.861572,189.501740 
	C1237.128296,173.901169 1247.181641,156.471893 1265.617310,153.258820 
	C1273.972412,151.802643 1285.525269,153.470612 1288.321777,162.879669 
	C1289.963379,168.403259 1291.765259,174.153610 1291.837158,179.822983 
	C1292.194214,207.981461 1292.052368,236.147064 1291.974121,264.309845 
	C1291.943115,275.463501 1288.173828,279.443756 1277.155884,281.134644 
	C1275.963989,281.317535 1274.053955,283.479736 1274.231567,284.376404 
	C1274.502197,285.743286 1276.185791,287.652832 1277.480225,287.835144 
	C1280.911743,288.318390 1284.456299,287.999542 1287.955811,287.999542 
	C1303.120483,287.999634 1318.286743,287.881165 1333.448730,288.079712 
	C1337.438843,288.131958 1338.833374,286.374451 1337.761963,283.080383 
	C1337.405640,281.984314 1334.659912,281.126312 1332.984619,281.086761 
	C1323.043091,280.852173 1317.865723,275.326141 1317.870728,266.001343 
	C1317.886475,236.418915 1317.687256,206.825851 1316.822754,177.258759 
	C1316.485107,165.709641 1312.342163,155.198868 1301.433228,148.911377 
	C1291.973145,143.458984 1281.983276,142.209869 1271.137573,143.862869 
	C1255.354126,146.268402 1243.990479,154.460770 1235.966553,167.898865 
	C1235.463623,168.741180 1234.663086,169.405930 1233.000244,171.283234 
	C1233.000244,168.589630 1233.000244,167.358078 1233.000244,165.210815 
M810.999329,231.290619 
	C812.655151,238.482956 814.419495,245.652496 815.938538,252.873596 
	C817.724487,261.363281 822.308838,268.350189 828.079407,274.422607 
	C835.616882,282.354370 845.096924,287.006744 855.927368,289.038574 
	C869.609619,291.605438 882.390869,289.831238 893.831848,281.579498 
	C897.467224,278.957520 900.630737,275.681183 904.000610,272.712738 
	C904.000610,276.836212 904.066895,281.439178 903.978760,286.039154 
	C903.913147,289.466400 905.856873,290.128967 908.687988,289.782928 
	C913.525513,289.191589 918.349609,288.259827 923.202271,288.076630 
	C930.857178,287.787659 938.536560,288.152313 946.192505,287.877869 
	C947.822998,287.819397 949.397888,286.207581 950.998413,285.311462 
	C949.406860,283.874481 947.987610,281.487946 946.194336,281.162323 
	C937.747314,279.628815 933.973328,278.430695 931.351074,269.627228 
	C930.297424,266.089935 930.058044,262.204163 930.053345,258.476227 
	C929.977600,198.815948 929.999878,139.155533 929.999207,79.495163 
	C929.999146,78.162010 930.379211,76.652214 929.875427,75.546738 
	C929.397827,74.498589 927.874695,73.072479 927.011292,73.197166 
	C922.400146,73.863029 917.890808,75.327293 913.271973,75.823250 
	C907.082886,76.487801 900.827576,76.693275 894.597351,76.753883 
	C891.112061,76.787781 887.619934,76.130455 884.155273,75.787010 
	C884.155273,78.662857 884.155273,80.638535 884.155273,82.823929 
	C887.229248,83.444946 890.301636,83.727127 893.136475,84.700867 
	C902.160889,87.800720 903.685059,95.601456 903.911987,103.606468 
	C904.251953,115.595566 904.000305,127.601440 904.000305,139.600174 
	C904.000305,145.007660 904.000305,150.415146 904.000305,156.863693 
	C900.713745,154.085785 898.481812,151.707382 895.810120,150.029007 
	C885.993103,143.861923 875.475708,141.997833 863.838074,143.837860 
	C851.075745,145.855728 839.797424,150.734619 830.932129,159.796036 
	C818.157166,172.853622 811.922363,189.135193 811.060364,207.339218 
	C810.698120,214.987946 810.999817,222.668076 810.999329,231.290619 
M507.997223,256.435577 
	C510.324524,260.442261 512.107544,264.914398 515.069885,268.377960 
	C531.031250,287.039856 551.635681,292.908966 575.323120,288.929810 
	C586.639954,287.028748 596.728699,282.262177 605.257996,274.298584 
	C618.973816,261.492462 623.363525,244.703293 624.753784,227.076691 
	C625.819397,213.566208 624.682922,200.144791 621.257751,186.685669 
	C614.377686,159.650604 590.963013,143.680313 564.714783,143.021118 
	C554.069702,142.753784 543.657654,144.675018 534.140747,149.465088 
	C524.428162,154.353638 516.357239,161.439026 511.016357,171.100479 
	C505.475189,181.124344 502.784698,191.861359 501.793671,203.400330 
	C500.251221,221.359650 500.740509,238.826843 507.997223,256.435577 
M298.842560,276.998016 
	C290.580536,275.533325 282.824646,272.452484 277.157104,266.329803 
	C262.617554,250.622589 259.397675,231.043076 260.157288,210.635254 
	C260.479736,201.972626 261.217804,202.000122 270.166626,202.000107 
	C293.820587,202.000031 317.474792,201.944702 341.128174,202.059647 
	C344.656342,202.076797 346.596741,201.320572 345.978638,197.356155 
	C344.931946,190.642853 344.609436,183.743759 342.845459,177.230698 
	C339.410156,164.546631 332.301910,154.268555 320.014008,148.573502 
	C308.050812,143.028931 295.426910,141.556473 282.492615,144.270508 
	C273.257843,146.208237 264.688202,149.744690 257.436829,156.057159 
	C237.083725,173.774979 232.587448,197.745743 232.322464,222.754242 
	C232.209778,233.388229 234.523590,244.301804 239.103226,254.255051 
	C244.148376,265.220062 251.227264,274.589600 261.768311,280.990143 
	C273.966156,288.396698 287.311829,291.120941 301.315704,289.882446 
	C312.277924,288.912994 322.151825,284.598724 330.363464,277.082672 
	C337.615906,270.444550 343.786987,262.990967 346.627106,253.259872 
	C342.389465,249.455353 340.723328,248.078964 337.652069,254.548050 
	C330.161652,270.325348 316.476837,276.424042 298.842560,276.998016 
M1460.041138,266.579010 
	C1461.692993,264.006256 1463.712891,261.594910 1464.925415,258.829559 
	C1468.137085,251.505020 1467.762573,251.009720 1460.156616,250.265900 
	C1453.891724,265.803101 1442.084229,274.920654 1425.664185,276.798431 
	C1409.546875,278.641602 1394.664551,268.019379 1387.039551,250.489624 
	C1384.006958,243.517868 1381.710449,236.309891 1381.800537,228.528931 
	C1381.901855,219.771378 1381.823853,211.011749 1381.823853,201.999985 
	C1384.131836,201.999985 1385.781738,201.999969 1387.431763,201.999969 
	C1411.917236,201.999939 1436.403076,201.924332 1460.887573,202.078018 
	C1464.743652,202.102234 1466.555786,201.159622 1466.021851,197.064255 
	C1465.265503,191.264252 1465.170044,185.329742 1463.892700,179.655197 
	C1460.300171,163.694916 1451.132324,152.349457 1435.370483,146.731827 
	C1424.208984,142.753815 1413.153198,142.284149 1401.435059,144.798126 
	C1386.017700,148.105637 1374.445801,156.424957 1366.073730,169.176270 
	C1356.602051,183.603012 1353.121826,200.055725 1353.171265,217.064346 
	C1353.196655,225.787537 1354.600586,234.575027 1356.104248,243.207565 
	C1357.816772,253.038757 1362.408813,261.763763 1368.897095,269.320465 
	C1378.223755,280.182800 1389.981812,286.715576 1404.231812,289.086945 
	C1414.770142,290.840729 1424.877563,290.229950 1434.942871,286.609344 
	C1445.413574,282.842957 1453.301270,275.918732 1460.041138,266.579010 
M406.977478,330.519043 
	C408.652832,328.332550 410.804443,326.363831 411.921204,323.921875 
	C416.777191,313.303894 421.726227,302.699738 425.911804,291.810120 
	C434.069244,270.586975 441.700043,249.161896 449.619965,227.846832 
	C457.039581,207.878296 464.379395,187.876953 472.117493,168.031662 
	C474.736633,161.314575 477.416595,153.642899 485.031464,151.323120 
	C489.339935,150.010590 489.197815,148.354004 488.727814,145.000168 
	C484.721436,145.000168 480.907074,145.000107 477.092682,145.000183 
	C467.592896,145.000366 458.090546,144.895508 448.596558,145.130722 
	C447.376801,145.160919 446.200775,146.957581 445.004517,147.935959 
	C446.034058,148.949783 446.915955,150.247955 448.141510,150.884323 
	C449.063416,151.363022 450.431793,150.921127 451.591858,151.011551 
	C460.379852,151.696503 466.330872,157.951859 464.900055,165.492142 
	C464.128479,169.558411 462.583344,173.504211 461.135925,177.411285 
	C455.135712,193.608017 449.065094,209.778839 442.968750,225.939728 
	C439.694336,234.619995 436.315430,243.260849 432.496979,253.184296 
	C430.865234,248.574493 429.813690,245.220535 428.504852,241.970184 
	C421.508301,224.594940 414.350067,207.284164 407.451294,189.870438 
	C404.152466,181.543564 400.962128,173.142822 398.345215,164.585159 
	C395.622498,155.681427 399.450897,151.021301 408.701660,151.000153 
	C409.368317,150.998627 410.045593,150.922501 410.699890,151.012375 
	C415.189850,151.629166 416.911713,149.821213 415.608765,145.001099 
	C395.898529,145.001099 376.096313,144.957550 356.295807,145.117157 
	C355.192627,145.126053 354.102936,146.814316 353.006989,147.720932 
	C353.959717,148.812057 354.822174,150.740265 355.880280,150.854370 
	C361.483643,151.458633 365.542450,154.562683 367.885498,159.135818 
	C372.306030,167.763931 376.235931,176.666107 379.948914,185.628693 
	C385.386169,198.753403 390.347168,212.074677 395.703979,225.233688 
	C402.879120,242.859451 410.317566,260.378265 417.446838,278.022217 
	C418.747559,281.241302 420.634094,285.385254 419.637970,288.166718 
	C415.649902,299.302429 411.111603,310.310577 405.797302,320.873077 
	C403.073700,326.286407 398.264160,330.631836 391.088501,330.891235 
	C391.762421,329.645599 392.250946,328.614105 392.851959,327.652954 
	C396.346069,322.065369 396.156921,314.766418 392.388367,310.869415 
	C387.813629,306.138763 378.257477,304.415131 373.090973,307.388763 
	C367.686584,310.499390 364.406189,319.196228 366.040344,326.081238 
	C367.334167,331.532532 374.966095,337.609283 380.731079,338.024902 
	C390.141907,338.703369 398.863190,337.068115 406.977478,330.519043 
M1559.092773,83.938278 
	C1557.160400,84.033195 1555.228027,84.128113 1553.317505,84.221962 
	C1553.317505,165.669052 1553.317505,246.731979 1553.317505,328.020325 
	C1563.691040,327.514160 1572.411011,331.231964 1579.218628,338.211426 
	C1585.944336,345.107086 1589.894165,353.695923 1589.085327,363.651672 
	C1671.045166,363.651672 1752.433350,363.651672 1834.095581,363.651672 
	C1833.014893,353.072937 1837.279907,344.618774 1844.056396,337.649841 
	C1850.906372,330.605591 1860.018555,327.955231 1869.659424,327.776825 
	C1869.659424,246.292389 1869.659424,165.233124 1869.659424,84.067390 
	C1859.317017,84.353233 1850.449951,80.985817 1843.638306,73.907356 
	C1836.940308,66.947136 1833.013428,58.341099 1833.921875,48.344410 
	C1751.966064,48.344410 1670.577881,48.344410 1589.168213,48.344410 
	C1590.322510,65.954102 1575.407349,81.790344 1559.092773,83.938278 
z"/>
<path fill="#F5F0E8" opacity="1.000000" stroke="none" 
	d="
M75.035370,287.999756 
	C72.041718,287.999756 69.473068,288.347870 67.067810,287.871307 
	C65.586266,287.577759 64.354126,286.025452 63.010006,285.038300 
	C64.359062,283.686981 65.487717,281.841766 67.115608,281.115204 
	C68.955605,280.294037 71.298561,280.695374 73.328209,280.187256 
	C82.914703,277.787323 84.864204,275.349792 84.978828,265.475586 
	C85.077484,256.977875 84.990898,248.478043 84.991272,239.979141 
	C84.992981,200.650879 85.024818,161.322571 84.955078,121.994438 
	C84.948158,118.091316 85.083679,113.902122 83.749214,110.377174 
	C82.672401,107.532806 79.830612,104.893044 77.109253,103.281105 
	C74.921387,101.985168 71.693901,101.857018 69.011482,102.107559 
	C63.687233,102.604813 62.014027,100.448395 63.308872,95.000259 
	C64.706573,95.000259 66.326218,95.000267 67.945862,95.000259 
	C94.109154,95.000168 120.282852,94.561211 146.431458,95.180687 
	C159.994598,95.501999 173.110107,99.498055 183.225891,109.007874 
	C190.339996,115.695824 194.717117,124.214371 195.189377,134.732437 
	C195.701523,146.138733 193.473923,156.552460 186.695084,165.513199 
	C179.986069,174.381622 170.916138,180.469574 160.270966,184.029678 
	C159.546341,184.272049 158.908279,184.773315 156.960373,185.867004 
	C161.140182,186.747528 164.136322,187.277618 167.079971,188.016647 
	C178.669540,190.926239 189.710678,195.076202 197.795395,204.383789 
	C207.916367,216.035583 212.062897,229.425934 208.647476,244.847000 
	C203.250183,269.216522 186.863129,281.540100 163.472031,285.912781 
	C156.598404,287.197754 149.515823,287.830780 142.519577,287.908051 
	C120.191879,288.154633 97.859764,287.999664 75.035370,287.999756 
M142.762070,192.973877 
	C132.602829,192.507431 122.443588,192.040970 111.999817,191.561462 
	C111.999817,217.499146 111.732101,242.446426 112.177147,267.380981 
	C112.297089,274.100769 113.926735,278.648285 121.609138,280.004181 
	C134.071564,282.203705 146.232712,281.174103 157.978058,276.460724 
	C166.762100,272.935638 172.793671,266.736511 176.683517,257.917786 
	C181.141678,247.810654 181.788605,237.277084 180.743256,226.753006 
	C180.162460,220.905869 177.891739,214.817642 174.904388,209.701187 
	C168.075363,198.005157 156.931976,193.272736 142.762070,192.973877 
M128.698868,101.999748 
	C123.460197,103.308372 116.734673,101.624084 114.178391,108.471420 
	C112.969246,111.710281 112.126793,115.293297 112.093597,118.729797 
	C111.899010,138.879471 112.000320,159.031952 111.976219,179.183456 
	C111.973991,181.047043 111.792236,182.910400 111.657562,185.460953 
	C120.600510,184.973129 129.487610,184.608429 138.355865,183.978287 
	C154.247482,182.849091 162.383743,172.886826 166.022308,158.203995 
	C168.495758,148.222809 168.024933,138.032837 166.776245,128.062546 
	C165.664810,119.188179 161.346115,111.497147 153.191162,106.691635 
	C145.891510,102.390121 137.770355,102.140564 128.698868,101.999748 
z"/>
<path fill="#F5F0E8" opacity="1.000000" stroke="none" 
	d="
M1233.000244,165.668671 
	C1233.000244,167.358078 1233.000244,168.589630 1233.000244,171.283234 
	C1234.663086,169.405930 1235.463623,168.741180 1235.966553,167.898865 
	C1243.990479,154.460770 1255.354126,146.268402 1271.137573,143.862869 
	C1281.983276,142.209869 1291.973145,143.458984 1301.433228,148.911377 
	C1312.342163,155.198868 1316.485107,165.709641 1316.822754,177.258759 
	C1317.687256,206.825851 1317.886475,236.418915 1317.870728,266.001343 
	C1317.865723,275.326141 1323.043091,280.852173 1332.984619,281.086761 
	C1334.659912,281.126312 1337.405640,281.984314 1337.761963,283.080383 
	C1338.833374,286.374451 1337.438843,288.131958 1333.448730,288.079712 
	C1318.286743,287.881165 1303.120483,287.999634 1287.955811,287.999542 
	C1284.456299,287.999542 1280.911743,288.318390 1277.480225,287.835144 
	C1276.185791,287.652832 1274.502197,285.743286 1274.231567,284.376404 
	C1274.053955,283.479736 1275.963989,281.317535 1277.155884,281.134644 
	C1288.173828,279.443756 1291.943115,275.463501 1291.974121,264.309845 
	C1292.052368,236.147064 1292.194214,207.981461 1291.837158,179.822983 
	C1291.765259,174.153610 1289.963379,168.403259 1288.321777,162.879669 
	C1285.525269,153.470612 1273.972412,151.802643 1265.617310,153.258820 
	C1247.181641,156.471893 1237.128296,173.901169 1234.861572,189.501740 
	C1231.280396,214.146317 1233.759644,238.829575 1233.193726,263.480835 
	C1233.084229,268.250824 1233.297241,273.986542 1237.927734,277.394592 
	C1240.198730,279.065887 1243.167603,280.851257 1245.773438,280.782990 
	C1251.137695,280.642395 1251.545654,283.315338 1250.797852,287.642639 
	C1250.245361,287.738525 1249.494629,287.981873 1248.743530,287.982697 
	C1229.745972,288.003845 1210.748535,287.997223 1191.750977,288.002472 
	C1189.394775,288.003143 1187.040283,288.370605 1186.936890,284.714996 
	C1186.828979,280.896942 1189.067993,280.961945 1191.795410,280.963318 
	C1201.570801,280.968353 1207.093262,275.760254 1207.111572,266.280518 
	C1207.213257,213.702026 1207.696411,161.124344 1207.942871,108.545898 
	C1207.961792,104.478264 1207.810913,100.205360 1206.619141,96.376396 
	C1203.525757,86.438377 1200.811523,84.346458 1187.509766,82.837883 
	C1185.573608,74.979607 1188.257446,76.003227 1196.027954,75.996368 
	C1203.172119,75.990059 1210.336792,76.172211 1217.453491,75.693138 
	C1222.416870,75.359009 1227.314697,74.048935 1233.000244,73.040237 
	C1233.000244,103.804832 1233.000244,134.507828 1233.000244,165.668671 
z"/>
<path fill="#F5F0E8" opacity="1.000000" stroke="none" 
	d="
M810.999512,230.812286 
	C810.999817,222.668076 810.698120,214.987946 811.060364,207.339218 
	C811.922363,189.135193 818.157166,172.853622 830.932129,159.796036 
	C839.797424,150.734619 851.075745,145.855728 863.838074,143.837860 
	C875.475708,141.997833 885.993103,143.861923 895.810120,150.029007 
	C898.481812,151.707382 900.713745,154.085785 904.000305,156.863693 
	C904.000305,150.415146 904.000305,145.007660 904.000305,139.600174 
	C904.000305,127.601440 904.251953,115.595566 903.911987,103.606468 
	C903.685059,95.601456 902.160889,87.800720 893.136475,84.700867 
	C890.301636,83.727127 887.229248,83.444946 884.155273,82.823929 
	C884.155273,80.638535 884.155273,78.662857 884.155273,75.787010 
	C887.619934,76.130455 891.112061,76.787781 894.597351,76.753883 
	C900.827576,76.693275 907.082886,76.487801 913.271973,75.823250 
	C917.890808,75.327293 922.400146,73.863029 927.011292,73.197166 
	C927.874695,73.072479 929.397827,74.498589 929.875427,75.546738 
	C930.379211,76.652214 929.999146,78.162010 929.999207,79.495163 
	C929.999878,139.155533 929.977600,198.815948 930.053345,258.476227 
	C930.058044,262.204163 930.297424,266.089935 931.351074,269.627228 
	C933.973328,278.430695 937.747314,279.628815 946.194336,281.162323 
	C947.987610,281.487946 949.406860,283.874481 950.998413,285.311462 
	C949.397888,286.207581 947.822998,287.819397 946.192505,287.877869 
	C938.536560,288.152313 930.857178,287.787659 923.202271,288.076630 
	C918.349609,288.259827 913.525513,289.191589 908.687988,289.782928 
	C905.856873,290.128967 903.913147,289.466400 903.978760,286.039154 
	C904.066895,281.439178 904.000610,276.836212 904.000610,272.712738 
	C900.630737,275.681183 897.467224,278.957520 893.831848,281.579498 
	C882.390869,289.831238 869.609619,291.605438 855.927368,289.038574 
	C845.096924,287.006744 835.616882,282.354370 828.079407,274.422607 
	C822.308838,268.350189 817.724487,261.363281 815.938538,252.873596 
	C814.419495,245.652496 812.655151,238.482956 810.999512,230.812286 
M904.000305,186.504379 
	C903.606628,178.958771 904.804871,171.481918 900.789124,164.110550 
	C892.286804,148.503342 867.859253,145.878326 855.872986,157.444870 
	C844.202515,168.706741 840.650513,183.076294 839.152893,198.181412 
	C838.305725,206.726608 839.229858,215.432220 838.950684,224.052460 
	C838.517212,237.436081 841.120483,250.014084 846.490112,262.346863 
	C853.316223,278.024750 874.177307,285.447357 888.744934,275.743927 
	C898.866150,269.002228 903.822632,259.376282 903.944641,247.422836 
	C904.148315,227.451355 904.000305,207.476273 904.000305,186.504379 
z"/>
<path fill="#F5F0E8" opacity="1.000000" stroke="none" 
	d="
M748.169678,181.020935 
	C747.407471,175.234131 747.335205,169.248199 745.734863,163.703323 
	C742.708923,153.219177 730.929077,151.605301 722.124573,153.474991 
	C704.395996,157.239777 696.406128,170.403488 692.085266,186.526169 
	C691.211914,189.784912 691.058167,193.310120 691.045837,196.714188 
	C690.960754,220.209335 690.997131,243.704971 691.003479,267.200439 
	C691.005737,275.516693 694.638672,279.810394 702.633850,280.992981 
	C708.127441,281.805573 708.127441,281.805573 707.765930,287.999573 
	C696.168457,287.999573 684.541199,287.999573 672.913879,287.999573 
	C664.748779,287.999603 656.583618,287.986450 648.418579,288.008301 
	C646.169983,288.014313 644.058044,288.171936 643.953308,284.886688 
	C643.848938,281.613434 645.858521,281.164703 648.328552,280.996063 
	C649.471252,280.918060 650.647400,280.915833 651.743164,280.629395 
	C661.300049,278.131378 664.946777,273.567657 664.972839,263.467834 
	C665.049438,233.807068 665.357300,204.138672 664.751221,174.490112 
	C664.597839,166.988953 663.870911,158.191666 654.368347,154.902618 
	C652.875610,154.385941 651.367065,153.487320 649.868103,153.491989 
	C644.012512,153.510162 643.018738,150.323318 644.343506,145.000290 
	C650.273010,145.000290 656.395935,145.126038 662.511658,144.969238 
	C670.595276,144.761978 678.677551,144.409988 686.751587,143.962708 
	C690.033630,143.780884 691.140991,145.019089 691.057678,148.288315 
	C690.869324,155.683319 690.998474,163.086441 690.998474,171.603424 
	C697.693298,159.362625 705.870789,150.283630 718.459656,146.222000 
	C727.845642,143.193756 737.224548,142.079330 747.161438,144.404282 
	C757.382935,146.795792 765.264893,151.924637 769.528198,161.294601 
	C771.994202,166.714371 773.709839,172.974808 773.805298,178.888489 
	C774.246155,206.209457 773.884338,233.542450 774.116760,260.868530 
	C774.154297,265.291107 775.333618,269.830109 776.701294,274.085083 
	C778.670349,280.210999 784.739014,279.662476 789.564209,280.973877 
	C790.500916,281.228485 791.900574,280.767151 792.438171,281.295685 
	C793.526306,282.365387 794.771484,283.879761 794.787781,285.224915 
	C794.798767,286.137146 792.833801,287.870972 791.740906,287.880310 
	C772.579346,288.044281 753.415405,288.052521 734.254395,287.858398 
	C733.159607,287.847290 731.283386,285.853180 731.222778,284.705200 
	C731.159851,283.515381 732.781921,281.229767 733.810486,281.143982 
	C744.538940,280.249695 748.570984,277.354858 748.354858,264.080353 
	C748.780762,262.659088 748.980469,262.010468 748.980957,261.361725 
	C748.998535,235.837006 749.009766,210.312256 748.964539,184.787613 
	C748.962280,183.531586 748.446350,182.276474 748.169678,181.020935 
z"/>
<path fill="#F5F0E8" opacity="1.000000" stroke="none" 
	d="
M1113.787109,258.971497 
	C1114.221924,263.392975 1114.097778,267.966583 1115.248169,272.193298 
	C1116.405396,276.445038 1119.803833,279.296173 1124.393066,279.946747 
	C1128.270020,280.496307 1132.291016,280.297913 1136.063965,281.200836 
	C1137.922729,281.645630 1140.439575,283.620178 1140.766357,285.275940 
	C1141.401123,288.491791 1138.328003,287.987183 1136.259644,287.988647 
	C1112.104492,288.005951 1087.949097,288.051117 1063.795166,287.883087 
	C1062.194824,287.871979 1060.606079,286.190613 1059.011963,285.286133 
	C1060.485352,283.854919 1061.745605,281.622864 1063.477295,281.162170 
	C1066.896362,280.252411 1070.572388,280.269501 1074.149414,280.000824 
	C1080.678223,279.510345 1085.871094,274.222839 1085.976196,267.520660 
	C1086.369263,242.454330 1086.812744,217.387390 1086.961304,192.319031 
	C1087.129150,164.000275 1087.000000,135.679764 1087.000000,107.360008 
	C1087.000000,105.730110 1087.000000,104.100220 1087.000000,101.952690 
	C1074.347168,102.478104 1061.561890,99.956627 1050.178223,106.231003 
	C1045.521118,108.797813 1040.712158,113.374252 1038.822144,118.161560 
	C1035.673462,126.137367 1034.783447,135.011749 1033.022827,143.524429 
	C1032.529907,145.907715 1032.799316,148.579437 1031.794922,150.676102 
	C1031.210083,151.896744 1028.749634,152.868698 1027.211304,152.767151 
	C1026.077759,152.692322 1024.145752,150.691711 1024.154175,149.561066 
	C1024.220947,140.656509 1024.985718,131.752213 1024.911377,122.853043 
	C1024.836792,113.906578 1024.043823,104.966110 1023.510864,94.999397 
	C1025.416260,94.999397 1027.287476,94.999397 1029.158691,94.999397 
	C1075.969604,94.999397 1122.780396,94.999237 1169.591309,94.999519 
	C1177.285889,94.999565 1177.703125,96.788628 1176.986572,104.603203 
	C1175.662842,119.037605 1175.606201,133.589355 1175.103638,148.095062 
	C1175.073242,148.971466 1175.763794,149.872879 1176.511963,151.747726 
	C1173.944824,152.158691 1171.589478,153.104614 1169.603760,152.598938 
	C1168.694336,152.367355 1168.433228,149.298737 1168.012939,147.485458 
	C1165.661621,137.337784 1163.859131,127.028183 1160.870483,117.073723 
	C1158.368042,108.738953 1151.244507,104.357178 1143.125977,103.203247 
	C1134.507568,101.978271 1125.664795,102.292320 1116.916626,102.065338 
	C1115.738037,102.034760 1114.539795,102.768593 1113.182861,103.995895 
	C1113.010132,154.618729 1112.997559,204.394150 1113.033081,254.169510 
	C1113.034302,255.770355 1113.524780,257.370850 1113.787109,258.971497 
z"/>
<path fill="#F5F0E8" opacity="1.000000" stroke="none" 
	d="
M507.976196,256.035889 
	C500.740509,238.826843 500.251221,221.359650 501.793671,203.400330 
	C502.784698,191.861359 505.475189,181.124344 511.016357,171.100479 
	C516.357239,161.439026 524.428162,154.353638 534.140747,149.465088 
	C543.657654,144.675018 554.069702,142.753784 564.714783,143.021118 
	C590.963013,143.680313 614.377686,159.650604 621.257751,186.685669 
	C624.682922,200.144791 625.819397,213.566208 624.753784,227.076691 
	C623.363525,244.703293 618.973816,261.492462 605.257996,274.298584 
	C596.728699,282.262177 586.639954,287.028748 575.323120,288.929810 
	C551.635681,292.908966 531.031250,287.039856 515.069885,268.377960 
	C512.107544,264.914398 510.324524,260.442261 507.976196,256.035889 
M534.908691,172.574615 
	C533.610840,176.846817 531.654846,181.041077 531.138000,185.405762 
	C529.550537,198.811157 526.660645,212.150314 528.932922,225.823608 
	C530.580933,235.739761 530.926636,245.924118 533.220642,255.666870 
	C535.617676,265.847046 540.750854,274.752747 550.597351,280.118469 
	C560.673767,285.609406 577.032166,282.029633 584.202148,272.737610 
	C592.985229,261.355103 595.371704,247.993027 596.646606,234.728943 
	C597.919617,221.484177 596.788818,207.933334 595.865540,194.575165 
	C595.063843,182.975632 592.141235,171.884857 585.068176,162.100021 
	C576.901245,150.801987 563.684998,147.036270 551.294739,152.984253 
	C543.240662,156.850586 538.753235,164.045746 534.908691,172.574615 
z"/>
<path fill="#F5F0E8" opacity="1.000000" stroke="none" 
	d="
M299.292725,276.999146 
	C316.476837,276.424042 330.161652,270.325348 337.652069,254.548050 
	C340.723328,248.078964 342.389465,249.455353 346.627106,253.259872 
	C343.786987,262.990967 337.615906,270.444550 330.363464,277.082672 
	C322.151825,284.598724 312.277924,288.912994 301.315704,289.882446 
	C287.311829,291.120941 273.966156,288.396698 261.768311,280.990143 
	C251.227264,274.589600 244.148376,265.220062 239.103226,254.255051 
	C234.523590,244.301804 232.209778,233.388229 232.322464,222.754242 
	C232.587448,197.745743 237.083725,173.774979 257.436829,156.057159 
	C264.688202,149.744690 273.257843,146.208237 282.492615,144.270508 
	C295.426910,141.556473 308.050812,143.028931 320.014008,148.573502 
	C332.301910,154.268555 339.410156,164.546631 342.845459,177.230698 
	C344.609436,183.743759 344.931946,190.642853 345.978638,197.356155 
	C346.596741,201.320572 344.656342,202.076797 341.128174,202.059647 
	C317.474792,201.944702 293.820587,202.000031 270.166626,202.000107 
	C261.217804,202.000122 260.479736,201.972626 260.157288,210.635254 
	C259.397675,231.043076 262.617554,250.622589 277.157104,266.329803 
	C282.824646,272.452484 290.580536,275.533325 299.292725,276.999146 
M314.968201,168.794540 
	C314.645660,168.059052 314.291840,167.335556 314.005219,166.586334 
	C307.614258,149.878876 294.322876,146.401947 281.689972,153.488907 
	C276.119965,156.613632 271.148987,162.541290 268.303802,168.367355 
	C264.373230,176.416031 262.708649,185.571289 259.846680,195.000137 
	C264.472565,195.000137 267.775116,195.000122 271.077698,195.000137 
	C285.568268,195.000168 300.059814,195.074234 314.548004,194.888672 
	C316.039001,194.869568 318.868378,193.120773 318.783447,192.477280 
	C317.773529,184.825806 316.328094,177.231796 314.968201,168.794540 
z"/>
<path fill="#F5F0E8" opacity="1.000000" stroke="none" 
	d="
M1460.004761,266.948059 
	C1453.301270,275.918732 1445.413574,282.842957 1434.942871,286.609344 
	C1424.877563,290.229950 1414.770142,290.840729 1404.231812,289.086945 
	C1389.981812,286.715576 1378.223755,280.182800 1368.897095,269.320465 
	C1362.408813,261.763763 1357.816772,253.038757 1356.104248,243.207565 
	C1354.600586,234.575027 1353.196655,225.787537 1353.171265,217.064346 
	C1353.121826,200.055725 1356.602051,183.603012 1366.073730,169.176270 
	C1374.445801,156.424957 1386.017700,148.105637 1401.435059,144.798126 
	C1413.153198,142.284149 1424.208984,142.753815 1435.370483,146.731827 
	C1451.132324,152.349457 1460.300171,163.694916 1463.892700,179.655197 
	C1465.170044,185.329742 1465.265503,191.264252 1466.021851,197.064255 
	C1466.555786,201.159622 1464.743652,202.102234 1460.887573,202.078018 
	C1436.403076,201.924332 1411.917236,201.999939 1387.431763,201.999969 
	C1385.781738,201.999969 1384.131836,201.999985 1381.823853,201.999985 
	C1381.823853,211.011749 1381.901855,219.771378 1381.800537,228.528931 
	C1381.710449,236.309891 1384.006958,243.517868 1387.039551,250.489624 
	C1394.664551,268.019379 1409.546875,278.641602 1425.664185,276.798431 
	C1442.084229,274.920654 1453.891724,265.803101 1460.156616,250.265900 
	C1467.762573,251.009720 1468.137085,251.505020 1464.925415,258.829559 
	C1463.712891,261.594910 1461.692993,264.006256 1460.004761,266.948059 
M1406.868530,151.000900 
	C1390.998047,158.280685 1380.113281,177.764816 1382.496460,194.791779 
	C1401.193604,194.791779 1419.908569,194.791779 1439.922119,194.791779 
	C1438.568359,187.124542 1437.284668,179.864243 1436.004883,172.603256 
	C1433.185547,156.609787 1423.457031,149.178131 1406.868530,151.000900 
z"/>
<path fill="#F5F0E8" opacity="1.000000" stroke="none" 
	d="
M406.678650,330.739807 
	C398.863190,337.068115 390.141907,338.703369 380.731079,338.024902 
	C374.966095,337.609283 367.334167,331.532532 366.040344,326.081238 
	C364.406189,319.196228 367.686584,310.499390 373.090973,307.388763 
	C378.257477,304.415131 387.813629,306.138763 392.388367,310.869415 
	C396.156921,314.766418 396.346069,322.065369 392.851959,327.652954 
	C392.250946,328.614105 391.762421,329.645599 391.088501,330.891235 
	C398.264160,330.631836 403.073700,326.286407 405.797302,320.873077 
	C411.111603,310.310577 415.649902,299.302429 419.637970,288.166718 
	C420.634094,285.385254 418.747559,281.241302 417.446838,278.022217 
	C410.317566,260.378265 402.879120,242.859451 395.703979,225.233688 
	C390.347168,212.074677 385.386169,198.753403 379.948914,185.628693 
	C376.235931,176.666107 372.306030,167.763931 367.885498,159.135818 
	C365.542450,154.562683 361.483643,151.458633 355.880280,150.854370 
	C354.822174,150.740265 353.959717,148.812057 353.006989,147.720932 
	C354.102936,146.814316 355.192627,145.126053 356.295807,145.117157 
	C376.096313,144.957550 395.898529,145.001099 415.608765,145.001099 
	C416.911713,149.821213 415.189850,151.629166 410.699890,151.012375 
	C410.045593,150.922501 409.368317,150.998627 408.701660,151.000153 
	C399.450897,151.021301 395.622498,155.681427 398.345215,164.585159 
	C400.962128,173.142822 404.152466,181.543564 407.451294,189.870438 
	C414.350067,207.284164 421.508301,224.594940 428.504852,241.970184 
	C429.813690,245.220535 430.865234,248.574493 432.496979,253.184296 
	C436.315430,243.260849 439.694336,234.619995 442.968750,225.939728 
	C449.065094,209.778839 455.135712,193.608017 461.135925,177.411285 
	C462.583344,173.504211 464.128479,169.558411 464.900055,165.492142 
	C466.330872,157.951859 460.379852,151.696503 451.591858,151.011551 
	C450.431793,150.921127 449.063416,151.363022 448.141510,150.884323 
	C446.915955,150.247955 446.034058,148.949783 445.004517,147.935944 
	C446.200775,146.957581 447.376801,145.160919 448.596558,145.130722 
	C458.090546,144.895508 467.592896,145.000366 477.092682,145.000183 
	C480.907074,145.000107 484.721436,145.000168 488.727814,145.000168 
	C489.197815,148.354004 489.339935,150.010590 485.031464,151.323120 
	C477.416595,153.642899 474.736633,161.314575 472.117493,168.031662 
	C464.379395,187.876953 457.039581,207.878296 449.619965,227.846832 
	C441.700043,249.161896 434.069244,270.586975 425.911804,291.810120 
	C421.726227,302.699738 416.777191,313.303894 411.921204,323.921875 
	C410.804443,326.363831 408.652832,328.332550 406.678650,330.739807 
z"/>
<path fill="#C9A84C" opacity="1.000000" stroke="none" 
	d="
M1559.499268,83.763077 
	C1575.407349,81.790344 1590.322510,65.954102 1589.168213,48.344410 
	C1670.577881,48.344410 1751.966064,48.344410 1833.921875,48.344410 
	C1833.013428,58.341099 1836.940308,66.947136 1843.638306,73.907356 
	C1850.449951,80.985817 1859.317017,84.353233 1869.659424,84.067390 
	C1869.659424,165.233124 1869.659424,246.292389 1869.659424,327.776825 
	C1860.018555,327.955231 1850.906372,330.605591 1844.056396,337.649841 
	C1837.279907,344.618774 1833.014893,353.072937 1834.095581,363.651672 
	C1752.433350,363.651672 1671.045166,363.651672 1589.085327,363.651672 
	C1589.894165,353.695923 1585.944336,345.107086 1579.218628,338.211426 
	C1572.411011,331.231964 1563.691040,327.514160 1553.317505,328.020325 
	C1553.317505,246.731979 1553.317505,165.669052 1553.317505,84.221962 
	C1555.228027,84.128113 1557.160400,84.033195 1559.499268,83.763077 
M1644.500000,50.999687 
	C1627.521362,50.999687 1610.542847,50.999687 1593.180786,50.999687 
	C1590.208130,72.185661 1578.018188,84.290398 1557.221924,87.479279 
	C1557.221924,166.722168 1557.221924,245.650162 1557.221924,324.769012 
	C1567.145752,325.196381 1575.516357,329.190704 1582.187500,335.924957 
	C1588.864380,342.665222 1591.785767,351.559479 1593.152710,360.690521 
	C1672.362061,360.690521 1751.094360,360.690521 1829.800537,360.690521 
	C1831.415527,340.933960 1845.449219,326.880463 1865.758545,324.612579 
	C1865.758545,245.570847 1865.758545,166.501984 1865.758545,87.458961 
	C1847.703857,84.607773 1834.175781,76.028427 1829.333252,50.999687 
	C1768.092163,50.999687 1706.796143,50.999687 1644.500000,50.999687 
z"/>
<path fill="#F5F0E8" opacity="1.000000" stroke="none" 
	d="
M1113.885986,258.513855 
	C1113.524780,257.370850 1113.034302,255.770355 1113.033081,254.169510 
	C1112.997559,204.394150 1113.010132,154.618729 1113.025024,104.367920 
	C1113.356567,105.395920 1113.958252,106.899063 1113.959595,108.402740 
	C1114.003540,158.287201 1113.989990,208.171707 1113.885986,258.513855 
z"/>
<path fill="#FFFFE6" opacity="1.000000" stroke="none" 
	d="
M748.091187,181.482346 
	C748.446350,182.276474 748.962280,183.531586 748.964539,184.787613 
	C749.009766,210.312256 748.998535,235.837006 748.980957,261.361725 
	C748.980469,262.010468 748.780762,262.659088 748.426880,263.635345 
	C748.124084,236.623184 748.068420,209.283463 748.091187,181.482346 
z"/>
<path fill="#000000" opacity="0.000000" stroke="none" 
	d="
M143.225830,192.980621 
	C156.931976,193.272736 168.075363,198.005157 174.904388,209.701187 
	C177.891739,214.817642 180.162460,220.905869 180.743256,226.753006 
	C181.788605,237.277084 181.141678,247.810654 176.683517,257.917786 
	C172.793671,266.736511 166.762100,272.935638 157.978058,276.460724 
	C146.232712,281.174103 134.071564,282.203705 121.609138,280.004181 
	C113.926735,278.648285 112.297089,274.100769 112.177147,267.380981 
	C111.732101,242.446426 111.999817,217.499146 111.999817,191.561462 
	C122.443588,192.040970 132.602829,192.507431 143.225830,192.980621 
z"/>
<path fill="#000000" opacity="0.000000" stroke="none" 
	d="
M129.166504,102.000603 
	C137.770355,102.140564 145.891510,102.390121 153.191162,106.691635 
	C161.346115,111.497147 165.664810,119.188179 166.776245,128.062546 
	C168.024933,138.032837 168.495758,148.222809 166.022308,158.203995 
	C162.383743,172.886826 154.247482,182.849091 138.355865,183.978287 
	C129.487610,184.608429 120.600510,184.973129 111.657562,185.460953 
	C111.792236,182.910400 111.973991,181.047043 111.976219,179.183456 
	C112.000320,159.031952 111.899010,138.879471 112.093597,118.729797 
	C112.126793,115.293297 112.969246,111.710281 114.178391,108.471420 
	C116.734673,101.624084 123.460197,103.308372 129.166504,102.000603 
z"/>
<path fill="#000000" opacity="0.000000" stroke="none" 
	d="
M904.000305,187.003540 
	C904.000305,207.476273 904.148315,227.451355 903.944641,247.422836 
	C903.822632,259.376282 898.866150,269.002228 888.744934,275.743927 
	C874.177307,285.447357 853.316223,278.024750 846.490112,262.346863 
	C841.120483,250.014084 838.517212,237.436081 838.950684,224.052460 
	C839.229858,215.432220 838.305725,206.726608 839.152893,198.181412 
	C840.650513,183.076294 844.202515,168.706741 855.872986,157.444870 
	C867.859253,145.878326 892.286804,148.503342 900.789124,164.110550 
	C904.804871,171.481918 903.606628,178.958771 904.000305,187.003540 
z"/>
<path fill="#000000" opacity="0.000000" stroke="none" 
	d="
M534.966309,172.178024 
	C538.753235,164.045746 543.240662,156.850586 551.294739,152.984253 
	C563.684998,147.036270 576.901245,150.801987 585.068176,162.100021 
	C592.141235,171.884857 595.063843,182.975632 595.865540,194.575165 
	C596.788818,207.933334 597.919617,221.484177 596.646606,234.728943 
	C595.371704,247.993027 592.985229,261.355103 584.202148,272.737610 
	C577.032166,282.029633 560.673767,285.609406 550.597351,280.118469 
	C540.750854,274.752747 535.617676,265.847046 533.220642,255.666870 
	C530.926636,245.924118 530.580933,235.739761 528.932922,225.823608 
	C526.660645,212.150314 529.550537,198.811157 531.138000,185.405762 
	C531.654846,181.041077 533.610840,176.846817 534.966309,172.178024 
z"/>
<path fill="#000000" opacity="0.000000" stroke="none" 
	d="
M314.982544,169.208633 
	C316.328094,177.231796 317.773529,184.825806 318.783447,192.477280 
	C318.868378,193.120773 316.039001,194.869568 314.548004,194.888672 
	C300.059814,195.074234 285.568268,195.000168 271.077698,195.000137 
	C267.775116,195.000122 264.472565,195.000137 259.846680,195.000137 
	C262.708649,185.571289 264.373230,176.416031 268.303802,168.367355 
	C271.148987,162.541290 276.119965,156.613632 281.689972,153.488907 
	C294.322876,146.401947 307.614258,149.878876 314.005219,166.586334 
	C314.291840,167.335556 314.645660,168.059052 314.982544,169.208633 
z"/>
<path fill="#000000" opacity="0.000000" stroke="none" 
	d="
M1407.294434,151.000153 
	C1423.457031,149.178131 1433.185547,156.609787 1436.004883,172.603256 
	C1437.284668,179.864243 1438.568359,187.124542 1439.922119,194.791779 
	C1419.908569,194.791779 1401.193604,194.791779 1382.496460,194.791779 
	C1380.113281,177.764816 1390.998047,158.280685 1407.294434,151.000153 
z"/>
<path fill="#000000" opacity="0.000000" stroke="none" 
	d="
M1645.000000,50.999687 
	C1706.796143,50.999687 1768.092163,50.999687 1829.333252,50.999687 
	C1834.175781,76.028427 1847.703857,84.607773 1865.758545,87.458961 
	C1865.758545,166.501984 1865.758545,245.570847 1865.758545,324.612579 
	C1845.449219,326.880463 1831.415527,340.933960 1829.800537,360.690521 
	C1751.094360,360.690521 1672.362061,360.690521 1593.152710,360.690521 
	C1591.785767,351.559479 1588.864380,342.665222 1582.187500,335.924957 
	C1575.516357,329.190704 1567.145752,325.196381 1557.221924,324.769012 
	C1557.221924,245.650162 1557.221924,166.722168 1557.221924,87.479279 
	C1578.018188,84.290398 1590.208130,72.185661 1593.180786,50.999687 
	C1610.542847,50.999687 1627.521362,50.999687 1645.000000,50.999687 
M1619.500122,60.000404 
	C1612.855957,60.000404 1606.211914,60.000404 1599.622803,60.000404 
	C1595.626953,84.479897 1582.998779,92.399017 1565.241821,93.457664 
	C1565.241821,168.491943 1565.241821,243.539078 1565.241821,318.680511 
	C1586.618896,319.592468 1596.945068,331.729462 1599.079224,351.700012 
	C1674.358643,351.700012 1749.092041,351.700012 1823.791992,351.700012 
	C1825.598022,335.078888 1833.029297,319.975037 1857.745361,318.522552 
	C1857.745361,243.488647 1857.745361,168.443756 1857.745361,93.069588 
	C1848.186279,93.644501 1840.146240,90.404617 1833.575806,83.981529 
	C1827.001587,77.554634 1824.677490,69.084778 1823.684937,60.000404 
	C1755.739624,60.000404 1688.119751,60.000404 1619.500122,60.000404 
z"/>
<path fill="#C9A84C" opacity="1.000000" stroke="none" 
	d="
M1620.000000,60.000404 
	C1688.119751,60.000404 1755.739624,60.000404 1823.684937,60.000404 
	C1824.677490,69.084778 1827.001587,77.554634 1833.575806,83.981529 
	C1840.146240,90.404617 1848.186279,93.644501 1857.745361,93.069588 
	C1857.745361,168.443756 1857.745361,243.488647 1857.745361,318.522552 
	C1833.029297,319.975037 1825.598022,335.078888 1823.791992,351.700012 
	C1749.092041,351.700012 1674.358643,351.700012 1599.079224,351.700012 
	C1596.945068,331.729462 1586.618896,319.592468 1565.241821,318.680511 
	C1565.241821,243.539078 1565.241821,168.491943 1565.241821,93.457664 
	C1582.998779,92.399017 1595.626953,84.479897 1599.622803,60.000404 
	C1606.211914,60.000404 1612.855957,60.000404 1620.000000,60.000404 
M1569.000122,288.500000 
	C1569.000122,295.830994 1569.169800,303.167603 1568.928711,310.490662 
	C1568.807251,314.178955 1570.015747,315.416901 1573.743774,316.158417 
	C1581.843384,317.769501 1589.521240,321.015717 1593.970093,328.464294 
	C1597.716675,334.737122 1600.512329,341.577942 1603.982788,348.686951 
	C1675.364258,348.686951 1748.096558,348.686951 1820.815674,348.686951 
	C1821.440918,332.562195 1833.670654,318.293884 1850.184204,315.999146 
	C1852.831421,315.631256 1854.064819,314.527039 1854.061401,311.534882 
	C1853.981689,241.223495 1853.981201,170.911987 1854.058594,100.600609 
	C1854.062134,97.377228 1852.631226,96.578163 1849.843140,95.901878 
	C1845.956665,94.959145 1842.012573,93.735939 1838.499390,91.868629 
	C1827.152832,85.838013 1822.312988,75.481155 1820.632080,63.266594 
	C1747.713013,63.266594 1674.970337,63.266594 1602.262451,63.266594 
	C1599.798096,82.482620 1589.819214,91.825539 1574.167969,95.778778 
	C1570.010498,96.828827 1568.915405,98.019531 1568.922607,102.057808 
	C1569.033691,163.871719 1569.000122,225.685883 1569.000122,288.500000 
z"/>
<path fill="#000000" opacity="0.000000" stroke="none" 
	d="
M1569.000244,288.000000 
	C1569.000122,225.685883 1569.033691,163.871719 1568.922607,102.057808 
	C1568.915405,98.019531 1570.010498,96.828827 1574.167969,95.778778 
	C1589.819214,91.825539 1599.798096,82.482620 1602.262451,63.266594 
	C1674.970337,63.266594 1747.713013,63.266594 1820.632080,63.266594 
	C1822.312988,75.481155 1827.152832,85.838013 1838.499390,91.868629 
	C1842.012573,93.735939 1845.956665,94.959145 1849.843140,95.901878 
	C1852.631226,96.578163 1854.062134,97.377228 1854.058594,100.600609 
	C1853.981201,170.911987 1853.981689,241.223495 1854.061401,311.534882 
	C1854.064819,314.527039 1852.831421,315.631256 1850.184204,315.999146 
	C1833.670654,318.293884 1821.440918,332.562195 1820.815674,348.686951 
	C1748.096558,348.686951 1675.364258,348.686951 1603.982788,348.686951 
	C1600.512329,341.577942 1597.716675,334.737122 1593.970093,328.464294 
	C1589.521240,321.015717 1581.843384,317.769501 1573.743774,316.158417 
	C1570.015747,315.416901 1568.807251,314.178955 1568.928711,310.490662 
	C1569.169800,303.167603 1569.000122,295.830994 1569.000244,288.000000 
z"/>
</svg>