<svg version="1.1" id="Layer_1" xmlns="http://www.w3.org/2000/svg" xmlns:xlink="http://www.w3.org/1999/xlink" x="0px" y="0px"
	 width="100%" viewBox="0 0 1080 1080" enable-background="new 0 0 1080 1080" xml:space="preserve">
<path fill="#0D0D0B" opacity="1.000000" stroke="none" 
	d="
M686.000000,1081.000000 
	C457.359650,1081.000000 229.219330,1081.000000 1.039494,1081.000000 
	C1.039494,721.067871 1.039494,361.135742 1.039494,1.101807 
	C360.890564,1.101807 720.781128,1.101807 1080.835938,1.101807 
	C1080.835938,360.999939 1080.835938,720.999939 1080.835938,1081.000000 
	C949.468567,1081.000000 817.984314,1081.000000 686.000000,1081.000000 
M119.500000,258.032379 
	C107.880875,258.032379 96.261749,258.032379 84.645592,258.032379 
	C83.247787,262.223694 84.321739,263.727783 88.848427,263.846130 
	C102.534912,264.203918 106.376579,268.322357 106.904144,282.160217 
	C106.942230,283.159088 106.956604,284.159424 106.956657,285.159088 
	C106.959145,333.487366 106.980385,381.815674 106.913628,430.143860 
	C106.908836,433.615387 106.388779,437.105194 105.879814,440.552765 
	C105.025291,446.341217 101.679909,449.820160 95.809441,450.663239 
	C92.068932,451.200439 88.316200,451.652649 84.469650,452.155975 
	C84.469650,453.952942 84.469650,455.516724 84.469650,456.941498 
	C85.061150,457.230072 85.352409,457.497223 85.642494,457.495941 
	C114.800476,457.368530 143.961105,457.409546 173.114990,456.986542 
	C185.728058,456.803497 197.807449,453.788635 208.837387,447.297028 
	C226.527817,436.885284 235.333115,421.226990 234.509689,400.927551 
	C233.668335,380.186554 222.526611,366.078094 203.294449,358.702576 
	C195.803543,355.829834 187.857025,354.145142 179.339233,351.695282 
	C180.695770,350.950653 181.697876,350.374176 182.723083,349.842224 
	C188.611282,346.786957 194.937439,344.359894 200.323090,340.588745 
	C225.733582,322.795776 226.755173,285.644806 202.439224,268.632233 
	C191.401428,260.909637 178.621063,258.477234 165.493118,258.155792 
	C150.503403,257.788788 135.498367,258.046265 119.500000,258.032379 
M335.582825,653.810364 
	C350.215210,653.909912 355.447479,658.338562 358.032043,672.967102 
	C358.551392,675.906555 359.047668,678.901367 359.055908,681.872009 
	C359.137848,711.367065 359.190338,740.862549 359.084839,770.357422 
	C359.042084,782.314331 355.467041,786.229675 344.079346,788.299133 
	C342.762177,788.538513 341.714447,790.260376 340.541809,791.294861 
	C341.970886,792.188965 343.392822,793.847778 344.830170,793.861145 
	C363.492218,794.035645 382.156555,794.001526 400.820038,793.941284 
	C402.909332,793.934509 406.243774,794.959167 405.684357,791.124329 
	C405.514893,789.962769 402.848724,788.539612 401.184357,788.322388 
	C389.451111,786.790771 385.564758,782.865540 384.699219,771.005371 
	C384.529724,768.682739 384.556824,766.343994 384.537659,764.012268 
	C384.308746,736.189514 384.364258,708.360779 383.763000,680.546143 
	C383.396881,663.607361 375.433624,652.432251 361.716217,647.556030 
	C338.625153,639.347778 313.043457,649.037170 301.189117,670.474060 
	C300.203247,672.256836 299.168335,674.012512 298.156189,675.780762 
	C297.799866,675.667725 297.443512,675.554688 297.087189,675.441711 
	C297.087189,641.064636 297.087189,606.687622 297.087189,571.865112 
	C283.054810,575.842896 269.335602,576.412170 255.482834,575.329224 
	C253.522003,575.175964 250.921860,574.089844 250.453690,577.567871 
	C249.994247,580.980835 252.236771,581.081360 254.735992,581.485779 
	C265.641693,583.250671 269.879089,587.735718 271.216064,598.865234 
	C271.691620,602.823792 271.999451,606.829163 272.003510,610.813599 
	C272.055176,661.472168 272.042603,712.130737 272.023895,762.789368 
	C272.022858,765.618164 271.998383,768.465942 271.688843,771.272278 
	C270.361176,783.310425 266.875946,786.804077 254.854462,788.209412 
	C252.663757,788.465454 250.200317,788.200928 250.462799,791.467407 
	C250.734589,794.849609 253.437057,793.949036 255.438400,793.953125 
	C273.935394,793.991211 292.433075,794.040833 310.928467,793.864502 
	C312.579132,793.848755 315.315948,792.563538 315.643646,791.352539 
	C316.502869,788.177002 313.567535,788.421143 311.465332,788.084534 
	C301.939240,786.559326 298.932343,783.576233 297.411713,774.032471 
	C297.099060,772.070435 297.072296,770.048218 297.070129,768.053589 
	C297.047241,747.056946 296.590942,726.044983 297.280151,705.070984 
	C297.564636,696.413757 299.210297,687.425598 302.205963,679.315247 
	C307.640930,664.601074 318.007721,654.886780 335.582825,653.810364 
M957.144897,449.435120 
	C957.144897,450.435120 957.147461,451.435089 957.144409,452.435089 
	C957.125183,458.750549 957.108704,458.485870 963.399963,458.103302 
	C972.207092,457.567749 981.039856,457.428223 989.863953,457.210602 
	C994.323486,457.100616 998.788086,457.191406 1003.186462,457.191406 
	C1004.712646,453.275360 1003.500061,451.912689 999.687256,451.356873 
	C988.557129,449.734436 984.227966,445.029724 982.950684,433.687805 
	C982.523132,429.890656 982.262207,426.052612 982.259583,422.233063 
	C982.218140,361.736633 982.231262,301.240173 982.231934,240.743729 
	C982.231995,239.151520 982.231995,237.559296 982.231995,236.843842 
	C966.526733,237.774658 951.412109,238.670456 936.241211,239.569595 
	C935.717590,244.184189 935.717590,244.184189 940.168335,244.894318 
	C949.964478,246.457336 954.185852,250.395355 956.082275,260.041290 
	C956.656738,262.963562 957.074158,265.969421 957.091431,268.939789 
	C957.188477,285.604919 957.149780,302.270874 957.127869,318.936523 
	C957.126038,320.324493 956.905457,321.712189 956.711731,323.974274 
	C945.988464,310.835968 932.541748,306.998291 917.252441,308.565979 
	C891.171143,311.240234 870.949280,328.911102 863.921143,354.410461 
	C858.804993,372.972748 858.800476,391.712555 862.330627,410.347046 
	C866.830200,434.099091 880.043213,454.601288 908.685547,458.383881 
	C927.070557,460.811859 943.599976,457.157776 954.699280,440.336609 
	C955.175842,439.614380 955.794128,438.985657 957.144897,437.341309 
	C957.144897,441.905975 957.144897,445.192078 957.144897,449.435120 
M735.684631,352.414032 
	C738.932983,338.145660 745.393127,325.955627 759.520325,319.985779 
	C775.278809,313.326630 794.574707,315.198273 795.148071,341.047089 
	C795.558044,359.529572 795.562195,378.022644 795.601501,396.511292 
	C795.629822,409.835449 795.748535,423.173615 795.204651,436.480103 
	C794.793884,446.530609 791.288940,450.069397 781.248413,451.351318 
	C777.139099,451.875977 776.726929,453.534698 777.643799,456.798645 
	C799.265015,456.798645 820.653625,456.798645 842.278931,456.798645 
	C842.153564,454.981354 842.053833,453.535614 841.955261,452.105927 
	C838.717529,451.565369 835.743591,451.197815 832.830444,450.554565 
	C827.369934,449.348938 823.391113,446.328430 822.197449,440.619812 
	C821.555908,437.552002 821.099182,434.381805 821.088013,431.255920 
	C820.994812,405.264587 821.147888,379.271759 820.929382,353.281891 
	C820.876587,346.997742 820.208130,340.623932 818.962097,334.465546 
	C816.777527,323.669189 810.503967,315.896271 800.120239,311.616058 
	C777.193604,302.165619 750.018250,311.684326 738.086304,333.420502 
	C737.167847,335.093719 736.282959,336.785370 735.382507,338.468475 
	C734.122192,336.546722 733.931519,334.835052 733.924805,333.122681 
	C733.898132,326.291809 733.849609,319.459259 733.973450,312.630310 
	C734.030457,309.484680 732.690613,308.748352 729.711060,308.861359 
	C716.905334,309.346954 704.090759,309.595978 691.279846,309.947876 
	C690.021179,309.982483 688.765686,310.130890 687.662476,310.214783 
	C687.662476,312.697388 687.662476,314.738281 687.662476,316.721954 
	C702.531128,318.321808 707.487915,323.571930 708.332825,338.207062 
	C708.380859,339.038666 708.457153,339.870758 708.457336,340.702637 
	C708.462830,371.026245 708.564636,401.350342 708.414062,431.673218 
	C708.343689,445.850586 704.082092,450.177063 689.826111,451.675568 
	C689.050415,451.757111 688.294800,452.029510 687.452393,452.231659 
	C687.452393,453.874115 687.452393,455.284729 687.452393,456.872681 
	C709.120117,456.872681 730.542236,456.872681 752.176392,456.872681 
	C752.089966,455.112610 752.017883,453.644226 751.938293,452.023560 
	C750.440735,451.801880 749.133911,451.631897 747.835449,451.412476 
	C738.275146,449.796814 734.682861,445.785583 734.100830,436.072357 
	C734.021179,434.742401 733.959045,433.408875 733.958435,432.076965 
	C733.949341,410.917084 733.861450,389.756531 734.016357,368.597809 
	C734.053955,363.465912 734.900513,358.339905 735.684631,352.414032 
M237.069901,651.752441 
	C237.069901,632.874329 237.069901,613.996277 237.069901,595.246094 
	C185.377289,595.246094 133.150757,595.246094 81.765320,595.246094 
	C81.765320,614.587830 81.765320,633.534302 81.765320,652.931641 
	C84.021912,652.931641 85.873581,652.931641 87.599777,652.931641 
	C89.459320,642.839539 90.868332,632.945496 93.170883,623.264038 
	C96.059906,611.116760 103.762726,603.343567 116.450165,601.757812 
	C124.351768,600.770264 132.385422,600.887024 140.325424,600.141846 
	C145.509720,599.655334 146.762665,601.677429 146.746841,606.638733 
	C146.584213,657.617737 146.690460,708.597595 146.581940,759.576843 
	C146.570679,764.871948 145.942520,770.211487 145.091492,775.447693 
	C143.988983,782.231140 139.934753,786.010559 133.209641,787.058838 
	C129.433472,787.647400 125.574173,787.751770 121.831551,788.480896 
	C120.448303,788.750366 119.291977,790.184570 118.032135,791.087524 
	C119.394829,792.050476 120.753708,793.018982 122.127342,793.966064 
	C122.240166,794.043823 122.453438,793.975708 122.620033,793.975708 
	C147.609985,793.976562 172.599930,793.980164 197.589890,793.967773 
	C198.550674,793.967285 199.511398,793.812683 200.619446,793.717285 
	C200.619446,791.904663 200.619446,790.354980 200.619446,788.845703 
	C195.382202,788.218872 190.439804,787.757935 185.541794,787.007324 
	C179.740189,786.118164 175.575699,782.818176 174.344254,777.067505 
	C173.309845,772.237000 172.873718,767.192627 172.864136,762.241577 
	C172.762863,709.929443 172.798706,657.617065 172.807617,605.304749 
	C172.807861,603.840210 172.928940,602.375671 173.050766,599.619934 
	C183.282593,600.347473 193.213623,600.643250 203.030411,601.860352 
	C214.094696,603.232117 221.947601,609.550659 224.866043,620.375732 
	C227.319992,629.477905 228.603958,638.908997 230.152359,648.236572 
	C231.030258,653.525024 231.523605,654.034180 237.069901,651.752441 
M584.002930,310.394531 
	C563.359985,316.263763 549.696228,329.485474 543.116394,349.822754 
	C537.625122,366.795654 537.711609,384.323212 539.647522,401.764740 
	C541.033081,414.247650 544.711792,426.224976 552.705017,436.341156 
	C567.025391,454.464874 586.499634,460.625610 608.580688,458.710602 
	C633.615479,456.539429 651.904480,444.090363 660.300171,419.736420 
	C668.175903,396.890381 667.947083,373.519104 661.287354,350.476074 
	C655.476501,330.370117 642.117493,316.950226 621.859680,310.952179 
	C609.625488,307.329865 597.217468,307.425171 584.002930,310.394531 
M282.336212,444.167938 
	C299.368500,458.263763 318.899323,462.322449 339.952423,456.858917 
	C358.465759,452.054504 370.144348,439.218872 376.934021,421.749481 
	C373.576172,418.628754 371.136414,418.276428 369.486481,422.722137 
	C369.030396,423.951172 368.155670,425.020844 367.509399,426.183868 
	C354.914246,448.849274 318.012177,457.855316 298.578491,427.553955 
	C287.869019,410.855621 286.507935,392.359283 287.558929,373.274567 
	C287.802979,368.843109 289.306091,367.336975 293.863953,367.372314 
	C319.850555,367.573853 345.839478,367.476288 371.827637,367.464783 
	C373.092194,367.464203 374.356659,367.316864 376.025360,367.212616 
	C375.707428,362.310760 375.680450,357.809723 375.082397,353.385895 
	C372.597321,335.003723 365.139008,319.787872 346.866943,312.414551 
	C317.109802,300.406677 284.460297,312.654724 269.953827,341.229523 
	C260.776855,359.306335 258.902039,378.669128 260.872437,398.590515 
	C262.601807,416.075134 268.748779,431.479034 282.336212,444.167938 
M453.942902,704.158264 
	C482.029144,704.158264 510.115387,704.158264 537.932129,704.158264 
	C538.329834,703.174377 538.568481,702.867615 538.556274,702.571106 
	C538.399658,698.746399 538.470215,694.889099 537.979919,691.105286 
	C535.475464,671.782227 527.932373,655.569092 508.193298,648.683472 
	C479.260864,638.590942 445.722656,647.823608 430.934662,681.525391 
	C423.101562,699.376953 421.935486,718.103821 423.756256,737.325684 
	C427.128113,772.922546 454.156982,797.031311 489.798187,795.731750 
	C512.483765,794.904602 534.036987,778.541199 539.244690,758.129822 
	C536.344849,755.301270 533.935669,754.995361 532.241455,759.379272 
	C531.826050,760.453979 531.118713,761.414551 530.557922,762.434448 
	C517.565186,786.060791 480.085632,794.237366 461.041779,763.856995 
	C450.114288,746.424683 448.933350,727.227661 450.723328,707.504517 
	C450.829102,706.338989 452.229309,705.291016 453.942902,704.158264 
M443.005157,497.492340 
	C445.381561,493.122589 448.291168,488.956482 450.050446,484.350952 
	C464.815948,445.696533 479.323669,406.943756 494.012878,368.259979 
	C499.437134,353.975342 504.967560,339.725220 510.804504,325.606079 
	C512.938293,320.444550 516.711731,316.474945 522.411560,314.621155 
	C523.713867,314.197601 524.518005,312.242126 526.367859,310.003876 
	C512.005737,310.003876 499.370728,309.924957 486.738525,310.078369 
	C484.526154,310.105225 482.325653,311.107910 480.119659,311.659912 
	C482.215393,312.765656 484.208344,314.518951 486.423737,314.870483 
	C499.376709,316.925812 503.936523,323.516968 499.512451,335.951447 
	C491.270325,359.117157 482.489075,382.091248 473.905334,405.135101 
	C471.792969,410.805878 469.577118,416.438141 467.031189,423.072266 
	C465.826080,420.510101 465.061707,419.089935 464.471924,417.600616 
	C454.744720,393.037476 444.956482,368.497894 435.391449,343.871643 
	C433.177582,338.171722 431.107208,332.274323 430.114899,326.278412 
	C428.934296,319.144379 432.228302,315.744904 439.392242,315.020416 
	C441.546875,314.802490 443.705719,314.586273 445.867981,314.492706 
	C449.172180,314.349670 449.673126,312.724152 448.607788,309.831116 
	C447.395966,309.831116 446.411774,309.830475 445.427551,309.831207 
	C426.932129,309.845398 408.436493,309.823090 389.941742,309.939972 
	C388.374664,309.949829 386.813477,310.889984 385.249542,311.397980 
	C386.514313,312.590668 387.673645,313.927094 389.064758,314.947601 
	C392.476166,317.450256 396.605804,319.274323 399.303070,322.368225 
	C402.173157,325.660431 404.111298,329.942719 405.796112,334.062714 
	C420.011749,368.824921 433.508484,403.896057 448.489594,438.322357 
	C453.825806,450.584808 454.978363,461.315643 448.608154,473.021606 
	C444.734039,480.140808 441.929077,487.865875 437.785767,494.806549 
	C434.645996,500.066162 429.334473,502.991516 421.900116,503.425507 
	C423.282867,501.383514 424.188171,500.103271 425.035492,498.785706 
	C429.535614,491.787750 427.397858,482.584839 420.434326,478.922119 
	C412.808044,474.910797 402.662720,478.039917 399.523682,485.371552 
	C395.694946,494.314026 399.695526,504.025330 408.702454,507.652771 
	C419.367188,511.947876 434.010681,507.781494 443.005157,497.492340 
M791.500000,485.078308 
	C752.423889,485.078308 713.347839,485.078308 674.123779,485.078308 
	C673.980042,497.686859 670.121277,508.086945 661.738586,516.536316 
	C653.251282,525.091003 642.683167,528.942261 630.854492,529.034912 
	C630.854492,626.590576 630.854492,723.609619 630.854492,820.811584 
	C643.150757,820.894348 653.467346,824.901001 661.857056,833.346863 
	C670.246887,841.792786 673.701721,852.359863 674.171814,864.001221 
	C771.604675,864.001221 868.664246,864.001221 965.562256,864.001221 
	C968.031067,836.930969 982.778870,822.631042 1009.496399,820.338562 
	C1009.496399,723.226257 1009.496399,626.312866 1009.496399,529.367493 
	C982.143921,527.199036 967.831543,512.252991 965.583923,485.078369 
	C907.755127,485.078369 850.127563,485.078369 791.500000,485.078308 
z"/>
<path fill="#F2EDE5" opacity="1.000000" stroke="none" 
	d="
M120.000000,258.032349 
	C135.498367,258.046265 150.503403,257.788788 165.493118,258.155792 
	C178.621063,258.477234 191.401428,260.909637 202.439224,268.632233 
	C226.755173,285.644806 225.733582,322.795776 200.323090,340.588745 
	C194.937439,344.359894 188.611282,346.786957 182.723083,349.842224 
	C181.697876,350.374176 180.695770,350.950653 179.339233,351.695282 
	C187.857025,354.145142 195.803543,355.829834 203.294449,358.702576 
	C222.526611,366.078094 233.668335,380.186554 234.509689,400.927551 
	C235.333115,421.226990 226.527817,436.885284 208.837387,447.297028 
	C197.807449,453.788635 185.728058,456.803497 173.114990,456.986542 
	C143.961105,457.409546 114.800476,457.368530 85.642494,457.495941 
	C85.352409,457.497223 85.061150,457.230072 84.469650,456.941498 
	C84.469650,455.516724 84.469650,453.952942 84.469650,452.155975 
	C88.316200,451.652649 92.068932,451.200439 95.809441,450.663239 
	C101.679909,449.820160 105.025291,446.341217 105.879814,440.552765 
	C106.388779,437.105194 106.908836,433.615387 106.913628,430.143860 
	C106.980385,381.815674 106.959145,333.487366 106.956657,285.159088 
	C106.956604,284.159424 106.942230,283.159088 106.904144,282.160217 
	C106.376579,268.322357 102.534912,264.203918 88.848427,263.846130 
	C84.321739,263.727783 83.247787,262.223694 84.645592,258.032379 
	C96.261749,258.032379 107.880875,258.032379 120.000000,258.032349 
M133.029526,399.500000 
	C133.029526,406.993225 132.888199,414.489960 133.073013,421.978638 
	C133.228470,428.278107 133.446747,434.607605 134.223206,440.850922 
	C134.939850,446.613281 138.655014,450.525879 144.488190,450.670654 
	C153.567749,450.896027 162.843521,451.270721 171.722061,449.749268 
	C186.967651,447.136749 198.295761,438.593719 203.406052,423.404572 
	C207.144974,412.291565 207.371246,400.780548 205.207916,389.374359 
	C202.144485,373.222351 192.464569,362.278900 176.229935,359.649200 
	C162.867432,357.484711 149.097641,357.776428 135.497253,357.290619 
	C134.724625,357.263000 133.157471,360.043304 133.134262,361.535034 
	C132.942398,373.854248 133.027985,386.177765 133.029526,399.500000 
M133.028854,346.290344 
	C133.028854,347.902618 133.028854,349.514862 133.028854,352.395966 
	C144.492569,351.564301 155.450943,351.309296 166.238297,349.817627 
	C175.036697,348.601044 182.002563,343.508240 186.152710,335.442566 
	C194.952850,318.339813 195.551315,300.536896 188.930069,282.745697 
	C183.470596,268.076172 170.648911,264.460968 156.669937,263.694672 
	C138.346832,262.690247 133.126266,267.633911 133.054672,285.839661 
	C132.976700,305.669159 133.031723,325.499115 133.028854,346.290344 
z"/>
<path fill="#F1ECE4" opacity="1.000000" stroke="none" 
	d="
M335.124817,653.828674 
	C318.007721,654.886780 307.640930,664.601074 302.205963,679.315247 
	C299.210297,687.425598 297.564636,696.413757 297.280151,705.070984 
	C296.590942,726.044983 297.047241,747.056946 297.070129,768.053589 
	C297.072296,770.048218 297.099060,772.070435 297.411713,774.032471 
	C298.932343,783.576233 301.939240,786.559326 311.465332,788.084534 
	C313.567535,788.421143 316.502869,788.177002 315.643646,791.352539 
	C315.315948,792.563538 312.579132,793.848755 310.928467,793.864502 
	C292.433075,794.040833 273.935394,793.991211 255.438400,793.953125 
	C253.437057,793.949036 250.734589,794.849609 250.462799,791.467407 
	C250.200317,788.200928 252.663757,788.465454 254.854462,788.209412 
	C266.875946,786.804077 270.361176,783.310425 271.688843,771.272278 
	C271.998383,768.465942 272.022858,765.618164 272.023895,762.789368 
	C272.042603,712.130737 272.055176,661.472168 272.003510,610.813599 
	C271.999451,606.829163 271.691620,602.823792 271.216064,598.865234 
	C269.879089,587.735718 265.641693,583.250671 254.735992,581.485779 
	C252.236771,581.081360 249.994247,580.980835 250.453690,577.567871 
	C250.921860,574.089844 253.522003,575.175964 255.482834,575.329224 
	C269.335602,576.412170 283.054810,575.842896 297.087189,571.865112 
	C297.087189,606.687622 297.087189,641.064636 297.087189,675.441711 
	C297.443512,675.554688 297.799866,675.667725 298.156189,675.780762 
	C299.168335,674.012512 300.203247,672.256836 301.189117,670.474060 
	C313.043457,649.037170 338.625153,639.347778 361.716217,647.556030 
	C375.433624,652.432251 383.396881,663.607361 383.763000,680.546143 
	C384.364258,708.360779 384.308746,736.189514 384.537659,764.012268 
	C384.556824,766.343994 384.529724,768.682739 384.699219,771.005371 
	C385.564758,782.865540 389.451111,786.790771 401.184357,788.322388 
	C402.848724,788.539612 405.514893,789.962769 405.684357,791.124329 
	C406.243774,794.959167 402.909332,793.934509 400.820038,793.941284 
	C382.156555,794.001526 363.492218,794.035645 344.830170,793.861145 
	C343.392822,793.847778 341.970886,792.188965 340.541809,791.294861 
	C341.714447,790.260376 342.762177,788.538513 344.079346,788.299133 
	C355.467041,786.229675 359.042084,782.314331 359.084839,770.357422 
	C359.190338,740.862549 359.137848,711.367065 359.055908,681.872009 
	C359.047668,678.901367 358.551392,675.906555 358.032043,672.967102 
	C355.447479,658.338562 350.215210,653.909912 335.124817,653.828674 
z"/>
<path fill="#F2EDE5" opacity="1.000000" stroke="none" 
	d="
M957.144897,448.956635 
	C957.144897,445.192078 957.144897,441.905975 957.144897,437.341309 
	C955.794128,438.985657 955.175842,439.614380 954.699280,440.336609 
	C943.599976,457.157776 927.070557,460.811859 908.685547,458.383881 
	C880.043213,454.601288 866.830200,434.099091 862.330627,410.347046 
	C858.800476,391.712555 858.804993,372.972748 863.921143,354.410461 
	C870.949280,328.911102 891.171143,311.240234 917.252441,308.565979 
	C932.541748,306.998291 945.988464,310.835968 956.711731,323.974274 
	C956.905457,321.712189 957.126038,320.324493 957.127869,318.936523 
	C957.149780,302.270874 957.188477,285.604919 957.091431,268.939789 
	C957.074158,265.969421 956.656738,262.963562 956.082275,260.041290 
	C954.185852,250.395355 949.964478,246.457336 940.168335,244.894318 
	C935.717590,244.184189 935.717590,244.184189 936.241211,239.569595 
	C951.412109,238.670456 966.526733,237.774658 982.231995,236.843842 
	C982.231995,237.559296 982.231995,239.151520 982.231934,240.743729 
	C982.231262,301.240173 982.218140,361.736633 982.259583,422.233063 
	C982.262207,426.052612 982.523132,429.890656 982.950684,433.687805 
	C984.227966,445.029724 988.557129,449.734436 999.687256,451.356873 
	C1003.500061,451.912689 1004.712646,453.275360 1003.186462,457.191406 
	C998.788086,457.191406 994.323486,457.100616 989.863953,457.210602 
	C981.039856,457.428223 972.207092,457.567749 963.399963,458.103302 
	C957.108704,458.485870 957.125183,458.750549 957.144409,452.435089 
	C957.147461,451.435089 957.144897,450.435120 957.144897,448.956635 
M957.147400,344.568481 
	C956.788696,341.133667 957.086182,337.464203 955.956421,334.305115 
	C951.307800,321.305969 941.566711,314.820007 927.996826,313.943207 
	C913.835815,313.028198 901.953247,321.265533 894.976257,336.771454 
	C889.841736,348.182617 888.054871,360.296906 887.580017,372.699951 
	C886.941101,389.388184 887.006165,406.016296 891.977234,422.171021 
	C894.924377,431.748169 899.507202,440.458710 908.493286,445.722748 
	C918.526001,451.599915 929.192444,452.393829 939.379700,446.504852 
	C950.326477,440.176849 956.677124,430.050659 956.978210,417.491455 
	C957.552856,393.523163 957.146484,369.531342 957.147400,344.568481 
z"/>
<path fill="#F1ECE5" opacity="1.000000" stroke="none" 
	d="
M735.529907,352.812622 
	C734.900513,358.339905 734.053955,363.465912 734.016357,368.597809 
	C733.861450,389.756531 733.949341,410.917084 733.958435,432.076965 
	C733.959045,433.408875 734.021179,434.742401 734.100830,436.072357 
	C734.682861,445.785583 738.275146,449.796814 747.835449,451.412476 
	C749.133911,451.631897 750.440735,451.801880 751.938293,452.023560 
	C752.017883,453.644226 752.089966,455.112610 752.176392,456.872681 
	C730.542236,456.872681 709.120117,456.872681 687.452393,456.872681 
	C687.452393,455.284729 687.452393,453.874115 687.452393,452.231659 
	C688.294800,452.029510 689.050415,451.757111 689.826111,451.675568 
	C704.082092,450.177063 708.343689,445.850586 708.414062,431.673218 
	C708.564636,401.350342 708.462830,371.026245 708.457336,340.702637 
	C708.457153,339.870758 708.380859,339.038666 708.332825,338.207062 
	C707.487915,323.571930 702.531128,318.321808 687.662476,316.721954 
	C687.662476,314.738281 687.662476,312.697388 687.662476,310.214783 
	C688.765686,310.130890 690.021179,309.982483 691.279846,309.947876 
	C704.090759,309.595978 716.905334,309.346954 729.711060,308.861359 
	C732.690613,308.748352 734.030457,309.484680 733.973450,312.630310 
	C733.849609,319.459259 733.898132,326.291809 733.924805,333.122681 
	C733.931519,334.835052 734.122192,336.546722 735.382507,338.468475 
	C736.282959,336.785370 737.167847,335.093719 738.086304,333.420502 
	C750.018250,311.684326 777.193604,302.165619 800.120239,311.616058 
	C810.503967,315.896271 816.777527,323.669189 818.962097,334.465546 
	C820.208130,340.623932 820.876587,346.997742 820.929382,353.281891 
	C821.147888,379.271759 820.994812,405.264587 821.088013,431.255920 
	C821.099182,434.381805 821.555908,437.552002 822.197449,440.619812 
	C823.391113,446.328430 827.369934,449.348938 832.830444,450.554565 
	C835.743591,451.197815 838.717529,451.565369 841.955261,452.105927 
	C842.053833,453.535614 842.153564,454.981354 842.278931,456.798645 
	C820.653625,456.798645 799.265015,456.798645 777.643799,456.798645 
	C776.726929,453.534698 777.139099,451.875977 781.248413,451.351318 
	C791.288940,450.069397 794.793884,446.530609 795.204651,436.480103 
	C795.748535,423.173615 795.629822,409.835449 795.601501,396.511292 
	C795.562195,378.022644 795.558044,359.529572 795.148071,341.047089 
	C794.574707,315.198273 775.278809,313.326630 759.520325,319.985779 
	C745.393127,325.955627 738.932983,338.145660 735.529907,352.812622 
z"/>
<path fill="#F2EDE5" opacity="1.000000" stroke="none" 
	d="
M236.971710,652.162476 
	C231.523605,654.034180 231.030258,653.525024 230.152359,648.236572 
	C228.603958,638.908997 227.319992,629.477905 224.866043,620.375732 
	C221.947601,609.550659 214.094696,603.232117 203.030411,601.860352 
	C193.213623,600.643250 183.282593,600.347473 173.050766,599.619934 
	C172.928940,602.375671 172.807861,603.840210 172.807617,605.304749 
	C172.798706,657.617065 172.762863,709.929443 172.864136,762.241577 
	C172.873718,767.192627 173.309845,772.237000 174.344254,777.067505 
	C175.575699,782.818176 179.740189,786.118164 185.541794,787.007324 
	C190.439804,787.757935 195.382202,788.218872 200.619446,788.845703 
	C200.619446,790.354980 200.619446,791.904663 200.619446,793.717285 
	C199.511398,793.812683 198.550674,793.967285 197.589890,793.967773 
	C172.599930,793.980164 147.609985,793.976562 122.620033,793.975708 
	C122.453438,793.975708 122.240166,794.043823 122.127342,793.966064 
	C120.753708,793.018982 119.394829,792.050476 118.032150,791.087524 
	C119.291977,790.184570 120.448303,788.750366 121.831551,788.480896 
	C125.574173,787.751770 129.433472,787.647400 133.209641,787.058838 
	C139.934753,786.010559 143.988983,782.231140 145.091492,775.447693 
	C145.942520,770.211487 146.570679,764.871948 146.581940,759.576843 
	C146.690460,708.597595 146.584213,657.617737 146.746841,606.638733 
	C146.762665,601.677429 145.509720,599.655334 140.325424,600.141846 
	C132.385422,600.887024 124.351768,600.770264 116.450165,601.757812 
	C103.762726,603.343567 96.059906,611.116760 93.170883,623.264038 
	C90.868332,632.945496 89.459320,642.839539 87.599777,652.931641 
	C85.873581,652.931641 84.021912,652.931641 81.765320,652.931641 
	C81.765320,633.534302 81.765320,614.587830 81.765320,595.246094 
	C133.150757,595.246094 185.377289,595.246094 237.069901,595.246094 
	C237.069901,613.996277 237.069901,632.874329 236.971710,652.162476 
z"/>
<path fill="#F1ECE4" opacity="1.000000" stroke="none" 
	d="
M584.403320,310.297241 
	C597.217468,307.425171 609.625488,307.329865 621.859680,310.952179 
	C642.117493,316.950226 655.476501,330.370117 661.287354,350.476074 
	C667.947083,373.519104 668.175903,396.890381 660.300171,419.736420 
	C651.904480,444.090363 633.615479,456.539429 608.580688,458.710602 
	C586.499634,460.625610 567.025391,454.464874 552.705017,436.341156 
	C544.711792,426.224976 541.033081,414.247650 539.647522,401.764740 
	C537.711609,384.323212 537.625122,366.795654 543.116394,349.822754 
	C549.696228,329.485474 563.359985,316.263763 584.403320,310.297241 
M570.291565,423.953491 
	C573.887329,430.628235 576.479248,438.155457 581.279114,443.807617 
	C592.733948,457.296448 613.047852,456.804382 623.950378,442.859039 
	C628.431396,437.127441 631.896240,430.080750 633.966492,423.082916 
	C640.111877,402.309784 639.286621,380.922699 637.180847,359.664398 
	C636.029724,348.043091 633.144592,336.753479 626.173035,326.928131 
	C614.272888,310.156677 592.170349,309.278656 579.449890,325.439362 
	C576.321716,329.413513 573.600708,334.093292 572.085876,338.888794 
	C563.289734,366.734406 563.933167,394.907806 570.291565,423.953491 
z"/>
<path fill="#F1ECE4" opacity="1.000000" stroke="none" 
	d="
M282.077057,443.925049 
	C268.748779,431.479034 262.601807,416.075134 260.872437,398.590515 
	C258.902039,378.669128 260.776855,359.306335 269.953827,341.229523 
	C284.460297,312.654724 317.109802,300.406677 346.866943,312.414551 
	C365.139008,319.787872 372.597321,335.003723 375.082397,353.385895 
	C375.680450,357.809723 375.707428,362.310760 376.025360,367.212616 
	C374.356659,367.316864 373.092194,367.464203 371.827637,367.464783 
	C345.839478,367.476288 319.850555,367.573853 293.863953,367.372314 
	C289.306091,367.336975 287.802979,368.843109 287.558929,373.274567 
	C286.507935,392.359283 287.869019,410.855621 298.578491,427.553955 
	C318.012177,457.855316 354.914246,448.849274 367.509399,426.183868 
	C368.155670,425.020844 369.030396,423.951172 369.486481,422.722137 
	C371.136414,418.276428 373.576172,418.628754 376.934021,421.749481 
	C370.144348,439.218872 358.465759,452.054504 339.952423,456.858917 
	C318.899323,462.322449 299.368500,458.263763 282.077057,443.925049 
M315.500000,361.988037 
	C326.580872,361.988037 337.661774,361.988037 348.999329,361.988037 
	C349.540039,350.782074 348.068390,340.687836 344.174011,330.987885 
	C336.583038,312.080658 317.352478,307.957245 303.009064,322.386902 
	C292.334198,333.126007 289.458588,346.978302 288.122498,361.988037 
	C297.270813,361.988037 305.885406,361.988037 315.500000,361.988037 
z"/>
<path fill="#F1ECE5" opacity="1.000000" stroke="none" 
	d="
M453.485016,704.173279 
	C452.229309,705.291016 450.829102,706.338989 450.723328,707.504517 
	C448.933350,727.227661 450.114288,746.424683 461.041779,763.856995 
	C480.085632,794.237366 517.565186,786.060791 530.557922,762.434448 
	C531.118713,761.414551 531.826050,760.453979 532.241455,759.379272 
	C533.935669,754.995361 536.344849,755.301270 539.244690,758.129822 
	C534.036987,778.541199 512.483765,794.904602 489.798187,795.731750 
	C454.156982,797.031311 427.128113,772.922546 423.756256,737.325684 
	C421.935486,718.103821 423.101562,699.376953 430.934662,681.525391 
	C445.722656,647.823608 479.260864,638.590942 508.193298,648.683472 
	C527.932373,655.569092 535.475464,671.782227 537.979919,691.105286 
	C538.470215,694.889099 538.399658,698.746399 538.556274,702.571106 
	C538.568481,702.867615 538.329834,703.174377 537.932129,704.158264 
	C510.115387,704.158264 482.029144,704.158264 453.485016,704.173279 
M505.319275,664.281006 
	C502.399139,658.452087 498.463715,653.684021 491.913086,651.776733 
	C480.218811,648.371948 471.018860,652.769165 463.586029,661.466614 
	C455.265839,671.202454 452.515808,683.139160 451.071228,695.505798 
	C450.738831,698.351074 451.973267,698.858765 454.454681,698.848694 
	C472.240509,698.776123 490.026947,698.763916 507.812683,698.844543 
	C511.062134,698.859253 512.143738,697.650208 512.015625,694.401428 
	C511.612793,684.189453 510.095917,674.256775 505.319275,664.281006 
z"/>
<path fill="#F0EBE3" opacity="1.000000" stroke="none" 
	d="
M442.769501,497.759705 
	C434.010681,507.781494 419.367188,511.947876 408.702454,507.652771 
	C399.695526,504.025330 395.694946,494.314026 399.523682,485.371552 
	C402.662720,478.039917 412.808044,474.910797 420.434326,478.922119 
	C427.397858,482.584839 429.535614,491.787750 425.035492,498.785706 
	C424.188171,500.103271 423.282867,501.383514 421.900116,503.425507 
	C429.334473,502.991516 434.645996,500.066162 437.785767,494.806549 
	C441.929077,487.865875 444.734039,480.140808 448.608154,473.021606 
	C454.978363,461.315643 453.825806,450.584808 448.489594,438.322357 
	C433.508484,403.896057 420.011749,368.824921 405.796112,334.062714 
	C404.111298,329.942719 402.173157,325.660431 399.303070,322.368225 
	C396.605804,319.274323 392.476166,317.450256 389.064758,314.947601 
	C387.673645,313.927094 386.514313,312.590668 385.249542,311.397980 
	C386.813477,310.889984 388.374664,309.949829 389.941742,309.939972 
	C408.436493,309.823090 426.932129,309.845398 445.427551,309.831207 
	C446.411774,309.830475 447.395966,309.831116 448.607788,309.831116 
	C449.673126,312.724152 449.172180,314.349670 445.867981,314.492706 
	C443.705719,314.586273 441.546875,314.802490 439.392242,315.020416 
	C432.228302,315.744904 428.934296,319.144379 430.114899,326.278412 
	C431.107208,332.274323 433.177582,338.171722 435.391449,343.871643 
	C444.956482,368.497894 454.744720,393.037476 464.471924,417.600616 
	C465.061707,419.089935 465.826080,420.510101 467.031189,423.072266 
	C469.577118,416.438141 471.792969,410.805878 473.905334,405.135101 
	C482.489075,382.091248 491.270325,359.117157 499.512451,335.951447 
	C503.936523,323.516968 499.376709,316.925812 486.423737,314.870483 
	C484.208344,314.518951 482.215393,312.765656 480.119659,311.659912 
	C482.325653,311.107910 484.526154,310.105225 486.738525,310.078369 
	C499.370728,309.924957 512.005737,310.003876 526.367859,310.003876 
	C524.518005,312.242126 523.713867,314.197601 522.411560,314.621155 
	C516.711731,316.474945 512.938293,320.444550 510.804504,325.606079 
	C504.967560,339.725220 499.437134,353.975342 494.012878,368.259979 
	C479.323669,406.943756 464.815948,445.696533 450.050446,484.350952 
	C448.291168,488.956482 445.381561,493.122589 442.769501,497.759705 
z"/>
<path fill="#B19544" opacity="1.000000" stroke="none" 
	d="
M792.000000,485.078339 
	C850.127563,485.078369 907.755127,485.078369 965.583923,485.078369 
	C967.831543,512.252991 982.143921,527.199036 1009.496399,529.367493 
	C1009.496399,626.312866 1009.496399,723.226257 1009.496399,820.338562 
	C982.778870,822.631042 968.031067,836.930969 965.562256,864.001221 
	C868.664246,864.001221 771.604675,864.001221 674.171814,864.001221 
	C673.701721,852.359863 670.246887,841.792786 661.857056,833.346863 
	C653.467346,824.901001 643.150757,820.894348 630.854492,820.811584 
	C630.854492,723.609619 630.854492,626.590576 630.854492,529.034912 
	C642.683167,528.942261 653.251282,525.091003 661.738586,516.536316 
	C670.121277,508.086945 673.980042,497.686859 674.123779,485.078308 
	C713.347839,485.078308 752.423889,485.078308 792.000000,485.078339 
M765.500000,488.220825 
	C736.102539,488.220825 706.705078,488.220825 677.533386,488.220825 
	C673.897888,514.507446 659.072449,528.685486 634.073730,532.427368 
	C634.073730,627.636658 634.073730,722.514465 634.073730,817.334778 
	C659.819763,821.042725 674.074951,835.751892 677.460510,861.047424 
	C772.654236,861.047424 867.547485,861.047424 962.410156,861.047424 
	C964.916809,837.291626 980.871582,820.146362 1005.976135,817.247009 
	C1005.976135,722.274597 1005.976135,627.272766 1005.976135,532.127197 
	C994.147705,530.936646 984.133301,526.645264 975.875732,518.410095 
	C967.598816,510.155548 963.772522,499.962494 962.668579,488.221008 
	C897.060242,488.221008 831.780151,488.221008 765.500000,488.220825 
z"/>
<path fill="#0E0E0C" opacity="1.000000" stroke="none" 
	d="
M133.029526,399.000000 
	C133.027985,386.177765 132.942398,373.854248 133.134262,361.535034 
	C133.157471,360.043304 134.724625,357.263000 135.497253,357.290619 
	C149.097641,357.776428 162.867432,357.484711 176.229935,359.649200 
	C192.464569,362.278900 202.144485,373.222351 205.207916,389.374359 
	C207.371246,400.780548 207.144974,412.291565 203.406052,423.404572 
	C198.295761,438.593719 186.967651,447.136749 171.722061,449.749268 
	C162.843521,451.270721 153.567749,450.896027 144.488190,450.670654 
	C138.655014,450.525879 134.939850,446.613281 134.223206,440.850922 
	C133.446747,434.607605 133.228470,428.278107 133.073013,421.978638 
	C132.888199,414.489960 133.029526,406.993225 133.029526,399.000000 
z"/>
<path fill="#0F0F0D" opacity="1.000000" stroke="none" 
	d="
M133.028809,345.809631 
	C133.031723,325.499115 132.976700,305.669159 133.054672,285.839661 
	C133.126266,267.633911 138.346832,262.690247 156.669937,263.694672 
	C170.648911,264.460968 183.470596,268.076172 188.930069,282.745697 
	C195.551315,300.536896 194.952850,318.339813 186.152710,335.442566 
	C182.002563,343.508240 175.036697,348.601044 166.238297,349.817627 
	C155.450943,351.309296 144.492569,351.564301 133.028854,352.395966 
	C133.028854,349.514862 133.028854,347.902618 133.028809,345.809631 
z"/>
<path fill="#0E0E0C" opacity="1.000000" stroke="none" 
	d="
M957.147339,345.058899 
	C957.146484,369.531342 957.552856,393.523163 956.978210,417.491455 
	C956.677124,430.050659 950.326477,440.176849 939.379700,446.504852 
	C929.192444,452.393829 918.526001,451.599915 908.493286,445.722748 
	C899.507202,440.458710 894.924377,431.748169 891.977234,422.171021 
	C887.006165,406.016296 886.941101,389.388184 887.580017,372.699951 
	C888.054871,360.296906 889.841736,348.182617 894.976257,336.771454 
	C901.953247,321.265533 913.835815,313.028198 927.996826,313.943207 
	C941.566711,314.820007 951.307800,321.305969 955.956421,334.305115 
	C957.086182,337.464203 956.788696,341.133667 957.147339,345.058899 
z"/>
<path fill="#0E0E0C" opacity="1.000000" stroke="none" 
	d="
M570.203918,423.556946 
	C563.933167,394.907806 563.289734,366.734406 572.085876,338.888794 
	C573.600708,334.093292 576.321716,329.413513 579.449890,325.439362 
	C592.170349,309.278656 614.272888,310.156677 626.173035,326.928131 
	C633.144592,336.753479 636.029724,348.043091 637.180847,359.664398 
	C639.286621,380.922699 640.111877,402.309784 633.966492,423.082916 
	C631.896240,430.080750 628.431396,437.127441 623.950378,442.859039 
	C613.047852,456.804382 592.733948,457.296448 581.279114,443.807617 
	C576.479248,438.155457 573.887329,430.628235 570.203918,423.556946 
z"/>
<path fill="#0F0F0D" opacity="1.000000" stroke="none" 
	d="
M315.000000,361.988037 
	C305.885406,361.988037 297.270813,361.988037 288.122498,361.988037 
	C289.458588,346.978302 292.334198,333.126007 303.009064,322.386902 
	C317.352478,307.957245 336.583038,312.080658 344.174011,330.987885 
	C348.068390,340.687836 349.540039,350.782074 348.999329,361.988037 
	C337.661774,361.988037 326.580872,361.988037 315.000000,361.988037 
z"/>
<path fill="#11100E" opacity="1.000000" stroke="none" 
	d="
M505.518921,664.596741 
	C510.095917,674.256775 511.612793,684.189453 512.015625,694.401428 
	C512.143738,697.650208 511.062134,698.859253 507.812683,698.844543 
	C490.026947,698.763916 472.240509,698.776123 454.454681,698.848694 
	C451.973267,698.858765 450.738831,698.351074 451.071228,695.505798 
	C452.515808,683.139160 455.265839,671.202454 463.586029,661.466614 
	C471.018860,652.769165 480.218811,648.371948 491.913086,651.776733 
	C498.463715,653.684021 502.399139,658.452087 505.518921,664.596741 
z"/>
<path fill="#11110C" opacity="1.000000" stroke="none" 
	d="
M766.000000,488.220917 
	C831.780151,488.221008 897.060242,488.221008 962.668579,488.221008 
	C963.772522,499.962494 967.598816,510.155548 975.875732,518.410095 
	C984.133301,526.645264 994.147705,530.936646 1005.976135,532.127197 
	C1005.976135,627.272766 1005.976135,722.274597 1005.976135,817.247009 
	C980.871582,820.146362 964.916809,837.291626 962.410156,861.047424 
	C867.547485,861.047424 772.654236,861.047424 677.460510,861.047424 
	C674.074951,835.751892 659.819763,821.042725 634.073730,817.334778 
	C634.073730,722.514465 634.073730,627.636658 634.073730,532.427368 
	C659.072449,528.685486 673.897888,514.507446 677.533386,488.220825 
	C706.705078,488.220825 736.102539,488.220825 766.000000,488.220917 
M882.500000,499.829987 
	C816.776001,499.829987 751.052063,499.829987 685.416687,499.829987 
	C682.933289,525.107788 672.044678,535.967285 645.356689,540.480225 
	C645.356689,630.155640 645.356689,719.847168 645.356689,809.738159 
	C656.663269,809.823120 666.223022,813.452576 673.998230,821.312988 
	C681.752747,829.152588 684.840149,838.954163 685.354431,849.767456 
	C775.344421,849.767456 864.915588,849.767456 954.502441,849.767456 
	C956.533020,824.711121 970.087097,811.361877 994.802979,809.378662 
	C994.802979,719.526917 994.802979,629.953918 994.802979,540.132507 
	C983.619263,539.942688 974.044006,536.258484 966.267151,528.489441 
	C958.493286,520.723389 954.951477,511.095764 954.790100,499.829865 
	C930.752319,499.829865 907.126160,499.829865 882.500000,499.829987 
z"/>
<path fill="#C2A249" opacity="1.000000" stroke="none" 
	d="
M883.000000,499.829926 
	C907.126160,499.829865 930.752319,499.829865 954.790100,499.829865 
	C954.951477,511.095764 958.493286,520.723389 966.267151,528.489441 
	C974.044006,536.258484 983.619263,539.942688 994.802979,540.132507 
	C994.802979,629.953918 994.802979,719.526917 994.802979,809.378662 
	C970.087097,811.361877 956.533020,824.711121 954.502441,849.767456 
	C864.915588,849.767456 775.344421,849.767456 685.354431,849.767456 
	C684.840149,838.954163 681.752747,829.152588 673.998230,821.312988 
	C666.223022,813.452576 656.663269,809.823120 645.356689,809.738159 
	C645.356689,719.847168 645.356689,630.155640 645.356689,540.480225 
	C672.044678,535.967285 682.933289,525.107788 685.416687,499.829987 
	C751.052063,499.829987 816.776001,499.829987 883.000000,499.829926 
M942.425293,846.815247 
	C945.511475,846.815247 948.597595,846.815247 951.696594,846.815247 
	C952.616821,835.521790 956.509949,826.409424 964.069092,818.918579 
	C971.713867,811.342896 980.974670,807.409363 991.743225,806.601196 
	C991.743225,718.597412 991.743225,630.887634 991.743225,543.209412 
	C970.624634,541.165710 954.835083,527.684692 951.525574,503.217957 
	C863.847595,503.217957 776.148376,503.217957 688.267822,503.217957 
	C687.507141,514.258789 683.256775,523.375549 675.687561,531.018921 
	C668.098145,538.682678 658.569946,542.031860 648.368408,543.190857 
	C648.368408,631.357300 648.368408,718.925781 648.368408,806.460449 
	C667.311279,808.364685 685.124695,820.195984 688.719177,846.815125 
	C772.909119,846.815125 857.175781,846.815125 942.425293,846.815247 
z"/>
<path fill="#0D0D0B" opacity="1.000000" stroke="none" 
	d="
M941.933838,846.815186 
	C857.175781,846.815125 772.909119,846.815125 688.719177,846.815125 
	C685.124695,820.195984 667.311279,808.364685 648.368408,806.460449 
	C648.368408,718.925781 648.368408,631.357300 648.368408,543.190857 
	C658.569946,542.031860 668.098145,538.682678 675.687561,531.018921 
	C683.256775,523.375549 687.507141,514.258789 688.267822,503.217957 
	C776.148376,503.217957 863.847595,503.217957 951.525574,503.217957 
	C954.835083,527.684692 970.624634,541.165710 991.743225,543.209412 
	C991.743225,630.887634 991.743225,718.597412 991.743225,806.601196 
	C980.974670,807.409363 971.713867,811.342896 964.069092,818.918579 
	C956.509949,826.409424 952.616821,835.521790 951.696594,846.815247 
	C948.597595,846.815247 945.511475,846.815247 941.933838,846.815186 
z"/>
</svg>